M48
; DRILL file {KiCad 5.99.0-unknown-c3175b4~86~ubuntu16.04.1} date Fri 29 Nov 2019 06:47:58 PM EST
; FORMAT={-:-/ absolute / inch / decimal}
; #@! TF.CreationDate,2019-11-29T18:47:58-05:00
; #@! TF.GenerationSoftware,Kicad,Pcbnew,5.99.0-unknown-c3175b4~86~ubuntu16.04.1
; #@! TF.FileFunction,Plated,1,2,PTH
FMAT,2
INCH
T1C0.0315
T2C0.0394
T3C0.0630
%
G90
G05
T1
X5.55Y-4.45
X5.55Y-4.55
X5.55Y-4.65
X5.55Y-4.75
X5.55Y-4.85
X5.55Y-4.95
X5.55Y-5.05
X5.55Y-5.15
X6.05Y-4.45
X6.05Y-4.55
X6.05Y-4.65
X6.05Y-4.75
X6.05Y-4.85
X6.05Y-4.95
X6.05Y-5.05
X6.05Y-5.15
X6.55Y-3.9488
X6.55Y-4.0488
X6.55Y-4.1488
X6.55Y-4.25
X6.55Y-4.35
X6.55Y-4.45
X6.55Y-4.55
X6.55Y-4.65
X6.55Y-4.75
X6.55Y-4.85
X6.55Y-4.95
X6.55Y-5.05
X6.55Y-5.15
X6.55Y-5.25
X6.55Y-5.35
X6.55Y-5.45
X6.55Y-5.55
X6.55Y-5.65
X6.55Y-5.75
X6.55Y-5.85
X7.25Y-3.9488
X7.25Y-4.0488
X7.25Y-4.1488
X7.25Y-4.2488
X7.25Y-4.3488
X7.25Y-4.4488
X7.25Y-4.5488
X7.25Y-4.6488
X7.25Y-4.7488
X7.25Y-4.8488
X7.25Y-4.9488
X7.25Y-5.0488
X7.25Y-5.1488
X7.25Y-5.2488
X7.25Y-5.3488
X7.25Y-5.4488
X7.25Y-5.5488
X7.25Y-5.6488
X7.25Y-5.7488
X7.25Y-5.8488
X5.55Y-5.4
X5.55Y-5.5
X5.55Y-5.6
X5.55Y-5.7
X5.55Y-5.8
X5.55Y-5.9
X5.55Y-6.0
X5.55Y-6.1
X6.05Y-5.4
X6.05Y-5.5
X6.05Y-5.6
X6.05Y-5.7
X6.05Y-5.8
X6.05Y-5.9
X6.05Y-6.0
X6.05Y-6.1
T2
X6.35Y-4.25
X6.35Y-4.35
X6.35Y-4.45
X6.35Y-4.55
X6.35Y-4.65
X6.35Y-4.75
X6.35Y-4.85
X6.35Y-4.95
X6.35Y-5.05
X7.45Y-4.25
X7.45Y-4.35
X7.45Y-4.45
X7.45Y-4.55
X7.45Y-4.65
X7.45Y-4.75
X7.45Y-4.85
X7.45Y-4.95
X7.45Y-5.05
X7.45Y-5.15
X7.45Y-5.25
X7.45Y-5.35
X7.45Y-5.45
X7.45Y-5.55
X7.45Y-5.65
X7.45Y-5.75
X7.45Y-5.85
X5.3Y-4.65
X5.3Y-4.75
X5.3Y-4.85
X5.3Y-4.95
X5.3Y-5.6
X5.3Y-5.7
X5.3Y-5.8
X5.3Y-5.9
T3
X5.4138Y-4.065
X5.5319Y-4.25
X5.65Y-4.065
T0
M30
