M48
; DRILL file {KiCad 5.99.0-unknown-c3175b4~86~ubuntu16.04.1} date Wed 27 Nov 2019 01:41:05 PM EST
; FORMAT={-:-/ absolute / inch / decimal}
; #@! TF.CreationDate,2019-11-27T13:41:05-05:00
; #@! TF.GenerationSoftware,Kicad,Pcbnew,5.99.0-unknown-c3175b4~86~ubuntu16.04.1
; #@! TF.FileFunction,Plated,1,2,PTH
FMAT,2
INCH
T1C0.0315
T2C0.0394
T3C0.0630
%
G90
G05
T1
X2.3488Y-2.65
X2.3488Y-3.35
X2.4488Y-2.65
X2.4488Y-3.35
X2.5488Y-2.65
X2.5488Y-3.35
X2.6488Y-2.65
X2.65Y-3.35
X2.7488Y-2.65
X2.75Y-3.35
X2.8488Y-2.65
X2.85Y-3.35
X2.9488Y-2.65
X2.95Y-3.35
X3.0488Y-2.65
X3.05Y-3.35
X3.1488Y-2.65
X3.15Y-3.35
X3.2488Y-2.65
X3.25Y-3.35
X3.3488Y-2.65
X3.35Y-3.35
X3.4488Y-2.65
X3.45Y-3.35
X3.5488Y-2.65
X3.55Y-3.35
X3.6488Y-2.65
X3.65Y-3.35
X3.7488Y-2.65
X3.75Y-3.35
X3.8488Y-2.65
X3.85Y-3.35
X3.9488Y-2.65
X3.95Y-3.35
X4.0488Y-2.65
X4.05Y-3.35
X4.1488Y-2.65
X4.15Y-3.35
X4.2488Y-2.65
X4.25Y-3.35
X6.15Y-2.75
X6.15Y-3.25
X6.25Y-2.75
X6.25Y-3.25
X6.35Y-2.75
X6.35Y-3.25
X6.45Y-2.75
X6.45Y-3.25
X6.55Y-2.75
X6.55Y-3.25
X6.65Y-2.75
X6.65Y-3.25
X6.75Y-2.75
X6.75Y-3.25
X6.85Y-2.75
X6.85Y-3.25
X4.85Y-2.75
X4.85Y-3.25
X4.95Y-2.75
X4.95Y-3.25
X5.05Y-2.75
X5.05Y-3.25
X5.15Y-2.75
X5.15Y-3.25
X5.25Y-2.75
X5.25Y-3.25
X5.35Y-2.75
X5.35Y-3.25
X5.45Y-2.75
X5.45Y-3.25
X5.55Y-2.75
X5.55Y-3.25
T2
X5.05Y-2.5
X5.15Y-2.5
X5.25Y-2.5
X5.35Y-2.5
X6.35Y-2.5
X6.45Y-2.5
X6.55Y-2.5
X6.65Y-2.5
T3
X7.465Y-2.4681
X7.65Y-2.35
X7.65Y-2.5862
T0
M30
