G04 #@! TF.GenerationSoftware,KiCad,Pcbnew,5.99.0-unknown-c3175b4~86~ubuntu16.04.1*
G04 #@! TF.CreationDate,2019-11-27T13:40:58-05:00*
G04 #@! TF.ProjectId,sketchy,736b6574-6368-4792-9e6b-696361645f70,rev?*
G04 #@! TF.SameCoordinates,Original*
G04 #@! TF.FileFunction,Legend,Top*
G04 #@! TF.FilePolarity,Positive*
%FSLAX46Y46*%
G04 Gerber Fmt 4.6, Leading zero omitted, Abs format (unit mm)*
G04 Created by KiCad (PCBNEW 5.99.0-unknown-c3175b4~86~ubuntu16.04.1) date 2019-11-27 13:40:58*
%MOMM*%
%LPD*%
G04 APERTURE LIST*
%ADD10C,0.300000*%
%ADD11C,0.200000*%
%ADD12C,0.120000*%
%ADD13C,0.150000*%
G04 APERTURE END LIST*
D10*
X161457142Y-79990000D02*
X161385714Y-79918571D01*
X161242857Y-79704285D01*
X161171428Y-79561428D01*
X161100000Y-79347142D01*
X161028571Y-78990000D01*
X161028571Y-78704285D01*
X161100000Y-78347142D01*
X161171428Y-78132857D01*
X161242857Y-77990000D01*
X161385714Y-77775714D01*
X161457142Y-77704285D01*
X162314285Y-78704285D02*
X162314285Y-79418571D01*
X161814285Y-77918571D02*
X162314285Y-78704285D01*
X162814285Y-77918571D01*
X164385714Y-78990000D02*
X165100000Y-78990000D01*
X164242857Y-79418571D02*
X164742857Y-77918571D01*
X165242857Y-79418571D01*
X165600000Y-79418571D02*
X166385714Y-78418571D01*
X165600000Y-78418571D02*
X166385714Y-79418571D01*
X166957142Y-79418571D02*
X166957142Y-78418571D01*
X166957142Y-77918571D02*
X166885714Y-77990000D01*
X166957142Y-78061428D01*
X167028571Y-77990000D01*
X166957142Y-77918571D01*
X166957142Y-78061428D01*
X167600000Y-79347142D02*
X167742857Y-79418571D01*
X168028571Y-79418571D01*
X168171428Y-79347142D01*
X168242857Y-79204285D01*
X168242857Y-79132857D01*
X168171428Y-78990000D01*
X168028571Y-78918571D01*
X167814285Y-78918571D01*
X167671428Y-78847142D01*
X167600000Y-78704285D01*
X167600000Y-78632857D01*
X167671428Y-78490000D01*
X167814285Y-78418571D01*
X168028571Y-78418571D01*
X168171428Y-78490000D01*
X168742857Y-79990000D02*
X168814285Y-79918571D01*
X168957142Y-79704285D01*
X169028571Y-79561428D01*
X169100000Y-79347142D01*
X169171428Y-78990000D01*
X169171428Y-78704285D01*
X169100000Y-78347142D01*
X169028571Y-78132857D01*
X168957142Y-77990000D01*
X168814285Y-77775714D01*
X168742857Y-77704285D01*
X128365714Y-79990000D02*
X128294285Y-79918571D01*
X128151428Y-79704285D01*
X128080000Y-79561428D01*
X128008571Y-79347142D01*
X127937142Y-78990000D01*
X127937142Y-78704285D01*
X128008571Y-78347142D01*
X128080000Y-78132857D01*
X128151428Y-77990000D01*
X128294285Y-77775714D01*
X128365714Y-77704285D01*
X128794285Y-77918571D02*
X129794285Y-79418571D01*
X129794285Y-77918571D02*
X128794285Y-79418571D01*
X131437142Y-78990000D02*
X132151428Y-78990000D01*
X131294285Y-79418571D02*
X131794285Y-77918571D01*
X132294285Y-79418571D01*
X132651428Y-79418571D02*
X133437142Y-78418571D01*
X132651428Y-78418571D02*
X133437142Y-79418571D01*
X134008571Y-79418571D02*
X134008571Y-78418571D01*
X134008571Y-77918571D02*
X133937142Y-77990000D01*
X134008571Y-78061428D01*
X134080000Y-77990000D01*
X134008571Y-77918571D01*
X134008571Y-78061428D01*
X134651428Y-79347142D02*
X134794285Y-79418571D01*
X135080000Y-79418571D01*
X135222857Y-79347142D01*
X135294285Y-79204285D01*
X135294285Y-79132857D01*
X135222857Y-78990000D01*
X135080000Y-78918571D01*
X134865714Y-78918571D01*
X134722857Y-78847142D01*
X134651428Y-78704285D01*
X134651428Y-78632857D01*
X134722857Y-78490000D01*
X134865714Y-78418571D01*
X135080000Y-78418571D01*
X135222857Y-78490000D01*
X135794285Y-79990000D02*
X135865714Y-79918571D01*
X136008571Y-79704285D01*
X136080000Y-79561428D01*
X136151428Y-79347142D01*
X136222857Y-78990000D01*
X136222857Y-78704285D01*
X136151428Y-78347142D01*
X136080000Y-78132857D01*
X136008571Y-77990000D01*
X135865714Y-77775714D01*
X135794285Y-77704285D01*
X158528571Y-75739523D02*
X158814285Y-75834761D01*
X159290476Y-75834761D01*
X159480952Y-75739523D01*
X159576190Y-75644285D01*
X159671428Y-75453809D01*
X159671428Y-75263333D01*
X159576190Y-75072857D01*
X159480952Y-74977619D01*
X159290476Y-74882380D01*
X158909523Y-74787142D01*
X158719047Y-74691904D01*
X158623809Y-74596666D01*
X158528571Y-74406190D01*
X158528571Y-74215714D01*
X158623809Y-74025238D01*
X158719047Y-73930000D01*
X158909523Y-73834761D01*
X159385714Y-73834761D01*
X159671428Y-73930000D01*
X160242857Y-74501428D02*
X161004761Y-74501428D01*
X160528571Y-73834761D02*
X160528571Y-75549047D01*
X160623809Y-75739523D01*
X160814285Y-75834761D01*
X161004761Y-75834761D01*
X162433333Y-75739523D02*
X162242857Y-75834761D01*
X161861904Y-75834761D01*
X161671428Y-75739523D01*
X161576190Y-75549047D01*
X161576190Y-74787142D01*
X161671428Y-74596666D01*
X161861904Y-74501428D01*
X162242857Y-74501428D01*
X162433333Y-74596666D01*
X162528571Y-74787142D01*
X162528571Y-74977619D01*
X161576190Y-75168095D01*
X163385714Y-74501428D02*
X163385714Y-76501428D01*
X163385714Y-74596666D02*
X163576190Y-74501428D01*
X163957142Y-74501428D01*
X164147619Y-74596666D01*
X164242857Y-74691904D01*
X164338095Y-74882380D01*
X164338095Y-75453809D01*
X164242857Y-75644285D01*
X164147619Y-75739523D01*
X163957142Y-75834761D01*
X163576190Y-75834761D01*
X163385714Y-75739523D01*
X165100000Y-75739523D02*
X165385714Y-75834761D01*
X165861904Y-75834761D01*
X166052380Y-75739523D01*
X166147619Y-75644285D01*
X166242857Y-75453809D01*
X166242857Y-75263333D01*
X166147619Y-75072857D01*
X166052380Y-74977619D01*
X165861904Y-74882380D01*
X165480952Y-74787142D01*
X165290476Y-74691904D01*
X165195238Y-74596666D01*
X165100000Y-74406190D01*
X165100000Y-74215714D01*
X165195238Y-74025238D01*
X165290476Y-73930000D01*
X165480952Y-73834761D01*
X165957142Y-73834761D01*
X166242857Y-73930000D01*
X166814285Y-74501428D02*
X167576190Y-74501428D01*
X167100000Y-73834761D02*
X167100000Y-75549047D01*
X167195238Y-75739523D01*
X167385714Y-75834761D01*
X167576190Y-75834761D01*
X168242857Y-75834761D02*
X168242857Y-74501428D01*
X168242857Y-73834761D02*
X168147619Y-73930000D01*
X168242857Y-74025238D01*
X168338095Y-73930000D01*
X168242857Y-73834761D01*
X168242857Y-74025238D01*
X170052380Y-75739523D02*
X169861904Y-75834761D01*
X169480952Y-75834761D01*
X169290476Y-75739523D01*
X169195238Y-75644285D01*
X169100000Y-75453809D01*
X169100000Y-74882380D01*
X169195238Y-74691904D01*
X169290476Y-74596666D01*
X169480952Y-74501428D01*
X169861904Y-74501428D01*
X170052380Y-74596666D01*
X170909523Y-75834761D02*
X170909523Y-73834761D01*
X171100000Y-75072857D02*
X171671428Y-75834761D01*
X171671428Y-74501428D02*
X170909523Y-75263333D01*
X125508571Y-75739523D02*
X125794285Y-75834761D01*
X126270476Y-75834761D01*
X126460952Y-75739523D01*
X126556190Y-75644285D01*
X126651428Y-75453809D01*
X126651428Y-75263333D01*
X126556190Y-75072857D01*
X126460952Y-74977619D01*
X126270476Y-74882380D01*
X125889523Y-74787142D01*
X125699047Y-74691904D01*
X125603809Y-74596666D01*
X125508571Y-74406190D01*
X125508571Y-74215714D01*
X125603809Y-74025238D01*
X125699047Y-73930000D01*
X125889523Y-73834761D01*
X126365714Y-73834761D01*
X126651428Y-73930000D01*
X127222857Y-74501428D02*
X127984761Y-74501428D01*
X127508571Y-73834761D02*
X127508571Y-75549047D01*
X127603809Y-75739523D01*
X127794285Y-75834761D01*
X127984761Y-75834761D01*
X129413333Y-75739523D02*
X129222857Y-75834761D01*
X128841904Y-75834761D01*
X128651428Y-75739523D01*
X128556190Y-75549047D01*
X128556190Y-74787142D01*
X128651428Y-74596666D01*
X128841904Y-74501428D01*
X129222857Y-74501428D01*
X129413333Y-74596666D01*
X129508571Y-74787142D01*
X129508571Y-74977619D01*
X128556190Y-75168095D01*
X130365714Y-74501428D02*
X130365714Y-76501428D01*
X130365714Y-74596666D02*
X130556190Y-74501428D01*
X130937142Y-74501428D01*
X131127619Y-74596666D01*
X131222857Y-74691904D01*
X131318095Y-74882380D01*
X131318095Y-75453809D01*
X131222857Y-75644285D01*
X131127619Y-75739523D01*
X130937142Y-75834761D01*
X130556190Y-75834761D01*
X130365714Y-75739523D01*
X132080000Y-75739523D02*
X132365714Y-75834761D01*
X132841904Y-75834761D01*
X133032380Y-75739523D01*
X133127619Y-75644285D01*
X133222857Y-75453809D01*
X133222857Y-75263333D01*
X133127619Y-75072857D01*
X133032380Y-74977619D01*
X132841904Y-74882380D01*
X132460952Y-74787142D01*
X132270476Y-74691904D01*
X132175238Y-74596666D01*
X132080000Y-74406190D01*
X132080000Y-74215714D01*
X132175238Y-74025238D01*
X132270476Y-73930000D01*
X132460952Y-73834761D01*
X132937142Y-73834761D01*
X133222857Y-73930000D01*
X133794285Y-74501428D02*
X134556190Y-74501428D01*
X134080000Y-73834761D02*
X134080000Y-75549047D01*
X134175238Y-75739523D01*
X134365714Y-75834761D01*
X134556190Y-75834761D01*
X135222857Y-75834761D02*
X135222857Y-74501428D01*
X135222857Y-73834761D02*
X135127619Y-73930000D01*
X135222857Y-74025238D01*
X135318095Y-73930000D01*
X135222857Y-73834761D01*
X135222857Y-74025238D01*
X137032380Y-75739523D02*
X136841904Y-75834761D01*
X136460952Y-75834761D01*
X136270476Y-75739523D01*
X136175238Y-75644285D01*
X136080000Y-75453809D01*
X136080000Y-74882380D01*
X136175238Y-74691904D01*
X136270476Y-74596666D01*
X136460952Y-74501428D01*
X136841904Y-74501428D01*
X137032380Y-74596666D01*
X137889523Y-75834761D02*
X137889523Y-73834761D01*
X138080000Y-75072857D02*
X138651428Y-75834761D01*
X138651428Y-74501428D02*
X137889523Y-75263333D01*
D11*
X70170476Y-57619523D02*
X70313333Y-57714761D01*
X70551428Y-57714761D01*
X70646666Y-57619523D01*
X70694285Y-57524285D01*
X70741904Y-57333809D01*
X70741904Y-57143333D01*
X70694285Y-56952857D01*
X70646666Y-56857619D01*
X70551428Y-56762380D01*
X70360952Y-56667142D01*
X70265714Y-56571904D01*
X70218095Y-56476666D01*
X70170476Y-56286190D01*
X70170476Y-56095714D01*
X70218095Y-55905238D01*
X70265714Y-55810000D01*
X70360952Y-55714761D01*
X70599047Y-55714761D01*
X70741904Y-55810000D01*
X71170476Y-57714761D02*
X71170476Y-55714761D01*
X71265714Y-56952857D02*
X71551428Y-57714761D01*
X71551428Y-56381428D02*
X71170476Y-57143333D01*
X72360952Y-57619523D02*
X72265714Y-57714761D01*
X72075238Y-57714761D01*
X71980000Y-57619523D01*
X71932380Y-57429047D01*
X71932380Y-56667142D01*
X71980000Y-56476666D01*
X72075238Y-56381428D01*
X72265714Y-56381428D01*
X72360952Y-56476666D01*
X72408571Y-56667142D01*
X72408571Y-56857619D01*
X71932380Y-57048095D01*
X72694285Y-56381428D02*
X73075238Y-56381428D01*
X72837142Y-55714761D02*
X72837142Y-57429047D01*
X72884761Y-57619523D01*
X72980000Y-57714761D01*
X73075238Y-57714761D01*
X73837142Y-57619523D02*
X73741904Y-57714761D01*
X73551428Y-57714761D01*
X73456190Y-57619523D01*
X73408571Y-57524285D01*
X73360952Y-57333809D01*
X73360952Y-56762380D01*
X73408571Y-56571904D01*
X73456190Y-56476666D01*
X73551428Y-56381428D01*
X73741904Y-56381428D01*
X73837142Y-56476666D01*
X74265714Y-57714761D02*
X74265714Y-55714761D01*
X74694285Y-57714761D02*
X74694285Y-56667142D01*
X74646666Y-56476666D01*
X74551428Y-56381428D01*
X74408571Y-56381428D01*
X74313333Y-56476666D01*
X74265714Y-56571904D01*
X75075238Y-56381428D02*
X75313333Y-57714761D01*
X75551428Y-56381428D02*
X75313333Y-57714761D01*
X75218095Y-58190952D01*
X75170476Y-58286190D01*
X75075238Y-58381428D01*
X76694285Y-57714761D02*
X76694285Y-55714761D01*
X77075238Y-55714761D01*
X77170476Y-55810000D01*
X77218095Y-55905238D01*
X77265714Y-56095714D01*
X77265714Y-56381428D01*
X77218095Y-56571904D01*
X77170476Y-56667142D01*
X77075238Y-56762380D01*
X76694285Y-56762380D01*
X78265714Y-57524285D02*
X78218095Y-57619523D01*
X78075238Y-57714761D01*
X77980000Y-57714761D01*
X77837142Y-57619523D01*
X77741904Y-57429047D01*
X77694285Y-57238571D01*
X77646666Y-56857619D01*
X77646666Y-56571904D01*
X77694285Y-56190952D01*
X77741904Y-56000476D01*
X77837142Y-55810000D01*
X77980000Y-55714761D01*
X78075238Y-55714761D01*
X78218095Y-55810000D01*
X78265714Y-55905238D01*
X79027619Y-56667142D02*
X79170476Y-56762380D01*
X79218095Y-56857619D01*
X79265714Y-57048095D01*
X79265714Y-57333809D01*
X79218095Y-57524285D01*
X79170476Y-57619523D01*
X79075238Y-57714761D01*
X78694285Y-57714761D01*
X78694285Y-55714761D01*
X79027619Y-55714761D01*
X79122857Y-55810000D01*
X79170476Y-55905238D01*
X79218095Y-56095714D01*
X79218095Y-56286190D01*
X79170476Y-56476666D01*
X79122857Y-56571904D01*
X79027619Y-56667142D01*
X78694285Y-56667142D01*
X80360952Y-56381428D02*
X80599047Y-57714761D01*
X80837142Y-56381428D01*
X81170476Y-55905238D02*
X81218095Y-55810000D01*
X81313333Y-55714761D01*
X81551428Y-55714761D01*
X81646666Y-55810000D01*
X81694285Y-55905238D01*
X81741904Y-56095714D01*
X81741904Y-56286190D01*
X81694285Y-56571904D01*
X81122857Y-57714761D01*
X81741904Y-57714761D01*
X82360952Y-55714761D02*
X82456190Y-55714761D01*
X82551428Y-55810000D01*
X82599047Y-55905238D01*
X82646666Y-56095714D01*
X82694285Y-56476666D01*
X82694285Y-56952857D01*
X82646666Y-57333809D01*
X82599047Y-57524285D01*
X82551428Y-57619523D01*
X82456190Y-57714761D01*
X82360952Y-57714761D01*
X82265714Y-57619523D01*
X82218095Y-57524285D01*
X82170476Y-57333809D01*
X82122857Y-56952857D01*
X82122857Y-56476666D01*
X82170476Y-56095714D01*
X82218095Y-55905238D01*
X82265714Y-55810000D01*
X82360952Y-55714761D01*
X83646666Y-57714761D02*
X83075238Y-57714761D01*
X83360952Y-57714761D02*
X83360952Y-55714761D01*
X83265714Y-56000476D01*
X83170476Y-56190952D01*
X83075238Y-56286190D01*
X84122857Y-57714761D02*
X84313333Y-57714761D01*
X84408571Y-57619523D01*
X84456190Y-57524285D01*
X84551428Y-57238571D01*
X84599047Y-56857619D01*
X84599047Y-56095714D01*
X84551428Y-55905238D01*
X84503809Y-55810000D01*
X84408571Y-55714761D01*
X84218095Y-55714761D01*
X84122857Y-55810000D01*
X84075238Y-55905238D01*
X84027619Y-56095714D01*
X84027619Y-56571904D01*
X84075238Y-56762380D01*
X84122857Y-56857619D01*
X84218095Y-56952857D01*
X84408571Y-56952857D01*
X84503809Y-56857619D01*
X84551428Y-56762380D01*
X84599047Y-56571904D01*
X85551428Y-57714761D02*
X84980000Y-57714761D01*
X85265714Y-57714761D02*
X85265714Y-55714761D01*
X85170476Y-56000476D01*
X85075238Y-56190952D01*
X84980000Y-56286190D01*
X86503809Y-57714761D02*
X85932380Y-57714761D01*
X86218095Y-57714761D02*
X86218095Y-55714761D01*
X86122857Y-56000476D01*
X86027619Y-56190952D01*
X85932380Y-56286190D01*
X86884761Y-55905238D02*
X86932380Y-55810000D01*
X87027619Y-55714761D01*
X87265714Y-55714761D01*
X87360952Y-55810000D01*
X87408571Y-55905238D01*
X87456190Y-56095714D01*
X87456190Y-56286190D01*
X87408571Y-56571904D01*
X86837142Y-57714761D01*
X87456190Y-57714761D01*
X87789523Y-55714761D02*
X88456190Y-55714761D01*
X88027619Y-57714761D01*
X70218095Y-60934761D02*
X70218095Y-58934761D01*
X70646666Y-60934761D02*
X70646666Y-59887142D01*
X70599047Y-59696666D01*
X70503809Y-59601428D01*
X70360952Y-59601428D01*
X70265714Y-59696666D01*
X70218095Y-59791904D01*
X70980000Y-59601428D02*
X71360952Y-59601428D01*
X71122857Y-58934761D02*
X71122857Y-60649047D01*
X71170476Y-60839523D01*
X71265714Y-60934761D01*
X71360952Y-60934761D01*
X71551428Y-59601428D02*
X71932380Y-59601428D01*
X71694285Y-58934761D02*
X71694285Y-60649047D01*
X71741904Y-60839523D01*
X71837142Y-60934761D01*
X71932380Y-60934761D01*
X72265714Y-59601428D02*
X72265714Y-61601428D01*
X72265714Y-59696666D02*
X72360952Y-59601428D01*
X72551428Y-59601428D01*
X72646666Y-59696666D01*
X72694285Y-59791904D01*
X72741904Y-59982380D01*
X72741904Y-60553809D01*
X72694285Y-60744285D01*
X72646666Y-60839523D01*
X72551428Y-60934761D01*
X72360952Y-60934761D01*
X72265714Y-60839523D01*
X73122857Y-60839523D02*
X73218095Y-60934761D01*
X73408571Y-60934761D01*
X73503809Y-60839523D01*
X73551428Y-60649047D01*
X73551428Y-60553809D01*
X73503809Y-60363333D01*
X73408571Y-60268095D01*
X73265714Y-60268095D01*
X73170476Y-60172857D01*
X73122857Y-59982380D01*
X73122857Y-59887142D01*
X73170476Y-59696666D01*
X73265714Y-59601428D01*
X73408571Y-59601428D01*
X73503809Y-59696666D01*
X73980000Y-60744285D02*
X74027619Y-60839523D01*
X73980000Y-60934761D01*
X73932380Y-60839523D01*
X73980000Y-60744285D01*
X73980000Y-60934761D01*
X73980000Y-59696666D02*
X74027619Y-59791904D01*
X73980000Y-59887142D01*
X73932380Y-59791904D01*
X73980000Y-59696666D01*
X73980000Y-59887142D01*
X75170476Y-58839523D02*
X74313333Y-61410952D01*
X76218095Y-58839523D02*
X75360952Y-61410952D01*
X76980000Y-59601428D02*
X76980000Y-61220476D01*
X76932380Y-61410952D01*
X76884761Y-61506190D01*
X76789523Y-61601428D01*
X76646666Y-61601428D01*
X76551428Y-61506190D01*
X76980000Y-60839523D02*
X76884761Y-60934761D01*
X76694285Y-60934761D01*
X76599047Y-60839523D01*
X76551428Y-60744285D01*
X76503809Y-60553809D01*
X76503809Y-59982380D01*
X76551428Y-59791904D01*
X76599047Y-59696666D01*
X76694285Y-59601428D01*
X76884761Y-59601428D01*
X76980000Y-59696666D01*
X77456190Y-60934761D02*
X77456190Y-59601428D01*
X77456190Y-58934761D02*
X77408571Y-59030000D01*
X77456190Y-59125238D01*
X77503809Y-59030000D01*
X77456190Y-58934761D01*
X77456190Y-59125238D01*
X77789523Y-59601428D02*
X78170476Y-59601428D01*
X77932380Y-58934761D02*
X77932380Y-60649047D01*
X77980000Y-60839523D01*
X78075238Y-60934761D01*
X78170476Y-60934761D01*
X78503809Y-60934761D02*
X78503809Y-58934761D01*
X78932380Y-60934761D02*
X78932380Y-59887142D01*
X78884761Y-59696666D01*
X78789523Y-59601428D01*
X78646666Y-59601428D01*
X78551428Y-59696666D01*
X78503809Y-59791904D01*
X79837142Y-59601428D02*
X79837142Y-60934761D01*
X79408571Y-59601428D02*
X79408571Y-60649047D01*
X79456190Y-60839523D01*
X79551428Y-60934761D01*
X79694285Y-60934761D01*
X79789523Y-60839523D01*
X79837142Y-60744285D01*
X80313333Y-60934761D02*
X80313333Y-58934761D01*
X80313333Y-59696666D02*
X80408571Y-59601428D01*
X80599047Y-59601428D01*
X80694285Y-59696666D01*
X80741904Y-59791904D01*
X80789523Y-59982380D01*
X80789523Y-60553809D01*
X80741904Y-60744285D01*
X80694285Y-60839523D01*
X80599047Y-60934761D01*
X80408571Y-60934761D01*
X80313333Y-60839523D01*
X81218095Y-60744285D02*
X81265714Y-60839523D01*
X81218095Y-60934761D01*
X81170476Y-60839523D01*
X81218095Y-60744285D01*
X81218095Y-60934761D01*
X82122857Y-60839523D02*
X82027619Y-60934761D01*
X81837142Y-60934761D01*
X81741904Y-60839523D01*
X81694285Y-60744285D01*
X81646666Y-60553809D01*
X81646666Y-59982380D01*
X81694285Y-59791904D01*
X81741904Y-59696666D01*
X81837142Y-59601428D01*
X82027619Y-59601428D01*
X82122857Y-59696666D01*
X82694285Y-60934761D02*
X82599047Y-60839523D01*
X82551428Y-60744285D01*
X82503809Y-60553809D01*
X82503809Y-59982380D01*
X82551428Y-59791904D01*
X82599047Y-59696666D01*
X82694285Y-59601428D01*
X82837142Y-59601428D01*
X82932380Y-59696666D01*
X82980000Y-59791904D01*
X83027619Y-59982380D01*
X83027619Y-60553809D01*
X82980000Y-60744285D01*
X82932380Y-60839523D01*
X82837142Y-60934761D01*
X82694285Y-60934761D01*
X83456190Y-60934761D02*
X83456190Y-59601428D01*
X83456190Y-59791904D02*
X83503809Y-59696666D01*
X83599047Y-59601428D01*
X83741904Y-59601428D01*
X83837142Y-59696666D01*
X83884761Y-59887142D01*
X83884761Y-60934761D01*
X83884761Y-59887142D02*
X83932380Y-59696666D01*
X84027619Y-59601428D01*
X84170476Y-59601428D01*
X84265714Y-59696666D01*
X84313333Y-59887142D01*
X84313333Y-60934761D01*
X85503809Y-58839523D02*
X84646666Y-61410952D01*
X86265714Y-60934761D02*
X86265714Y-58934761D01*
X86265714Y-60839523D02*
X86170476Y-60934761D01*
X85980000Y-60934761D01*
X85884761Y-60839523D01*
X85837142Y-60744285D01*
X85789523Y-60553809D01*
X85789523Y-59982380D01*
X85837142Y-59791904D01*
X85884761Y-59696666D01*
X85980000Y-59601428D01*
X86170476Y-59601428D01*
X86265714Y-59696666D01*
X87122857Y-60839523D02*
X87027619Y-60934761D01*
X86837142Y-60934761D01*
X86741904Y-60839523D01*
X86694285Y-60649047D01*
X86694285Y-59887142D01*
X86741904Y-59696666D01*
X86837142Y-59601428D01*
X87027619Y-59601428D01*
X87122857Y-59696666D01*
X87170476Y-59887142D01*
X87170476Y-60077619D01*
X86694285Y-60268095D01*
X87599047Y-60934761D02*
X87599047Y-59601428D01*
X87599047Y-59982380D02*
X87646666Y-59791904D01*
X87694285Y-59696666D01*
X87789523Y-59601428D01*
X87884761Y-59601428D01*
X88599047Y-60839523D02*
X88503809Y-60934761D01*
X88313333Y-60934761D01*
X88218095Y-60839523D01*
X88170476Y-60649047D01*
X88170476Y-59887142D01*
X88218095Y-59696666D01*
X88313333Y-59601428D01*
X88503809Y-59601428D01*
X88599047Y-59696666D01*
X88646666Y-59887142D01*
X88646666Y-60077619D01*
X88170476Y-60268095D01*
X89075238Y-60934761D02*
X89075238Y-58934761D01*
X89170476Y-60172857D02*
X89456190Y-60934761D01*
X89456190Y-59601428D02*
X89075238Y-60363333D01*
X90265714Y-60839523D02*
X90170476Y-60934761D01*
X89980000Y-60934761D01*
X89884761Y-60839523D01*
X89837142Y-60649047D01*
X89837142Y-59887142D01*
X89884761Y-59696666D01*
X89980000Y-59601428D01*
X90170476Y-59601428D01*
X90265714Y-59696666D01*
X90313333Y-59887142D01*
X90313333Y-60077619D01*
X89837142Y-60268095D01*
X90741904Y-59601428D02*
X90741904Y-60934761D01*
X90741904Y-59791904D02*
X90789523Y-59696666D01*
X90884761Y-59601428D01*
X91027619Y-59601428D01*
X91122857Y-59696666D01*
X91170476Y-59887142D01*
X91170476Y-60934761D01*
X91789523Y-60934761D02*
X91694285Y-60839523D01*
X91646666Y-60744285D01*
X91599047Y-60553809D01*
X91599047Y-59982380D01*
X91646666Y-59791904D01*
X91694285Y-59696666D01*
X91789523Y-59601428D01*
X91932380Y-59601428D01*
X92027619Y-59696666D01*
X92075238Y-59791904D01*
X92122857Y-59982380D01*
X92122857Y-60553809D01*
X92075238Y-60744285D01*
X92027619Y-60839523D01*
X91932380Y-60934761D01*
X91789523Y-60934761D01*
X92503809Y-60839523D02*
X92599047Y-60934761D01*
X92789523Y-60934761D01*
X92884761Y-60839523D01*
X92932380Y-60649047D01*
X92932380Y-60553809D01*
X92884761Y-60363333D01*
X92789523Y-60268095D01*
X92646666Y-60268095D01*
X92551428Y-60172857D01*
X92503809Y-59982380D01*
X92503809Y-59887142D01*
X92551428Y-59696666D01*
X92646666Y-59601428D01*
X92789523Y-59601428D01*
X92884761Y-59696666D01*
X94075238Y-58839523D02*
X93218095Y-61410952D01*
X94408571Y-60934761D02*
X94408571Y-59601428D01*
X94408571Y-58934761D02*
X94360952Y-59030000D01*
X94408571Y-59125238D01*
X94456190Y-59030000D01*
X94408571Y-58934761D01*
X94408571Y-59125238D01*
X95027619Y-60934761D02*
X94932380Y-60839523D01*
X94884761Y-60744285D01*
X94837142Y-60553809D01*
X94837142Y-59982380D01*
X94884761Y-59791904D01*
X94932380Y-59696666D01*
X95027619Y-59601428D01*
X95170476Y-59601428D01*
X95265714Y-59696666D01*
X95313333Y-59791904D01*
X95360952Y-59982380D01*
X95360952Y-60553809D01*
X95313333Y-60744285D01*
X95265714Y-60839523D01*
X95170476Y-60934761D01*
X95027619Y-60934761D01*
X95789523Y-60934761D02*
X95789523Y-59601428D01*
X95789523Y-59791904D02*
X95837142Y-59696666D01*
X95932380Y-59601428D01*
X96075238Y-59601428D01*
X96170476Y-59696666D01*
X96218095Y-59887142D01*
X96218095Y-60934761D01*
X96218095Y-59887142D02*
X96265714Y-59696666D01*
X96360952Y-59601428D01*
X96503809Y-59601428D01*
X96599047Y-59696666D01*
X96646666Y-59887142D01*
X96646666Y-60934761D01*
X97503809Y-60839523D02*
X97408571Y-60934761D01*
X97218095Y-60934761D01*
X97122857Y-60839523D01*
X97075238Y-60649047D01*
X97075238Y-59887142D01*
X97122857Y-59696666D01*
X97218095Y-59601428D01*
X97408571Y-59601428D01*
X97503809Y-59696666D01*
X97551428Y-59887142D01*
X97551428Y-60077619D01*
X97075238Y-60268095D01*
X98694285Y-58839523D02*
X97837142Y-61410952D01*
X98884761Y-59601428D02*
X99265714Y-59601428D01*
X99027619Y-58934761D02*
X99027619Y-60649047D01*
X99075238Y-60839523D01*
X99170476Y-60934761D01*
X99265714Y-60934761D01*
X99599047Y-60934761D02*
X99599047Y-59601428D01*
X99599047Y-59982380D02*
X99646666Y-59791904D01*
X99694285Y-59696666D01*
X99789523Y-59601428D01*
X99884761Y-59601428D01*
X100599047Y-60839523D02*
X100503809Y-60934761D01*
X100313333Y-60934761D01*
X100218095Y-60839523D01*
X100170476Y-60649047D01*
X100170476Y-59887142D01*
X100218095Y-59696666D01*
X100313333Y-59601428D01*
X100503809Y-59601428D01*
X100599047Y-59696666D01*
X100646666Y-59887142D01*
X100646666Y-60077619D01*
X100170476Y-60268095D01*
X101456190Y-60839523D02*
X101360952Y-60934761D01*
X101170476Y-60934761D01*
X101075238Y-60839523D01*
X101027619Y-60649047D01*
X101027619Y-59887142D01*
X101075238Y-59696666D01*
X101170476Y-59601428D01*
X101360952Y-59601428D01*
X101456190Y-59696666D01*
X101503809Y-59887142D01*
X101503809Y-60077619D01*
X101027619Y-60268095D01*
X102646666Y-58839523D02*
X101789523Y-61410952D01*
X102980000Y-60934761D02*
X102980000Y-59601428D01*
X102980000Y-59791904D02*
X103027619Y-59696666D01*
X103122857Y-59601428D01*
X103265714Y-59601428D01*
X103360952Y-59696666D01*
X103408571Y-59887142D01*
X103408571Y-60934761D01*
X103408571Y-59887142D02*
X103456190Y-59696666D01*
X103551428Y-59601428D01*
X103694285Y-59601428D01*
X103789523Y-59696666D01*
X103837142Y-59887142D01*
X103837142Y-60934761D01*
X104741904Y-60934761D02*
X104741904Y-59887142D01*
X104694285Y-59696666D01*
X104599047Y-59601428D01*
X104408571Y-59601428D01*
X104313333Y-59696666D01*
X104741904Y-60839523D02*
X104646666Y-60934761D01*
X104408571Y-60934761D01*
X104313333Y-60839523D01*
X104265714Y-60649047D01*
X104265714Y-60458571D01*
X104313333Y-60268095D01*
X104408571Y-60172857D01*
X104646666Y-60172857D01*
X104741904Y-60077619D01*
X105170476Y-60839523D02*
X105265714Y-60934761D01*
X105456190Y-60934761D01*
X105551428Y-60839523D01*
X105599047Y-60649047D01*
X105599047Y-60553809D01*
X105551428Y-60363333D01*
X105456190Y-60268095D01*
X105313333Y-60268095D01*
X105218095Y-60172857D01*
X105170476Y-59982380D01*
X105170476Y-59887142D01*
X105218095Y-59696666D01*
X105313333Y-59601428D01*
X105456190Y-59601428D01*
X105551428Y-59696666D01*
X105884761Y-59601428D02*
X106265714Y-59601428D01*
X106027619Y-58934761D02*
X106027619Y-60649047D01*
X106075238Y-60839523D01*
X106170476Y-60934761D01*
X106265714Y-60934761D01*
X106980000Y-60839523D02*
X106884761Y-60934761D01*
X106694285Y-60934761D01*
X106599047Y-60839523D01*
X106551428Y-60649047D01*
X106551428Y-59887142D01*
X106599047Y-59696666D01*
X106694285Y-59601428D01*
X106884761Y-59601428D01*
X106980000Y-59696666D01*
X107027619Y-59887142D01*
X107027619Y-60077619D01*
X106551428Y-60268095D01*
X107456190Y-60934761D02*
X107456190Y-59601428D01*
X107456190Y-59982380D02*
X107503809Y-59791904D01*
X107551428Y-59696666D01*
X107646666Y-59601428D01*
X107741904Y-59601428D01*
X108789523Y-58839523D02*
X107932380Y-61410952D01*
X109551428Y-60934761D02*
X109551428Y-59887142D01*
X109503809Y-59696666D01*
X109408571Y-59601428D01*
X109218095Y-59601428D01*
X109122857Y-59696666D01*
X109551428Y-60839523D02*
X109456190Y-60934761D01*
X109218095Y-60934761D01*
X109122857Y-60839523D01*
X109075238Y-60649047D01*
X109075238Y-60458571D01*
X109122857Y-60268095D01*
X109218095Y-60172857D01*
X109456190Y-60172857D01*
X109551428Y-60077619D01*
X110027619Y-59601428D02*
X110027619Y-61601428D01*
X110027619Y-59696666D02*
X110122857Y-59601428D01*
X110313333Y-59601428D01*
X110408571Y-59696666D01*
X110456190Y-59791904D01*
X110503809Y-59982380D01*
X110503809Y-60553809D01*
X110456190Y-60744285D01*
X110408571Y-60839523D01*
X110313333Y-60934761D01*
X110122857Y-60934761D01*
X110027619Y-60839523D01*
X110932380Y-59601428D02*
X110932380Y-61601428D01*
X110932380Y-59696666D02*
X111027619Y-59601428D01*
X111218095Y-59601428D01*
X111313333Y-59696666D01*
X111360952Y-59791904D01*
X111408571Y-59982380D01*
X111408571Y-60553809D01*
X111360952Y-60744285D01*
X111313333Y-60839523D01*
X111218095Y-60934761D01*
X111027619Y-60934761D01*
X110932380Y-60839523D01*
X111980000Y-60934761D02*
X111884761Y-60839523D01*
X111837142Y-60649047D01*
X111837142Y-58934761D01*
X112360952Y-60934761D02*
X112360952Y-59601428D01*
X112360952Y-58934761D02*
X112313333Y-59030000D01*
X112360952Y-59125238D01*
X112408571Y-59030000D01*
X112360952Y-58934761D01*
X112360952Y-59125238D01*
X113265714Y-60934761D02*
X113265714Y-59887142D01*
X113218095Y-59696666D01*
X113122857Y-59601428D01*
X112932380Y-59601428D01*
X112837142Y-59696666D01*
X113265714Y-60839523D02*
X113170476Y-60934761D01*
X112932380Y-60934761D01*
X112837142Y-60839523D01*
X112789523Y-60649047D01*
X112789523Y-60458571D01*
X112837142Y-60268095D01*
X112932380Y-60172857D01*
X113170476Y-60172857D01*
X113265714Y-60077619D01*
X113741904Y-59601428D02*
X113741904Y-60934761D01*
X113741904Y-59791904D02*
X113789523Y-59696666D01*
X113884761Y-59601428D01*
X114027619Y-59601428D01*
X114122857Y-59696666D01*
X114170476Y-59887142D01*
X114170476Y-60934761D01*
X115075238Y-60839523D02*
X114980000Y-60934761D01*
X114789523Y-60934761D01*
X114694285Y-60839523D01*
X114646666Y-60744285D01*
X114599047Y-60553809D01*
X114599047Y-59982380D01*
X114646666Y-59791904D01*
X114694285Y-59696666D01*
X114789523Y-59601428D01*
X114980000Y-59601428D01*
X115075238Y-59696666D01*
X115884761Y-60839523D02*
X115789523Y-60934761D01*
X115599047Y-60934761D01*
X115503809Y-60839523D01*
X115456190Y-60649047D01*
X115456190Y-59887142D01*
X115503809Y-59696666D01*
X115599047Y-59601428D01*
X115789523Y-59601428D01*
X115884761Y-59696666D01*
X115932380Y-59887142D01*
X115932380Y-60077619D01*
X115456190Y-60268095D01*
X116313333Y-60839523D02*
X116408571Y-60934761D01*
X116599047Y-60934761D01*
X116694285Y-60839523D01*
X116741904Y-60649047D01*
X116741904Y-60553809D01*
X116694285Y-60363333D01*
X116599047Y-60268095D01*
X116456190Y-60268095D01*
X116360952Y-60172857D01*
X116313333Y-59982380D01*
X116313333Y-59887142D01*
X116360952Y-59696666D01*
X116456190Y-59601428D01*
X116599047Y-59601428D01*
X116694285Y-59696666D01*
X117884761Y-58839523D02*
X117027619Y-61410952D01*
X118170476Y-60839523D02*
X118265714Y-60934761D01*
X118456190Y-60934761D01*
X118551428Y-60839523D01*
X118599047Y-60649047D01*
X118599047Y-60553809D01*
X118551428Y-60363333D01*
X118456190Y-60268095D01*
X118313333Y-60268095D01*
X118218095Y-60172857D01*
X118170476Y-59982380D01*
X118170476Y-59887142D01*
X118218095Y-59696666D01*
X118313333Y-59601428D01*
X118456190Y-59601428D01*
X118551428Y-59696666D01*
X119027619Y-60934761D02*
X119027619Y-58934761D01*
X119122857Y-60172857D02*
X119408571Y-60934761D01*
X119408571Y-59601428D02*
X119027619Y-60363333D01*
X120218095Y-60839523D02*
X120122857Y-60934761D01*
X119932380Y-60934761D01*
X119837142Y-60839523D01*
X119789523Y-60649047D01*
X119789523Y-59887142D01*
X119837142Y-59696666D01*
X119932380Y-59601428D01*
X120122857Y-59601428D01*
X120218095Y-59696666D01*
X120265714Y-59887142D01*
X120265714Y-60077619D01*
X119789523Y-60268095D01*
X120551428Y-59601428D02*
X120932380Y-59601428D01*
X120694285Y-58934761D02*
X120694285Y-60649047D01*
X120741904Y-60839523D01*
X120837142Y-60934761D01*
X120932380Y-60934761D01*
X121694285Y-60839523D02*
X121599047Y-60934761D01*
X121408571Y-60934761D01*
X121313333Y-60839523D01*
X121265714Y-60744285D01*
X121218095Y-60553809D01*
X121218095Y-59982380D01*
X121265714Y-59791904D01*
X121313333Y-59696666D01*
X121408571Y-59601428D01*
X121599047Y-59601428D01*
X121694285Y-59696666D01*
X122122857Y-60934761D02*
X122122857Y-58934761D01*
X122551428Y-60934761D02*
X122551428Y-59887142D01*
X122503809Y-59696666D01*
X122408571Y-59601428D01*
X122265714Y-59601428D01*
X122170476Y-59696666D01*
X122122857Y-59791904D01*
X122932380Y-59601428D02*
X123170476Y-60934761D01*
X123408571Y-59601428D02*
X123170476Y-60934761D01*
X123075238Y-61410952D01*
X123027619Y-61506190D01*
X122932380Y-61601428D01*
D10*
X193071904Y-71684761D02*
X191929047Y-71684761D01*
X192500476Y-71684761D02*
X192500476Y-69684761D01*
X192310000Y-69970476D01*
X192119523Y-70160952D01*
X191929047Y-70256190D01*
X193833809Y-69875238D02*
X193929047Y-69780000D01*
X194119523Y-69684761D01*
X194595714Y-69684761D01*
X194786190Y-69780000D01*
X194881428Y-69875238D01*
X194976666Y-70065714D01*
X194976666Y-70256190D01*
X194881428Y-70541904D01*
X193738571Y-71684761D01*
X194976666Y-71684761D01*
X195548095Y-69684761D02*
X196214761Y-71684761D01*
X196881428Y-69684761D01*
X189167142Y-74904761D02*
X189167142Y-72904761D01*
X189929047Y-72904761D01*
X190119523Y-73000000D01*
X190214761Y-73095238D01*
X190310000Y-73285714D01*
X190310000Y-73571428D01*
X190214761Y-73761904D01*
X190119523Y-73857142D01*
X189929047Y-73952380D01*
X189167142Y-73952380D01*
X191452857Y-74904761D02*
X191262380Y-74809523D01*
X191167142Y-74714285D01*
X191071904Y-74523809D01*
X191071904Y-73952380D01*
X191167142Y-73761904D01*
X191262380Y-73666666D01*
X191452857Y-73571428D01*
X191738571Y-73571428D01*
X191929047Y-73666666D01*
X192024285Y-73761904D01*
X192119523Y-73952380D01*
X192119523Y-74523809D01*
X192024285Y-74714285D01*
X191929047Y-74809523D01*
X191738571Y-74904761D01*
X191452857Y-74904761D01*
X192881428Y-74809523D02*
X193071904Y-74904761D01*
X193452857Y-74904761D01*
X193643333Y-74809523D01*
X193738571Y-74619047D01*
X193738571Y-74523809D01*
X193643333Y-74333333D01*
X193452857Y-74238095D01*
X193167142Y-74238095D01*
X192976666Y-74142857D01*
X192881428Y-73952380D01*
X192881428Y-73857142D01*
X192976666Y-73666666D01*
X193167142Y-73571428D01*
X193452857Y-73571428D01*
X193643333Y-73666666D01*
X195833809Y-72904761D02*
X196976666Y-72904761D01*
X196405238Y-74904761D02*
X196405238Y-72904761D01*
X197643333Y-74904761D02*
X197643333Y-73571428D01*
X197643333Y-72904761D02*
X197548095Y-73000000D01*
X197643333Y-73095238D01*
X197738571Y-73000000D01*
X197643333Y-72904761D01*
X197643333Y-73095238D01*
X198595714Y-73571428D02*
X198595714Y-75571428D01*
X198595714Y-73666666D02*
X198786190Y-73571428D01*
X199167142Y-73571428D01*
X199357619Y-73666666D01*
X199452857Y-73761904D01*
X199548095Y-73952380D01*
X199548095Y-74523809D01*
X199452857Y-74714285D01*
X199357619Y-74809523D01*
X199167142Y-74904761D01*
X198786190Y-74904761D01*
X198595714Y-74809523D01*
X163189898Y-67414438D02*
X163118470Y-67343010D01*
X163047041Y-67200152D01*
X163047041Y-66843010D01*
X163118470Y-66700152D01*
X163189898Y-66628724D01*
X163332755Y-66557295D01*
X163475612Y-66557295D01*
X163689898Y-66628724D01*
X164547041Y-67485867D01*
X164547041Y-66557295D01*
X164118470Y-65985867D02*
X164118470Y-65271581D01*
X164547041Y-66128724D02*
X163047041Y-65628724D01*
X164547041Y-65128724D01*
X167087041Y-66557295D02*
X167087041Y-67414438D01*
X167087041Y-66985867D02*
X165587041Y-66985867D01*
X165801327Y-67128724D01*
X165944184Y-67271581D01*
X166015612Y-67414438D01*
X166658470Y-65985867D02*
X166658470Y-65271581D01*
X167087041Y-66128724D02*
X165587041Y-65628724D01*
X167087041Y-65128724D01*
X169627041Y-66664438D02*
X169627041Y-67521581D01*
X169627041Y-67093010D02*
X168127041Y-67093010D01*
X168341327Y-67235867D01*
X168484184Y-67378724D01*
X168555612Y-67521581D01*
X168841327Y-65521581D02*
X168912755Y-65307295D01*
X168984184Y-65235867D01*
X169127041Y-65164438D01*
X169341327Y-65164438D01*
X169484184Y-65235867D01*
X169555612Y-65307295D01*
X169627041Y-65450152D01*
X169627041Y-66021581D01*
X168127041Y-66021581D01*
X168127041Y-65521581D01*
X168198470Y-65378724D01*
X168269898Y-65307295D01*
X168412755Y-65235867D01*
X168555612Y-65235867D01*
X168698470Y-65307295D01*
X168769898Y-65378724D01*
X168841327Y-65521581D01*
X168841327Y-66021581D01*
X160649898Y-67521581D02*
X160578470Y-67450152D01*
X160507041Y-67307295D01*
X160507041Y-66950152D01*
X160578470Y-66807295D01*
X160649898Y-66735867D01*
X160792755Y-66664438D01*
X160935612Y-66664438D01*
X161149898Y-66735867D01*
X162007041Y-67593010D01*
X162007041Y-66664438D01*
X161221327Y-65521581D02*
X161292755Y-65307295D01*
X161364184Y-65235867D01*
X161507041Y-65164438D01*
X161721327Y-65164438D01*
X161864184Y-65235867D01*
X161935612Y-65307295D01*
X162007041Y-65450152D01*
X162007041Y-66021581D01*
X160507041Y-66021581D01*
X160507041Y-65521581D01*
X160578470Y-65378724D01*
X160649898Y-65307295D01*
X160792755Y-65235867D01*
X160935612Y-65235867D01*
X161078470Y-65307295D01*
X161149898Y-65378724D01*
X161221327Y-65521581D01*
X161221327Y-66021581D01*
X127629898Y-67521581D02*
X127558470Y-67450152D01*
X127487041Y-67307295D01*
X127487041Y-66950152D01*
X127558470Y-66807295D01*
X127629898Y-66735867D01*
X127772755Y-66664438D01*
X127915612Y-66664438D01*
X128129898Y-66735867D01*
X128987041Y-67593010D01*
X128987041Y-66664438D01*
X128201327Y-65521581D02*
X128272755Y-65307295D01*
X128344184Y-65235867D01*
X128487041Y-65164438D01*
X128701327Y-65164438D01*
X128844184Y-65235867D01*
X128915612Y-65307295D01*
X128987041Y-65450152D01*
X128987041Y-66021581D01*
X127487041Y-66021581D01*
X127487041Y-65521581D01*
X127558470Y-65378724D01*
X127629898Y-65307295D01*
X127772755Y-65235867D01*
X127915612Y-65235867D01*
X128058470Y-65307295D01*
X128129898Y-65378724D01*
X128201327Y-65521581D01*
X128201327Y-66021581D01*
X130169898Y-67414438D02*
X130098470Y-67343010D01*
X130027041Y-67200152D01*
X130027041Y-66843010D01*
X130098470Y-66700152D01*
X130169898Y-66628724D01*
X130312755Y-66557295D01*
X130455612Y-66557295D01*
X130669898Y-66628724D01*
X131527041Y-67485867D01*
X131527041Y-66557295D01*
X131098470Y-65985867D02*
X131098470Y-65271581D01*
X131527041Y-66128724D02*
X130027041Y-65628724D01*
X131527041Y-65128724D01*
X134067041Y-66557295D02*
X134067041Y-67414438D01*
X134067041Y-66985867D02*
X132567041Y-66985867D01*
X132781327Y-67128724D01*
X132924184Y-67271581D01*
X132995612Y-67414438D01*
X133638470Y-65985867D02*
X133638470Y-65271581D01*
X134067041Y-66128724D02*
X132567041Y-65628724D01*
X134067041Y-65128724D01*
X136607041Y-66664438D02*
X136607041Y-67521581D01*
X136607041Y-67093010D02*
X135107041Y-67093010D01*
X135321327Y-67235867D01*
X135464184Y-67378724D01*
X135535612Y-67521581D01*
X135821327Y-65521581D02*
X135892755Y-65307295D01*
X135964184Y-65235867D01*
X136107041Y-65164438D01*
X136321327Y-65164438D01*
X136464184Y-65235867D01*
X136535612Y-65307295D01*
X136607041Y-65450152D01*
X136607041Y-66021581D01*
X135107041Y-66021581D01*
X135107041Y-65521581D01*
X135178470Y-65378724D01*
X135249898Y-65307295D01*
X135392755Y-65235867D01*
X135535612Y-65235867D01*
X135678470Y-65307295D01*
X135749898Y-65378724D01*
X135821327Y-65521581D01*
X135821327Y-66021581D01*
X173744285Y-60924285D02*
X173744285Y-61638571D01*
X173244285Y-60138571D02*
X173744285Y-60924285D01*
X174244285Y-60138571D01*
X175815714Y-61210000D02*
X176530000Y-61210000D01*
X175672857Y-61638571D02*
X176172857Y-60138571D01*
X176672857Y-61638571D01*
X177030000Y-61638571D02*
X177815714Y-60638571D01*
X177030000Y-60638571D02*
X177815714Y-61638571D01*
X178387142Y-61638571D02*
X178387142Y-60638571D01*
X178387142Y-60138571D02*
X178315714Y-60210000D01*
X178387142Y-60281428D01*
X178458571Y-60210000D01*
X178387142Y-60138571D01*
X178387142Y-60281428D01*
X179030000Y-61567142D02*
X179172857Y-61638571D01*
X179458571Y-61638571D01*
X179601428Y-61567142D01*
X179672857Y-61424285D01*
X179672857Y-61352857D01*
X179601428Y-61210000D01*
X179458571Y-61138571D01*
X179244285Y-61138571D01*
X179101428Y-61067142D01*
X179030000Y-60924285D01*
X179030000Y-60852857D01*
X179101428Y-60710000D01*
X179244285Y-60638571D01*
X179458571Y-60638571D01*
X179601428Y-60710000D01*
X140224285Y-60138571D02*
X141224285Y-61638571D01*
X141224285Y-60138571D02*
X140224285Y-61638571D01*
X142867142Y-61210000D02*
X143581428Y-61210000D01*
X142724285Y-61638571D02*
X143224285Y-60138571D01*
X143724285Y-61638571D01*
X144081428Y-61638571D02*
X144867142Y-60638571D01*
X144081428Y-60638571D02*
X144867142Y-61638571D01*
X145438571Y-61638571D02*
X145438571Y-60638571D01*
X145438571Y-60138571D02*
X145367142Y-60210000D01*
X145438571Y-60281428D01*
X145510000Y-60210000D01*
X145438571Y-60138571D01*
X145438571Y-60281428D01*
X146081428Y-61567142D02*
X146224285Y-61638571D01*
X146510000Y-61638571D01*
X146652857Y-61567142D01*
X146724285Y-61424285D01*
X146724285Y-61352857D01*
X146652857Y-61210000D01*
X146510000Y-61138571D01*
X146295714Y-61138571D01*
X146152857Y-61067142D01*
X146081428Y-60924285D01*
X146081428Y-60852857D01*
X146152857Y-60710000D01*
X146295714Y-60638571D01*
X146510000Y-60638571D01*
X146652857Y-60710000D01*
D12*
X159960000Y-62060000D02*
X170240000Y-62060000D01*
X170240000Y-62060000D02*
X170240000Y-59400000D01*
X170240000Y-59400000D02*
X159960000Y-59400000D01*
X159960000Y-59400000D02*
X159960000Y-62060000D01*
X160910000Y-59400000D02*
X160910000Y-53400000D01*
X160910000Y-53400000D02*
X161670000Y-53400000D01*
X161670000Y-53400000D02*
X161670000Y-59400000D01*
X160970000Y-59400000D02*
X160970000Y-53400000D01*
X161090000Y-59400000D02*
X161090000Y-53400000D01*
X161210000Y-59400000D02*
X161210000Y-53400000D01*
X161330000Y-59400000D02*
X161330000Y-53400000D01*
X161450000Y-59400000D02*
X161450000Y-53400000D01*
X161570000Y-59400000D02*
X161570000Y-53400000D01*
X160910000Y-62390000D02*
X160910000Y-62060000D01*
X161670000Y-62390000D02*
X161670000Y-62060000D01*
X162560000Y-62060000D02*
X162560000Y-59400000D01*
X163450000Y-59400000D02*
X163450000Y-53400000D01*
X163450000Y-53400000D02*
X164210000Y-53400000D01*
X164210000Y-53400000D02*
X164210000Y-59400000D01*
X163450000Y-62457071D02*
X163450000Y-62060000D01*
X164210000Y-62457071D02*
X164210000Y-62060000D01*
X165100000Y-62060000D02*
X165100000Y-59400000D01*
X165990000Y-59400000D02*
X165990000Y-53400000D01*
X165990000Y-53400000D02*
X166750000Y-53400000D01*
X166750000Y-53400000D02*
X166750000Y-59400000D01*
X165990000Y-62457071D02*
X165990000Y-62060000D01*
X166750000Y-62457071D02*
X166750000Y-62060000D01*
X167640000Y-62060000D02*
X167640000Y-59400000D01*
X168530000Y-59400000D02*
X168530000Y-53400000D01*
X168530000Y-53400000D02*
X169290000Y-53400000D01*
X169290000Y-53400000D02*
X169290000Y-59400000D01*
X168530000Y-62457071D02*
X168530000Y-62060000D01*
X169290000Y-62457071D02*
X169290000Y-62060000D01*
X161290000Y-64770000D02*
X160020000Y-64770000D01*
X160020000Y-64770000D02*
X160020000Y-63500000D01*
X126940000Y-62060000D02*
X137220000Y-62060000D01*
X137220000Y-62060000D02*
X137220000Y-59400000D01*
X137220000Y-59400000D02*
X126940000Y-59400000D01*
X126940000Y-59400000D02*
X126940000Y-62060000D01*
X127890000Y-59400000D02*
X127890000Y-53400000D01*
X127890000Y-53400000D02*
X128650000Y-53400000D01*
X128650000Y-53400000D02*
X128650000Y-59400000D01*
X127950000Y-59400000D02*
X127950000Y-53400000D01*
X128070000Y-59400000D02*
X128070000Y-53400000D01*
X128190000Y-59400000D02*
X128190000Y-53400000D01*
X128310000Y-59400000D02*
X128310000Y-53400000D01*
X128430000Y-59400000D02*
X128430000Y-53400000D01*
X128550000Y-59400000D02*
X128550000Y-53400000D01*
X127890000Y-62390000D02*
X127890000Y-62060000D01*
X128650000Y-62390000D02*
X128650000Y-62060000D01*
X129540000Y-62060000D02*
X129540000Y-59400000D01*
X130430000Y-59400000D02*
X130430000Y-53400000D01*
X130430000Y-53400000D02*
X131190000Y-53400000D01*
X131190000Y-53400000D02*
X131190000Y-59400000D01*
X130430000Y-62457071D02*
X130430000Y-62060000D01*
X131190000Y-62457071D02*
X131190000Y-62060000D01*
X132080000Y-62060000D02*
X132080000Y-59400000D01*
X132970000Y-59400000D02*
X132970000Y-53400000D01*
X132970000Y-53400000D02*
X133730000Y-53400000D01*
X133730000Y-53400000D02*
X133730000Y-59400000D01*
X132970000Y-62457071D02*
X132970000Y-62060000D01*
X133730000Y-62457071D02*
X133730000Y-62060000D01*
X134620000Y-62060000D02*
X134620000Y-59400000D01*
X135510000Y-59400000D02*
X135510000Y-53400000D01*
X135510000Y-53400000D02*
X136270000Y-53400000D01*
X136270000Y-53400000D02*
X136270000Y-59400000D01*
X135510000Y-62457071D02*
X135510000Y-62060000D01*
X136270000Y-62457071D02*
X136270000Y-62060000D01*
X128270000Y-64770000D02*
X127000000Y-64770000D01*
X127000000Y-64770000D02*
X127000000Y-63500000D01*
X175390000Y-81280000D02*
X154810000Y-81280000D01*
X172720000Y-71120000D02*
X154810000Y-71120000D01*
X175390000Y-69850000D02*
X175390000Y-68450000D01*
X175390000Y-68450000D02*
X173990000Y-68450000D01*
X175390000Y-71120000D02*
X172720000Y-71120000D01*
X172720000Y-71120000D02*
X172720000Y-68450000D01*
X172720000Y-68450000D02*
X154810000Y-68450000D01*
X154810000Y-68450000D02*
X154810000Y-83950000D01*
X154810000Y-83950000D02*
X175390000Y-83950000D01*
X175390000Y-83950000D02*
X175390000Y-71120000D01*
X142370000Y-81280000D02*
X121790000Y-81280000D01*
X139700000Y-71120000D02*
X121790000Y-71120000D01*
X142370000Y-69850000D02*
X142370000Y-68450000D01*
X142370000Y-68450000D02*
X140970000Y-68450000D01*
X142370000Y-71120000D02*
X139700000Y-71120000D01*
X139700000Y-71120000D02*
X139700000Y-68450000D01*
X139700000Y-68450000D02*
X121790000Y-68450000D01*
X121790000Y-68450000D02*
X121790000Y-83950000D01*
X121790000Y-83950000D02*
X142370000Y-83950000D01*
X142370000Y-83950000D02*
X142370000Y-71120000D01*
X109220000Y-65610001D02*
X58420000Y-65610000D01*
X58420000Y-65610000D02*
X58420000Y-86789999D01*
X58420000Y-86789999D02*
X109250000Y-86790000D01*
X109250000Y-86790000D02*
X109250000Y-81423333D01*
X109250000Y-81423333D02*
X108890000Y-81423333D01*
X108890000Y-81423333D02*
X108890000Y-70976667D01*
X108890000Y-70976667D02*
X109220000Y-70976667D01*
X109220000Y-70976667D02*
X109220000Y-65610001D01*
X199150000Y-66730000D02*
X197410000Y-66730000D01*
X199150000Y-64990000D02*
X199150000Y-66730000D01*
X189710000Y-66490000D02*
X189710000Y-64490000D01*
X192510000Y-66490000D02*
X189710000Y-66490000D01*
X198910000Y-66490000D02*
X196110000Y-66490000D01*
X198910000Y-51890000D02*
X198910000Y-66490000D01*
X189710000Y-51890000D02*
X198910000Y-51890000D01*
X189710000Y-60890000D02*
X189710000Y-51890000D01*
D13*
X173172380Y-65579523D02*
X172172380Y-65579523D01*
X172886666Y-65246190D01*
X172172380Y-64912857D01*
X173172380Y-64912857D01*
X172267619Y-64484285D02*
X172220000Y-64436666D01*
X172172380Y-64341428D01*
X172172380Y-64103333D01*
X172220000Y-64008095D01*
X172267619Y-63960476D01*
X172362857Y-63912857D01*
X172458095Y-63912857D01*
X172600952Y-63960476D01*
X173172380Y-64531904D01*
X173172380Y-63912857D01*
X140152380Y-65579523D02*
X139152380Y-65579523D01*
X139866666Y-65246190D01*
X139152380Y-64912857D01*
X140152380Y-64912857D01*
X140152380Y-63912857D02*
X140152380Y-64484285D01*
X140152380Y-64198571D02*
X139152380Y-64198571D01*
X139295238Y-64293809D01*
X139390476Y-64389047D01*
X139438095Y-64484285D01*
X176696666Y-76914285D02*
X176696666Y-76438095D01*
X176982380Y-77009523D02*
X175982380Y-76676190D01*
X176982380Y-76342857D01*
X176077619Y-76057142D02*
X176030000Y-76009523D01*
X175982380Y-75914285D01*
X175982380Y-75676190D01*
X176030000Y-75580952D01*
X176077619Y-75533333D01*
X176172857Y-75485714D01*
X176268095Y-75485714D01*
X176410952Y-75533333D01*
X176982380Y-76104761D01*
X176982380Y-75485714D01*
X143676666Y-76914285D02*
X143676666Y-76438095D01*
X143962380Y-77009523D02*
X142962380Y-76676190D01*
X143962380Y-76342857D01*
X143962380Y-75485714D02*
X143962380Y-76057142D01*
X143962380Y-75771428D02*
X142962380Y-75771428D01*
X143105238Y-75866666D01*
X143200476Y-75961904D01*
X143248095Y-76057142D01*
X109702380Y-76961904D02*
X110511904Y-76961904D01*
X110607142Y-76914285D01*
X110654761Y-76866666D01*
X110702380Y-76771428D01*
X110702380Y-76580952D01*
X110654761Y-76485714D01*
X110607142Y-76438095D01*
X110511904Y-76390476D01*
X109702380Y-76390476D01*
X110702380Y-75390476D02*
X110702380Y-75961904D01*
X110702380Y-75676190D02*
X109702380Y-75676190D01*
X109845238Y-75771428D01*
X109940476Y-75866666D01*
X109988095Y-75961904D01*
D10*
X71296190Y-76057142D02*
X71962857Y-76057142D01*
X72248571Y-77104761D02*
X71296190Y-77104761D01*
X71296190Y-75104761D01*
X72248571Y-75104761D01*
X73010476Y-77009523D02*
X73296190Y-77104761D01*
X73772380Y-77104761D01*
X73962857Y-77009523D01*
X74058095Y-76914285D01*
X74153333Y-76723809D01*
X74153333Y-76533333D01*
X74058095Y-76342857D01*
X73962857Y-76247619D01*
X73772380Y-76152380D01*
X73391428Y-76057142D01*
X73200952Y-75961904D01*
X73105714Y-75866666D01*
X73010476Y-75676190D01*
X73010476Y-75485714D01*
X73105714Y-75295238D01*
X73200952Y-75200000D01*
X73391428Y-75104761D01*
X73867619Y-75104761D01*
X74153333Y-75200000D01*
X75010476Y-77104761D02*
X75010476Y-75104761D01*
X75772380Y-75104761D01*
X75962857Y-75200000D01*
X76058095Y-75295238D01*
X76153333Y-75485714D01*
X76153333Y-75771428D01*
X76058095Y-75961904D01*
X75962857Y-76057142D01*
X75772380Y-76152380D01*
X75010476Y-76152380D01*
X76820000Y-75104761D02*
X78058095Y-75104761D01*
X77391428Y-75866666D01*
X77677142Y-75866666D01*
X77867619Y-75961904D01*
X77962857Y-76057142D01*
X78058095Y-76247619D01*
X78058095Y-76723809D01*
X77962857Y-76914285D01*
X77867619Y-77009523D01*
X77677142Y-77104761D01*
X77105714Y-77104761D01*
X76915238Y-77009523D01*
X76820000Y-76914285D01*
X78820000Y-75295238D02*
X78915238Y-75200000D01*
X79105714Y-75104761D01*
X79581904Y-75104761D01*
X79772380Y-75200000D01*
X79867619Y-75295238D01*
X79962857Y-75485714D01*
X79962857Y-75676190D01*
X79867619Y-75961904D01*
X78724761Y-77104761D01*
X79962857Y-77104761D01*
X80820000Y-76342857D02*
X82343809Y-76342857D01*
X83296190Y-77104761D02*
X83296190Y-75104761D01*
X84058095Y-75104761D01*
X84248571Y-75200000D01*
X84343809Y-75295238D01*
X84439047Y-75485714D01*
X84439047Y-75771428D01*
X84343809Y-75961904D01*
X84248571Y-76057142D01*
X84058095Y-76152380D01*
X83296190Y-76152380D01*
X85296190Y-77104761D02*
X85296190Y-75104761D01*
X87391428Y-76914285D02*
X87296190Y-77009523D01*
X87010476Y-77104761D01*
X86820000Y-77104761D01*
X86534285Y-77009523D01*
X86343809Y-76819047D01*
X86248571Y-76628571D01*
X86153333Y-76247619D01*
X86153333Y-75961904D01*
X86248571Y-75580952D01*
X86343809Y-75390476D01*
X86534285Y-75200000D01*
X86820000Y-75104761D01*
X87010476Y-75104761D01*
X87296190Y-75200000D01*
X87391428Y-75295238D01*
X88629523Y-75104761D02*
X89010476Y-75104761D01*
X89200952Y-75200000D01*
X89391428Y-75390476D01*
X89486666Y-75771428D01*
X89486666Y-76438095D01*
X89391428Y-76819047D01*
X89200952Y-77009523D01*
X89010476Y-77104761D01*
X88629523Y-77104761D01*
X88439047Y-77009523D01*
X88248571Y-76819047D01*
X88153333Y-76438095D01*
X88153333Y-75771428D01*
X88248571Y-75390476D01*
X88439047Y-75200000D01*
X88629523Y-75104761D01*
X90343809Y-76342857D02*
X91867619Y-76342857D01*
X92820000Y-77104761D02*
X92820000Y-75104761D01*
X93962857Y-77104761D02*
X93105714Y-75961904D01*
X93962857Y-75104761D02*
X92820000Y-76247619D01*
X94820000Y-77104761D02*
X94820000Y-75104761D01*
X95486666Y-75104761D02*
X96629523Y-75104761D01*
X96058095Y-77104761D02*
X96058095Y-75104761D01*
D13*
X107402380Y-72566547D02*
X107402380Y-71947500D01*
X107783333Y-72280833D01*
X107783333Y-72137976D01*
X107830952Y-72042738D01*
X107878571Y-71995119D01*
X107973809Y-71947500D01*
X108211904Y-71947500D01*
X108307142Y-71995119D01*
X108354761Y-72042738D01*
X108402380Y-72137976D01*
X108402380Y-72423690D01*
X108354761Y-72518928D01*
X108307142Y-72566547D01*
X107402380Y-71661785D02*
X108402380Y-71328452D01*
X107402380Y-70995119D01*
X107402380Y-70757023D02*
X107402380Y-70137976D01*
X107783333Y-70471309D01*
X107783333Y-70328452D01*
X107830952Y-70233214D01*
X107878571Y-70185595D01*
X107973809Y-70137976D01*
X108211904Y-70137976D01*
X108307142Y-70185595D01*
X108354761Y-70233214D01*
X108402380Y-70328452D01*
X108402380Y-70614166D01*
X108354761Y-70709404D01*
X108307142Y-70757023D01*
X104910000Y-72233214D02*
X104862380Y-72328452D01*
X104862380Y-72471309D01*
X104910000Y-72614166D01*
X105005238Y-72709404D01*
X105100476Y-72757023D01*
X105290952Y-72804642D01*
X105433809Y-72804642D01*
X105624285Y-72757023D01*
X105719523Y-72709404D01*
X105814761Y-72614166D01*
X105862380Y-72471309D01*
X105862380Y-72376071D01*
X105814761Y-72233214D01*
X105767142Y-72185595D01*
X105433809Y-72185595D01*
X105433809Y-72376071D01*
X105862380Y-71757023D02*
X104862380Y-71757023D01*
X105862380Y-71185595D01*
X104862380Y-71185595D01*
X105862380Y-70709404D02*
X104862380Y-70709404D01*
X104862380Y-70471309D01*
X104910000Y-70328452D01*
X105005238Y-70233214D01*
X105100476Y-70185595D01*
X105290952Y-70137976D01*
X105433809Y-70137976D01*
X105624285Y-70185595D01*
X105719523Y-70233214D01*
X105814761Y-70328452D01*
X105862380Y-70471309D01*
X105862380Y-70709404D01*
X102798571Y-71661785D02*
X102798571Y-71328452D01*
X103322380Y-71185595D02*
X103322380Y-71661785D01*
X102322380Y-71661785D01*
X102322380Y-71185595D01*
X103322380Y-70757023D02*
X102322380Y-70757023D01*
X103322380Y-70185595D01*
X102322380Y-70185595D01*
X99782380Y-71709404D02*
X99782380Y-71090357D01*
X100163333Y-71423690D01*
X100163333Y-71280833D01*
X100210952Y-71185595D01*
X100258571Y-71137976D01*
X100353809Y-71090357D01*
X100591904Y-71090357D01*
X100687142Y-71137976D01*
X100734761Y-71185595D01*
X100782380Y-71280833D01*
X100782380Y-71566547D01*
X100734761Y-71661785D01*
X100687142Y-71709404D01*
X99782380Y-70757023D02*
X99782380Y-70090357D01*
X100782380Y-70518928D01*
X97242380Y-71709404D02*
X97242380Y-71090357D01*
X97623333Y-71423690D01*
X97623333Y-71280833D01*
X97670952Y-71185595D01*
X97718571Y-71137976D01*
X97813809Y-71090357D01*
X98051904Y-71090357D01*
X98147142Y-71137976D01*
X98194761Y-71185595D01*
X98242380Y-71280833D01*
X98242380Y-71566547D01*
X98194761Y-71661785D01*
X98147142Y-71709404D01*
X97670952Y-70518928D02*
X97623333Y-70614166D01*
X97575714Y-70661785D01*
X97480476Y-70709404D01*
X97432857Y-70709404D01*
X97337619Y-70661785D01*
X97290000Y-70614166D01*
X97242380Y-70518928D01*
X97242380Y-70328452D01*
X97290000Y-70233214D01*
X97337619Y-70185595D01*
X97432857Y-70137976D01*
X97480476Y-70137976D01*
X97575714Y-70185595D01*
X97623333Y-70233214D01*
X97670952Y-70328452D01*
X97670952Y-70518928D01*
X97718571Y-70614166D01*
X97766190Y-70661785D01*
X97861428Y-70709404D01*
X98051904Y-70709404D01*
X98147142Y-70661785D01*
X98194761Y-70614166D01*
X98242380Y-70518928D01*
X98242380Y-70328452D01*
X98194761Y-70233214D01*
X98147142Y-70185595D01*
X98051904Y-70137976D01*
X97861428Y-70137976D01*
X97766190Y-70185595D01*
X97718571Y-70233214D01*
X97670952Y-70328452D01*
X94702380Y-71709404D02*
X94702380Y-71090357D01*
X95083333Y-71423690D01*
X95083333Y-71280833D01*
X95130952Y-71185595D01*
X95178571Y-71137976D01*
X95273809Y-71090357D01*
X95511904Y-71090357D01*
X95607142Y-71137976D01*
X95654761Y-71185595D01*
X95702380Y-71280833D01*
X95702380Y-71566547D01*
X95654761Y-71661785D01*
X95607142Y-71709404D01*
X95035714Y-70233214D02*
X95702380Y-70233214D01*
X94654761Y-70471309D02*
X95369047Y-70709404D01*
X95369047Y-70090357D01*
X92162380Y-71709404D02*
X92162380Y-71090357D01*
X92543333Y-71423690D01*
X92543333Y-71280833D01*
X92590952Y-71185595D01*
X92638571Y-71137976D01*
X92733809Y-71090357D01*
X92971904Y-71090357D01*
X93067142Y-71137976D01*
X93114761Y-71185595D01*
X93162380Y-71280833D01*
X93162380Y-71566547D01*
X93114761Y-71661785D01*
X93067142Y-71709404D01*
X92162380Y-70185595D02*
X92162380Y-70661785D01*
X92638571Y-70709404D01*
X92590952Y-70661785D01*
X92543333Y-70566547D01*
X92543333Y-70328452D01*
X92590952Y-70233214D01*
X92638571Y-70185595D01*
X92733809Y-70137976D01*
X92971904Y-70137976D01*
X93067142Y-70185595D01*
X93114761Y-70233214D01*
X93162380Y-70328452D01*
X93162380Y-70566547D01*
X93114761Y-70661785D01*
X93067142Y-70709404D01*
X89622380Y-72518928D02*
X89622380Y-71947500D01*
X90622380Y-72233214D02*
X89622380Y-72233214D01*
X89622380Y-71709404D02*
X90622380Y-71042738D01*
X89622380Y-71042738D02*
X90622380Y-71709404D01*
X89622380Y-70471309D02*
X89622380Y-70376071D01*
X89670000Y-70280833D01*
X89717619Y-70233214D01*
X89812857Y-70185595D01*
X90003333Y-70137976D01*
X90241428Y-70137976D01*
X90431904Y-70185595D01*
X90527142Y-70233214D01*
X90574761Y-70280833D01*
X90622380Y-70376071D01*
X90622380Y-70471309D01*
X90574761Y-70566547D01*
X90527142Y-70614166D01*
X90431904Y-70661785D01*
X90241428Y-70709404D01*
X90003333Y-70709404D01*
X89812857Y-70661785D01*
X89717619Y-70614166D01*
X89670000Y-70566547D01*
X89622380Y-70471309D01*
X85542380Y-70614166D02*
X85542380Y-70423690D01*
X85494761Y-70328452D01*
X85447142Y-70280833D01*
X85304285Y-70185595D01*
X85113809Y-70137976D01*
X84732857Y-70137976D01*
X84637619Y-70185595D01*
X84590000Y-70233214D01*
X84542380Y-70328452D01*
X84542380Y-70518928D01*
X84590000Y-70614166D01*
X84637619Y-70661785D01*
X84732857Y-70709404D01*
X84970952Y-70709404D01*
X85066190Y-70661785D01*
X85113809Y-70614166D01*
X85161428Y-70518928D01*
X85161428Y-70328452D01*
X85113809Y-70233214D01*
X85066190Y-70185595D01*
X84970952Y-70137976D01*
X83002380Y-71090357D02*
X83002380Y-71661785D01*
X83002380Y-71376071D02*
X82002380Y-71376071D01*
X82145238Y-71471309D01*
X82240476Y-71566547D01*
X82288095Y-71661785D01*
X82002380Y-70471309D02*
X82002380Y-70376071D01*
X82050000Y-70280833D01*
X82097619Y-70233214D01*
X82192857Y-70185595D01*
X82383333Y-70137976D01*
X82621428Y-70137976D01*
X82811904Y-70185595D01*
X82907142Y-70233214D01*
X82954761Y-70280833D01*
X83002380Y-70376071D01*
X83002380Y-70471309D01*
X82954761Y-70566547D01*
X82907142Y-70614166D01*
X82811904Y-70661785D01*
X82621428Y-70709404D01*
X82383333Y-70709404D01*
X82192857Y-70661785D01*
X82097619Y-70614166D01*
X82050000Y-70566547D01*
X82002380Y-70471309D01*
X79462380Y-70185595D02*
X79462380Y-70661785D01*
X79938571Y-70709404D01*
X79890952Y-70661785D01*
X79843333Y-70566547D01*
X79843333Y-70328452D01*
X79890952Y-70233214D01*
X79938571Y-70185595D01*
X80033809Y-70137976D01*
X80271904Y-70137976D01*
X80367142Y-70185595D01*
X80414761Y-70233214D01*
X80462380Y-70328452D01*
X80462380Y-70566547D01*
X80414761Y-70661785D01*
X80367142Y-70709404D01*
X77922380Y-71090357D02*
X77922380Y-71661785D01*
X77922380Y-71376071D02*
X76922380Y-71376071D01*
X77065238Y-71471309D01*
X77160476Y-71566547D01*
X77208095Y-71661785D01*
X77350952Y-70518928D02*
X77303333Y-70614166D01*
X77255714Y-70661785D01*
X77160476Y-70709404D01*
X77112857Y-70709404D01*
X77017619Y-70661785D01*
X76970000Y-70614166D01*
X76922380Y-70518928D01*
X76922380Y-70328452D01*
X76970000Y-70233214D01*
X77017619Y-70185595D01*
X77112857Y-70137976D01*
X77160476Y-70137976D01*
X77255714Y-70185595D01*
X77303333Y-70233214D01*
X77350952Y-70328452D01*
X77350952Y-70518928D01*
X77398571Y-70614166D01*
X77446190Y-70661785D01*
X77541428Y-70709404D01*
X77731904Y-70709404D01*
X77827142Y-70661785D01*
X77874761Y-70614166D01*
X77922380Y-70518928D01*
X77922380Y-70328452D01*
X77874761Y-70233214D01*
X77827142Y-70185595D01*
X77731904Y-70137976D01*
X77541428Y-70137976D01*
X77446190Y-70185595D01*
X77398571Y-70233214D01*
X77350952Y-70328452D01*
X74477619Y-71661785D02*
X74430000Y-71614166D01*
X74382380Y-71518928D01*
X74382380Y-71280833D01*
X74430000Y-71185595D01*
X74477619Y-71137976D01*
X74572857Y-71090357D01*
X74668095Y-71090357D01*
X74810952Y-71137976D01*
X75382380Y-71709404D01*
X75382380Y-71090357D01*
X74382380Y-70757023D02*
X74382380Y-70137976D01*
X74763333Y-70471309D01*
X74763333Y-70328452D01*
X74810952Y-70233214D01*
X74858571Y-70185595D01*
X74953809Y-70137976D01*
X75191904Y-70137976D01*
X75287142Y-70185595D01*
X75334761Y-70233214D01*
X75382380Y-70328452D01*
X75382380Y-70614166D01*
X75334761Y-70709404D01*
X75287142Y-70757023D01*
X72842380Y-71090357D02*
X72842380Y-71661785D01*
X72842380Y-71376071D02*
X71842380Y-71376071D01*
X71985238Y-71471309D01*
X72080476Y-71566547D01*
X72128095Y-71661785D01*
X72842380Y-70614166D02*
X72842380Y-70423690D01*
X72794761Y-70328452D01*
X72747142Y-70280833D01*
X72604285Y-70185595D01*
X72413809Y-70137976D01*
X72032857Y-70137976D01*
X71937619Y-70185595D01*
X71890000Y-70233214D01*
X71842380Y-70328452D01*
X71842380Y-70518928D01*
X71890000Y-70614166D01*
X71937619Y-70661785D01*
X72032857Y-70709404D01*
X72270952Y-70709404D01*
X72366190Y-70661785D01*
X72413809Y-70614166D01*
X72461428Y-70518928D01*
X72461428Y-70328452D01*
X72413809Y-70233214D01*
X72366190Y-70185595D01*
X72270952Y-70137976D01*
X69397619Y-71661785D02*
X69350000Y-71614166D01*
X69302380Y-71518928D01*
X69302380Y-71280833D01*
X69350000Y-71185595D01*
X69397619Y-71137976D01*
X69492857Y-71090357D01*
X69588095Y-71090357D01*
X69730952Y-71137976D01*
X70302380Y-71709404D01*
X70302380Y-71090357D01*
X69397619Y-70709404D02*
X69350000Y-70661785D01*
X69302380Y-70566547D01*
X69302380Y-70328452D01*
X69350000Y-70233214D01*
X69397619Y-70185595D01*
X69492857Y-70137976D01*
X69588095Y-70137976D01*
X69730952Y-70185595D01*
X70302380Y-70757023D01*
X70302380Y-70137976D01*
X66857619Y-71661785D02*
X66810000Y-71614166D01*
X66762380Y-71518928D01*
X66762380Y-71280833D01*
X66810000Y-71185595D01*
X66857619Y-71137976D01*
X66952857Y-71090357D01*
X67048095Y-71090357D01*
X67190952Y-71137976D01*
X67762380Y-71709404D01*
X67762380Y-71090357D01*
X67762380Y-70137976D02*
X67762380Y-70709404D01*
X67762380Y-70423690D02*
X66762380Y-70423690D01*
X66905238Y-70518928D01*
X67000476Y-70614166D01*
X67048095Y-70709404D01*
X88082380Y-72042738D02*
X87606190Y-72376071D01*
X88082380Y-72614166D02*
X87082380Y-72614166D01*
X87082380Y-72233214D01*
X87130000Y-72137976D01*
X87177619Y-72090357D01*
X87272857Y-72042738D01*
X87415714Y-72042738D01*
X87510952Y-72090357D01*
X87558571Y-72137976D01*
X87606190Y-72233214D01*
X87606190Y-72614166D01*
X87082380Y-71709404D02*
X88082380Y-71042738D01*
X87082380Y-71042738D02*
X88082380Y-71709404D01*
X87082380Y-70471309D02*
X87082380Y-70376071D01*
X87130000Y-70280833D01*
X87177619Y-70233214D01*
X87272857Y-70185595D01*
X87463333Y-70137976D01*
X87701428Y-70137976D01*
X87891904Y-70185595D01*
X87987142Y-70233214D01*
X88034761Y-70280833D01*
X88082380Y-70376071D01*
X88082380Y-70471309D01*
X88034761Y-70566547D01*
X87987142Y-70614166D01*
X87891904Y-70661785D01*
X87701428Y-70709404D01*
X87463333Y-70709404D01*
X87272857Y-70661785D01*
X87177619Y-70614166D01*
X87130000Y-70566547D01*
X87082380Y-70471309D01*
X107402380Y-81738214D02*
X107402380Y-82214404D01*
X107878571Y-82262023D01*
X107830952Y-82214404D01*
X107783333Y-82119166D01*
X107783333Y-81881071D01*
X107830952Y-81785833D01*
X107878571Y-81738214D01*
X107973809Y-81690595D01*
X108211904Y-81690595D01*
X108307142Y-81738214D01*
X108354761Y-81785833D01*
X108402380Y-81881071D01*
X108402380Y-82119166D01*
X108354761Y-82214404D01*
X108307142Y-82262023D01*
X107402380Y-81404880D02*
X108402380Y-81071547D01*
X107402380Y-80738214D01*
X104910000Y-81690595D02*
X104862380Y-81785833D01*
X104862380Y-81928690D01*
X104910000Y-82071547D01*
X105005238Y-82166785D01*
X105100476Y-82214404D01*
X105290952Y-82262023D01*
X105433809Y-82262023D01*
X105624285Y-82214404D01*
X105719523Y-82166785D01*
X105814761Y-82071547D01*
X105862380Y-81928690D01*
X105862380Y-81833452D01*
X105814761Y-81690595D01*
X105767142Y-81642976D01*
X105433809Y-81642976D01*
X105433809Y-81833452D01*
X105862380Y-81214404D02*
X104862380Y-81214404D01*
X105862380Y-80642976D01*
X104862380Y-80642976D01*
X105862380Y-80166785D02*
X104862380Y-80166785D01*
X104862380Y-79928690D01*
X104910000Y-79785833D01*
X105005238Y-79690595D01*
X105100476Y-79642976D01*
X105290952Y-79595357D01*
X105433809Y-79595357D01*
X105624285Y-79642976D01*
X105719523Y-79690595D01*
X105814761Y-79785833D01*
X105862380Y-79928690D01*
X105862380Y-80166785D01*
X102322380Y-82309642D02*
X102322380Y-81690595D01*
X102703333Y-82023928D01*
X102703333Y-81881071D01*
X102750952Y-81785833D01*
X102798571Y-81738214D01*
X102893809Y-81690595D01*
X103131904Y-81690595D01*
X103227142Y-81738214D01*
X103274761Y-81785833D01*
X103322380Y-81881071D01*
X103322380Y-82166785D01*
X103274761Y-82262023D01*
X103227142Y-82309642D01*
X102322380Y-81404880D02*
X103322380Y-81071547D01*
X102322380Y-80738214D01*
X102322380Y-80500119D02*
X102322380Y-79881071D01*
X102703333Y-80214404D01*
X102703333Y-80071547D01*
X102750952Y-79976309D01*
X102798571Y-79928690D01*
X102893809Y-79881071D01*
X103131904Y-79881071D01*
X103227142Y-79928690D01*
X103274761Y-79976309D01*
X103322380Y-80071547D01*
X103322380Y-80357261D01*
X103274761Y-80452500D01*
X103227142Y-80500119D01*
X99782380Y-82023928D02*
X99782380Y-81928690D01*
X99830000Y-81833452D01*
X99877619Y-81785833D01*
X99972857Y-81738214D01*
X100163333Y-81690595D01*
X100401428Y-81690595D01*
X100591904Y-81738214D01*
X100687142Y-81785833D01*
X100734761Y-81833452D01*
X100782380Y-81928690D01*
X100782380Y-82023928D01*
X100734761Y-82119166D01*
X100687142Y-82166785D01*
X100591904Y-82214404D01*
X100401428Y-82262023D01*
X100163333Y-82262023D01*
X99972857Y-82214404D01*
X99877619Y-82166785D01*
X99830000Y-82119166D01*
X99782380Y-82023928D01*
X97575714Y-81785833D02*
X98242380Y-81785833D01*
X97194761Y-82023928D02*
X97909047Y-82262023D01*
X97909047Y-81642976D01*
X94797619Y-82262023D02*
X94750000Y-82214404D01*
X94702380Y-82119166D01*
X94702380Y-81881071D01*
X94750000Y-81785833D01*
X94797619Y-81738214D01*
X94892857Y-81690595D01*
X94988095Y-81690595D01*
X95130952Y-81738214D01*
X95702380Y-82309642D01*
X95702380Y-81690595D01*
X93162380Y-81690595D02*
X93162380Y-82262023D01*
X93162380Y-81976309D02*
X92162380Y-81976309D01*
X92305238Y-82071547D01*
X92400476Y-82166785D01*
X92448095Y-82262023D01*
X92162380Y-80785833D02*
X92162380Y-81262023D01*
X92638571Y-81309642D01*
X92590952Y-81262023D01*
X92543333Y-81166785D01*
X92543333Y-80928690D01*
X92590952Y-80833452D01*
X92638571Y-80785833D01*
X92733809Y-80738214D01*
X92971904Y-80738214D01*
X93067142Y-80785833D01*
X93114761Y-80833452D01*
X93162380Y-80928690D01*
X93162380Y-81166785D01*
X93114761Y-81262023D01*
X93067142Y-81309642D01*
X90622380Y-81690595D02*
X90622380Y-82262023D01*
X90622380Y-81976309D02*
X89622380Y-81976309D01*
X89765238Y-82071547D01*
X89860476Y-82166785D01*
X89908095Y-82262023D01*
X89622380Y-81357261D02*
X89622380Y-80738214D01*
X90003333Y-81071547D01*
X90003333Y-80928690D01*
X90050952Y-80833452D01*
X90098571Y-80785833D01*
X90193809Y-80738214D01*
X90431904Y-80738214D01*
X90527142Y-80785833D01*
X90574761Y-80833452D01*
X90622380Y-80928690D01*
X90622380Y-81214404D01*
X90574761Y-81309642D01*
X90527142Y-81357261D01*
X85542380Y-81690595D02*
X85542380Y-82262023D01*
X85542380Y-81976309D02*
X84542380Y-81976309D01*
X84685238Y-82071547D01*
X84780476Y-82166785D01*
X84828095Y-82262023D01*
X84875714Y-80833452D02*
X85542380Y-80833452D01*
X84494761Y-81071547D02*
X85209047Y-81309642D01*
X85209047Y-80690595D01*
X74477619Y-82262023D02*
X74430000Y-82214404D01*
X74382380Y-82119166D01*
X74382380Y-81881071D01*
X74430000Y-81785833D01*
X74477619Y-81738214D01*
X74572857Y-81690595D01*
X74668095Y-81690595D01*
X74810952Y-81738214D01*
X75382380Y-82309642D01*
X75382380Y-81690595D01*
X74382380Y-80833452D02*
X74382380Y-81023928D01*
X74430000Y-81119166D01*
X74477619Y-81166785D01*
X74620476Y-81262023D01*
X74810952Y-81309642D01*
X75191904Y-81309642D01*
X75287142Y-81262023D01*
X75334761Y-81214404D01*
X75382380Y-81119166D01*
X75382380Y-80928690D01*
X75334761Y-80833452D01*
X75287142Y-80785833D01*
X75191904Y-80738214D01*
X74953809Y-80738214D01*
X74858571Y-80785833D01*
X74810952Y-80833452D01*
X74763333Y-80928690D01*
X74763333Y-81119166D01*
X74810952Y-81214404D01*
X74858571Y-81262023D01*
X74953809Y-81309642D01*
X71937619Y-82262023D02*
X71890000Y-82214404D01*
X71842380Y-82119166D01*
X71842380Y-81881071D01*
X71890000Y-81785833D01*
X71937619Y-81738214D01*
X72032857Y-81690595D01*
X72128095Y-81690595D01*
X72270952Y-81738214D01*
X72842380Y-82309642D01*
X72842380Y-81690595D01*
X71842380Y-80785833D02*
X71842380Y-81262023D01*
X72318571Y-81309642D01*
X72270952Y-81262023D01*
X72223333Y-81166785D01*
X72223333Y-80928690D01*
X72270952Y-80833452D01*
X72318571Y-80785833D01*
X72413809Y-80738214D01*
X72651904Y-80738214D01*
X72747142Y-80785833D01*
X72794761Y-80833452D01*
X72842380Y-80928690D01*
X72842380Y-81166785D01*
X72794761Y-81262023D01*
X72747142Y-81309642D01*
X70254761Y-82262023D02*
X70302380Y-82119166D01*
X70302380Y-81881071D01*
X70254761Y-81785833D01*
X70207142Y-81738214D01*
X70111904Y-81690595D01*
X70016666Y-81690595D01*
X69921428Y-81738214D01*
X69873809Y-81785833D01*
X69826190Y-81881071D01*
X69778571Y-82071547D01*
X69730952Y-82166785D01*
X69683333Y-82214404D01*
X69588095Y-82262023D01*
X69492857Y-82262023D01*
X69397619Y-82214404D01*
X69350000Y-82166785D01*
X69302380Y-82071547D01*
X69302380Y-81833452D01*
X69350000Y-81690595D01*
X69302380Y-81404880D02*
X70302380Y-81071547D01*
X69302380Y-80738214D01*
X70302380Y-80404880D02*
X69302380Y-80404880D01*
X70302380Y-79833452D01*
X69302380Y-79833452D01*
X79462380Y-82309642D02*
X79462380Y-81690595D01*
X79843333Y-82023928D01*
X79843333Y-81881071D01*
X79890952Y-81785833D01*
X79938571Y-81738214D01*
X80033809Y-81690595D01*
X80271904Y-81690595D01*
X80367142Y-81738214D01*
X80414761Y-81785833D01*
X80462380Y-81881071D01*
X80462380Y-82166785D01*
X80414761Y-82262023D01*
X80367142Y-82309642D01*
X79462380Y-81357261D02*
X79462380Y-80738214D01*
X79843333Y-81071547D01*
X79843333Y-80928690D01*
X79890952Y-80833452D01*
X79938571Y-80785833D01*
X80033809Y-80738214D01*
X80271904Y-80738214D01*
X80367142Y-80785833D01*
X80414761Y-80833452D01*
X80462380Y-80928690D01*
X80462380Y-81214404D01*
X80414761Y-81309642D01*
X80367142Y-81357261D01*
X88082380Y-81690595D02*
X88082380Y-82262023D01*
X88082380Y-81976309D02*
X87082380Y-81976309D01*
X87225238Y-82071547D01*
X87320476Y-82166785D01*
X87368095Y-82262023D01*
X87177619Y-81309642D02*
X87130000Y-81262023D01*
X87082380Y-81166785D01*
X87082380Y-80928690D01*
X87130000Y-80833452D01*
X87177619Y-80785833D01*
X87272857Y-80738214D01*
X87368095Y-80738214D01*
X87510952Y-80785833D01*
X88082380Y-81357261D01*
X88082380Y-80738214D01*
X82097619Y-82262023D02*
X82050000Y-82214404D01*
X82002380Y-82119166D01*
X82002380Y-81881071D01*
X82050000Y-81785833D01*
X82097619Y-81738214D01*
X82192857Y-81690595D01*
X82288095Y-81690595D01*
X82430952Y-81738214D01*
X83002380Y-82309642D01*
X83002380Y-81690595D01*
X82002380Y-81357261D02*
X82002380Y-80690595D01*
X83002380Y-81119166D01*
X76922380Y-82309642D02*
X76922380Y-81690595D01*
X77303333Y-82023928D01*
X77303333Y-81881071D01*
X77350952Y-81785833D01*
X77398571Y-81738214D01*
X77493809Y-81690595D01*
X77731904Y-81690595D01*
X77827142Y-81738214D01*
X77874761Y-81785833D01*
X77922380Y-81881071D01*
X77922380Y-82166785D01*
X77874761Y-82262023D01*
X77827142Y-82309642D01*
X77017619Y-81309642D02*
X76970000Y-81262023D01*
X76922380Y-81166785D01*
X76922380Y-80928690D01*
X76970000Y-80833452D01*
X77017619Y-80785833D01*
X77112857Y-80738214D01*
X77208095Y-80738214D01*
X77350952Y-80785833D01*
X77922380Y-81357261D01*
X77922380Y-80738214D01*
X67714761Y-82262023D02*
X67762380Y-82119166D01*
X67762380Y-81881071D01*
X67714761Y-81785833D01*
X67667142Y-81738214D01*
X67571904Y-81690595D01*
X67476666Y-81690595D01*
X67381428Y-81738214D01*
X67333809Y-81785833D01*
X67286190Y-81881071D01*
X67238571Y-82071547D01*
X67190952Y-82166785D01*
X67143333Y-82214404D01*
X67048095Y-82262023D01*
X66952857Y-82262023D01*
X66857619Y-82214404D01*
X66810000Y-82166785D01*
X66762380Y-82071547D01*
X66762380Y-81833452D01*
X66810000Y-81690595D01*
X66762380Y-81404880D02*
X67762380Y-81071547D01*
X66762380Y-80738214D01*
X67762380Y-80404880D02*
X66762380Y-80404880D01*
X66762380Y-80023928D01*
X66810000Y-79928690D01*
X66857619Y-79881071D01*
X66952857Y-79833452D01*
X67095714Y-79833452D01*
X67190952Y-79881071D01*
X67238571Y-79928690D01*
X67286190Y-80023928D01*
X67286190Y-80404880D01*
X65127142Y-71947500D02*
X65174761Y-71995119D01*
X65222380Y-72137976D01*
X65222380Y-72233214D01*
X65174761Y-72376071D01*
X65079523Y-72471309D01*
X64984285Y-72518928D01*
X64793809Y-72566547D01*
X64650952Y-72566547D01*
X64460476Y-72518928D01*
X64365238Y-72471309D01*
X64270000Y-72376071D01*
X64222380Y-72233214D01*
X64222380Y-72137976D01*
X64270000Y-71995119D01*
X64317619Y-71947500D01*
X65222380Y-71042738D02*
X65222380Y-71518928D01*
X64222380Y-71518928D01*
X65222380Y-70709404D02*
X64222380Y-70709404D01*
X65222380Y-70137976D02*
X64650952Y-70566547D01*
X64222380Y-70137976D02*
X64793809Y-70709404D01*
X62682380Y-71661785D02*
X61682380Y-71661785D01*
X61682380Y-71423690D01*
X61730000Y-71280833D01*
X61825238Y-71185595D01*
X61920476Y-71137976D01*
X62110952Y-71090357D01*
X62253809Y-71090357D01*
X62444285Y-71137976D01*
X62539523Y-71185595D01*
X62634761Y-71280833D01*
X62682380Y-71423690D01*
X62682380Y-71661785D01*
X61682380Y-70757023D02*
X61682380Y-70137976D01*
X62063333Y-70471309D01*
X62063333Y-70328452D01*
X62110952Y-70233214D01*
X62158571Y-70185595D01*
X62253809Y-70137976D01*
X62491904Y-70137976D01*
X62587142Y-70185595D01*
X62634761Y-70233214D01*
X62682380Y-70328452D01*
X62682380Y-70614166D01*
X62634761Y-70709404D01*
X62587142Y-70757023D01*
X60142380Y-71661785D02*
X59142380Y-71661785D01*
X59142380Y-71423690D01*
X59190000Y-71280833D01*
X59285238Y-71185595D01*
X59380476Y-71137976D01*
X59570952Y-71090357D01*
X59713809Y-71090357D01*
X59904285Y-71137976D01*
X59999523Y-71185595D01*
X60094761Y-71280833D01*
X60142380Y-71423690D01*
X60142380Y-71661785D01*
X60142380Y-70137976D02*
X60142380Y-70709404D01*
X60142380Y-70423690D02*
X59142380Y-70423690D01*
X59285238Y-70518928D01*
X59380476Y-70614166D01*
X59428095Y-70709404D01*
X65222380Y-82214404D02*
X64222380Y-82214404D01*
X64222380Y-81976309D01*
X64270000Y-81833452D01*
X64365238Y-81738214D01*
X64460476Y-81690595D01*
X64650952Y-81642976D01*
X64793809Y-81642976D01*
X64984285Y-81690595D01*
X65079523Y-81738214D01*
X65174761Y-81833452D01*
X65222380Y-81976309D01*
X65222380Y-82214404D01*
X64317619Y-81262023D02*
X64270000Y-81214404D01*
X64222380Y-81119166D01*
X64222380Y-80881071D01*
X64270000Y-80785833D01*
X64317619Y-80738214D01*
X64412857Y-80690595D01*
X64508095Y-80690595D01*
X64650952Y-80738214D01*
X65222380Y-81309642D01*
X65222380Y-80690595D01*
X62682380Y-82214404D02*
X61682380Y-82214404D01*
X61682380Y-81976309D01*
X61730000Y-81833452D01*
X61825238Y-81738214D01*
X61920476Y-81690595D01*
X62110952Y-81642976D01*
X62253809Y-81642976D01*
X62444285Y-81690595D01*
X62539523Y-81738214D01*
X62634761Y-81833452D01*
X62682380Y-81976309D01*
X62682380Y-82214404D01*
X61682380Y-81023928D02*
X61682380Y-80928690D01*
X61730000Y-80833452D01*
X61777619Y-80785833D01*
X61872857Y-80738214D01*
X62063333Y-80690595D01*
X62301428Y-80690595D01*
X62491904Y-80738214D01*
X62587142Y-80785833D01*
X62634761Y-80833452D01*
X62682380Y-80928690D01*
X62682380Y-81023928D01*
X62634761Y-81119166D01*
X62587142Y-81166785D01*
X62491904Y-81214404D01*
X62301428Y-81262023D01*
X62063333Y-81262023D01*
X61872857Y-81214404D01*
X61777619Y-81166785D01*
X61730000Y-81119166D01*
X61682380Y-81023928D01*
X60047142Y-81642976D02*
X60094761Y-81690595D01*
X60142380Y-81833452D01*
X60142380Y-81928690D01*
X60094761Y-82071547D01*
X59999523Y-82166785D01*
X59904285Y-82214404D01*
X59713809Y-82262023D01*
X59570952Y-82262023D01*
X59380476Y-82214404D01*
X59285238Y-82166785D01*
X59190000Y-82071547D01*
X59142380Y-81928690D01*
X59142380Y-81833452D01*
X59190000Y-81690595D01*
X59237619Y-81642976D01*
X60094761Y-81262023D02*
X60142380Y-81119166D01*
X60142380Y-80881071D01*
X60094761Y-80785833D01*
X60047142Y-80738214D01*
X59951904Y-80690595D01*
X59856666Y-80690595D01*
X59761428Y-80738214D01*
X59713809Y-80785833D01*
X59666190Y-80881071D01*
X59618571Y-81071547D01*
X59570952Y-81166785D01*
X59523333Y-81214404D01*
X59428095Y-81262023D01*
X59332857Y-81262023D01*
X59237619Y-81214404D01*
X59190000Y-81166785D01*
X59142380Y-81071547D01*
X59142380Y-80833452D01*
X59190000Y-80690595D01*
X188012380Y-57573333D02*
X188726666Y-57573333D01*
X188869523Y-57620952D01*
X188964761Y-57716190D01*
X189012380Y-57859047D01*
X189012380Y-57954285D01*
X189012380Y-56573333D02*
X189012380Y-57144761D01*
X189012380Y-56859047D02*
X188012380Y-56859047D01*
X188155238Y-56954285D01*
X188250476Y-57049523D01*
X188298095Y-57144761D01*
M02*
