G04 #@! TF.GenerationSoftware,KiCad,Pcbnew,5.99.0-unknown-c3175b4~86~ubuntu16.04.1*
G04 #@! TF.CreationDate,2019-11-27T13:40:58-05:00*
G04 #@! TF.ProjectId,sketchy,736b6574-6368-4792-9e6b-696361645f70,rev?*
G04 #@! TF.SameCoordinates,Original*
G04 #@! TF.FileFunction,Copper,L1,Top*
G04 #@! TF.FilePolarity,Positive*
%FSLAX46Y46*%
G04 Gerber Fmt 4.6, Leading zero omitted, Abs format (unit mm)*
G04 Created by KiCad (PCBNEW 5.99.0-unknown-c3175b4~86~ubuntu16.04.1) date 2019-11-27 13:40:58*
%MOMM*%
%LPD*%
G04 APERTURE LIST*
%ADD10R,1.700000X1.700000*%
%ADD11O,1.700000X1.700000*%
%ADD12R,1.600000X1.600000*%
%ADD13O,1.600000X1.600000*%
%ADD14O,1.600000X2.400000*%
%ADD15R,2.600000X2.600000*%
%ADD16C,2.600000*%
%ADD17C,1.000000*%
%ADD18C,2.000000*%
%ADD19C,0.254000*%
G04 APERTURE END LIST*
D10*
X161290000Y-63500000D03*
D11*
X163830000Y-63500000D03*
X166370000Y-63500000D03*
X168910000Y-63500000D03*
D10*
X128270000Y-63500000D03*
D11*
X130810000Y-63500000D03*
X133350000Y-63500000D03*
X135890000Y-63500000D03*
D12*
X173990000Y-69850000D03*
D13*
X156210000Y-82550000D03*
X171450000Y-69850000D03*
X158750000Y-82550000D03*
X168910000Y-69850000D03*
X161290000Y-82550000D03*
X166370000Y-69850000D03*
X163830000Y-82550000D03*
X163830000Y-69850000D03*
X166370000Y-82550000D03*
X161290000Y-69850000D03*
X168910000Y-82550000D03*
X158750000Y-69850000D03*
X171450000Y-82550000D03*
X156210000Y-69850000D03*
X173990000Y-82550000D03*
D12*
X140970000Y-69850000D03*
D13*
X123190000Y-82550000D03*
X138430000Y-69850000D03*
X125730000Y-82550000D03*
X135890000Y-69850000D03*
X128270000Y-82550000D03*
X133350000Y-69850000D03*
X130810000Y-82550000D03*
X130810000Y-69850000D03*
X133350000Y-82550000D03*
X128270000Y-69850000D03*
X135890000Y-82550000D03*
X125730000Y-69850000D03*
X138430000Y-82550000D03*
X123190000Y-69850000D03*
X140970000Y-82550000D03*
D14*
X64740000Y-85090000D03*
X62200000Y-85090000D03*
X59660000Y-85090000D03*
X59660000Y-67310000D03*
X62200000Y-67310000D03*
X64740000Y-67310000D03*
X107950000Y-85090000D03*
X107920000Y-67310000D03*
X105410000Y-85090000D03*
X105380000Y-67310000D03*
X102870000Y-85090000D03*
X102840000Y-67310000D03*
X100330000Y-85090000D03*
X100300000Y-67310000D03*
X97790000Y-85090000D03*
X97760000Y-67310000D03*
X95250000Y-85090000D03*
X95220000Y-67310000D03*
X92710000Y-85090000D03*
X92680000Y-67310000D03*
X90170000Y-85090000D03*
X90140000Y-67310000D03*
X87630000Y-85090000D03*
X87600000Y-67310000D03*
X85090000Y-85090000D03*
X85060000Y-67310000D03*
X82550000Y-85090000D03*
X82520000Y-67310000D03*
X80010000Y-85090000D03*
X79980000Y-67310000D03*
X77470000Y-85090000D03*
X77440000Y-67310000D03*
X74930000Y-85090000D03*
X74900000Y-67310000D03*
X72390000Y-85090000D03*
X72360000Y-67310000D03*
X69850000Y-85090000D03*
X69820000Y-67310000D03*
X67310000Y-85090000D03*
X67280000Y-67310000D03*
D15*
X194310000Y-65690000D03*
D16*
X194310000Y-59690000D03*
X189610000Y-62690000D03*
D17*
X102870000Y-85090000D02*
X102870000Y-85490000D01*
X120650000Y-80010000D02*
X123190000Y-82550000D01*
D18*
X128270000Y-69850000D02*
X128270000Y-63500000D01*
X130810000Y-69850000D02*
X130810000Y-63500000D01*
X133350000Y-63500000D02*
X133350000Y-69850000D01*
X135890000Y-69850000D02*
X135890000Y-63500000D01*
X161290000Y-69850000D02*
X161290000Y-63500000D01*
X163830000Y-63500000D02*
X163830000Y-69850000D01*
X166370000Y-69850000D02*
X166370000Y-63500000D01*
X168910000Y-63500000D02*
X168910000Y-69850000D01*
D17*
X118110000Y-77470000D02*
X120650000Y-80010000D01*
X105750000Y-77470000D02*
X118110000Y-77470000D01*
X100330000Y-82890000D02*
X105750000Y-77470000D01*
X100330000Y-85090000D02*
X100330000Y-82890000D01*
X151130000Y-77470000D02*
X156210000Y-82550000D01*
X121920000Y-77470000D02*
X151130000Y-77470000D01*
X121920000Y-77470000D02*
X118110000Y-77470000D01*
X140970000Y-86360000D02*
X140970000Y-82550000D01*
X95250000Y-85090000D02*
X95250000Y-88900000D01*
X137160000Y-90170000D02*
X140970000Y-86360000D01*
X95250000Y-88900000D02*
X96520000Y-90170000D01*
X96520000Y-90170000D02*
X137160000Y-90170000D01*
X97790000Y-85090000D02*
X97790000Y-86262306D01*
X135303847Y-88216153D02*
X138430000Y-85090000D01*
X97790000Y-86262306D02*
X99743847Y-88216153D01*
X138430000Y-85090000D02*
X138430000Y-82550000D01*
X99743847Y-88216153D02*
X135303847Y-88216153D01*
D19*
G36*
X201296000Y-92076000D02*
G01*
X57784000Y-92076000D01*
X57784000Y-84627394D01*
X58226000Y-84627394D01*
X58226000Y-85552605D01*
X58242391Y-85739961D01*
X58307333Y-85982329D01*
X58413376Y-86209738D01*
X58557297Y-86415277D01*
X58734721Y-86592703D01*
X58940261Y-86736624D01*
X59167670Y-86842667D01*
X59410038Y-86907609D01*
X59660000Y-86929477D01*
X59909961Y-86907609D01*
X60152329Y-86842667D01*
X60379738Y-86736624D01*
X60585277Y-86592703D01*
X60762703Y-86415279D01*
X60906624Y-86209739D01*
X60930000Y-86159608D01*
X60953376Y-86209738D01*
X61097297Y-86415277D01*
X61274721Y-86592703D01*
X61480261Y-86736624D01*
X61707670Y-86842667D01*
X61950038Y-86907609D01*
X62200000Y-86929477D01*
X62449961Y-86907609D01*
X62692329Y-86842667D01*
X62919738Y-86736624D01*
X63125277Y-86592703D01*
X63302703Y-86415279D01*
X63446624Y-86209739D01*
X63470000Y-86159608D01*
X63493376Y-86209738D01*
X63637297Y-86415277D01*
X63814721Y-86592703D01*
X64020261Y-86736624D01*
X64247670Y-86842667D01*
X64490038Y-86907609D01*
X64740000Y-86929477D01*
X64989961Y-86907609D01*
X65232329Y-86842667D01*
X65459738Y-86736624D01*
X65665277Y-86592703D01*
X65842703Y-86415279D01*
X65986624Y-86209739D01*
X66025000Y-86127441D01*
X66063376Y-86209738D01*
X66207297Y-86415277D01*
X66384721Y-86592703D01*
X66590261Y-86736624D01*
X66817670Y-86842667D01*
X67060038Y-86907609D01*
X67310000Y-86929477D01*
X67559961Y-86907609D01*
X67802329Y-86842667D01*
X68029738Y-86736624D01*
X68235277Y-86592703D01*
X68412703Y-86415279D01*
X68556624Y-86209739D01*
X68580000Y-86159608D01*
X68603376Y-86209738D01*
X68747297Y-86415277D01*
X68924721Y-86592703D01*
X69130261Y-86736624D01*
X69357670Y-86842667D01*
X69600038Y-86907609D01*
X69850000Y-86929477D01*
X70099961Y-86907609D01*
X70342329Y-86842667D01*
X70569738Y-86736624D01*
X70775277Y-86592703D01*
X70952703Y-86415279D01*
X71096624Y-86209739D01*
X71120000Y-86159608D01*
X71143376Y-86209738D01*
X71287297Y-86415277D01*
X71464721Y-86592703D01*
X71670261Y-86736624D01*
X71897670Y-86842667D01*
X72140038Y-86907609D01*
X72390000Y-86929477D01*
X72639961Y-86907609D01*
X72882329Y-86842667D01*
X73109738Y-86736624D01*
X73315277Y-86592703D01*
X73492703Y-86415279D01*
X73636624Y-86209739D01*
X73660000Y-86159608D01*
X73683376Y-86209738D01*
X73827297Y-86415277D01*
X74004721Y-86592703D01*
X74210261Y-86736624D01*
X74437670Y-86842667D01*
X74680038Y-86907609D01*
X74930000Y-86929477D01*
X75179961Y-86907609D01*
X75422329Y-86842667D01*
X75649738Y-86736624D01*
X75855277Y-86592703D01*
X76032703Y-86415279D01*
X76176624Y-86209739D01*
X76200000Y-86159608D01*
X76223376Y-86209738D01*
X76367297Y-86415277D01*
X76544721Y-86592703D01*
X76750261Y-86736624D01*
X76977670Y-86842667D01*
X77220038Y-86907609D01*
X77470000Y-86929477D01*
X77719961Y-86907609D01*
X77962329Y-86842667D01*
X78189738Y-86736624D01*
X78395277Y-86592703D01*
X78572703Y-86415279D01*
X78716624Y-86209739D01*
X78740000Y-86159608D01*
X78763376Y-86209738D01*
X78907297Y-86415277D01*
X79084721Y-86592703D01*
X79290261Y-86736624D01*
X79517670Y-86842667D01*
X79760038Y-86907609D01*
X80010000Y-86929477D01*
X80259961Y-86907609D01*
X80502329Y-86842667D01*
X80729738Y-86736624D01*
X80935277Y-86592703D01*
X81112703Y-86415279D01*
X81256624Y-86209739D01*
X81280000Y-86159608D01*
X81303376Y-86209738D01*
X81447297Y-86415277D01*
X81624721Y-86592703D01*
X81830261Y-86736624D01*
X82057670Y-86842667D01*
X82300038Y-86907609D01*
X82550000Y-86929477D01*
X82799961Y-86907609D01*
X83042329Y-86842667D01*
X83269738Y-86736624D01*
X83475277Y-86592703D01*
X83652703Y-86415279D01*
X83796624Y-86209739D01*
X83820000Y-86159608D01*
X83843376Y-86209738D01*
X83987297Y-86415277D01*
X84164721Y-86592703D01*
X84370261Y-86736624D01*
X84597670Y-86842667D01*
X84840038Y-86907609D01*
X85090000Y-86929477D01*
X85339961Y-86907609D01*
X85582329Y-86842667D01*
X85809738Y-86736624D01*
X86015277Y-86592703D01*
X86192703Y-86415279D01*
X86336624Y-86209739D01*
X86360000Y-86159608D01*
X86383376Y-86209738D01*
X86527297Y-86415277D01*
X86704721Y-86592703D01*
X86910261Y-86736624D01*
X87137670Y-86842667D01*
X87380038Y-86907609D01*
X87630000Y-86929477D01*
X87879961Y-86907609D01*
X88122329Y-86842667D01*
X88349738Y-86736624D01*
X88555277Y-86592703D01*
X88732703Y-86415279D01*
X88876624Y-86209739D01*
X88900000Y-86159608D01*
X88923376Y-86209738D01*
X89067297Y-86415277D01*
X89244721Y-86592703D01*
X89450261Y-86736624D01*
X89677670Y-86842667D01*
X89920038Y-86907609D01*
X90170000Y-86929477D01*
X90419961Y-86907609D01*
X90662329Y-86842667D01*
X90889738Y-86736624D01*
X91095277Y-86592703D01*
X91272703Y-86415279D01*
X91416624Y-86209739D01*
X91440000Y-86159608D01*
X91463376Y-86209738D01*
X91607297Y-86415277D01*
X91784721Y-86592703D01*
X91990261Y-86736624D01*
X92217670Y-86842667D01*
X92460038Y-86907609D01*
X92710000Y-86929477D01*
X92959961Y-86907609D01*
X93202329Y-86842667D01*
X93429738Y-86736624D01*
X93635277Y-86592703D01*
X93812703Y-86415279D01*
X93956624Y-86209739D01*
X93980000Y-86159608D01*
X94003376Y-86209738D01*
X94116000Y-86370582D01*
X94116001Y-88860678D01*
X94109245Y-88959784D01*
X94127731Y-89065704D01*
X94140652Y-89172483D01*
X94151271Y-89200583D01*
X94156433Y-89230165D01*
X94199653Y-89328625D01*
X94237671Y-89429234D01*
X94254684Y-89453987D01*
X94266891Y-89481795D01*
X94327475Y-89559901D01*
X94393133Y-89655432D01*
X94471844Y-89725561D01*
X95690331Y-90944048D01*
X95755637Y-91018910D01*
X95843611Y-91080740D01*
X95928246Y-91147101D01*
X95955624Y-91159463D01*
X95980195Y-91176732D01*
X96080378Y-91215792D01*
X96178397Y-91260049D01*
X96207932Y-91265524D01*
X96236229Y-91276555D01*
X96334309Y-91288946D01*
X96448273Y-91310068D01*
X96553502Y-91304000D01*
X137120692Y-91304000D01*
X137219783Y-91310755D01*
X137325701Y-91292270D01*
X137432482Y-91279349D01*
X137460586Y-91268729D01*
X137490167Y-91263566D01*
X137588614Y-91220352D01*
X137689234Y-91182330D01*
X137713992Y-91165314D01*
X137741795Y-91153109D01*
X137819902Y-91092523D01*
X137915431Y-91026869D01*
X137985569Y-90948148D01*
X141744048Y-87189669D01*
X141818910Y-87124362D01*
X141880746Y-87036379D01*
X141947103Y-86951753D01*
X141959464Y-86924376D01*
X141976732Y-86899806D01*
X142015790Y-86799626D01*
X142060050Y-86701600D01*
X142065522Y-86672071D01*
X142076555Y-86643772D01*
X142088945Y-86545694D01*
X142110068Y-86431727D01*
X142104000Y-86326498D01*
X142104000Y-86286985D01*
X192791671Y-86286985D01*
X192803556Y-86627341D01*
X192856832Y-86963712D01*
X192950704Y-87291082D01*
X193083772Y-87604573D01*
X193254054Y-87899510D01*
X193459011Y-88171496D01*
X193695586Y-88416477D01*
X193960254Y-88630800D01*
X194249068Y-88811272D01*
X194557724Y-88955201D01*
X194881619Y-89060441D01*
X195215925Y-89125422D01*
X195555659Y-89149180D01*
X195895756Y-89131356D01*
X196231146Y-89072218D01*
X196556829Y-88972646D01*
X196867949Y-88834126D01*
X197159869Y-88658723D01*
X197428236Y-88449052D01*
X197669052Y-88208236D01*
X197878723Y-87939869D01*
X198054126Y-87647949D01*
X198192646Y-87336829D01*
X198292218Y-87011146D01*
X198351644Y-86674124D01*
X198364285Y-86191363D01*
X198322579Y-85851693D01*
X198240189Y-85521245D01*
X198118141Y-85203302D01*
X197958256Y-84902602D01*
X197762918Y-84623629D01*
X197535036Y-84370540D01*
X197278009Y-84147111D01*
X196995669Y-83956670D01*
X196692225Y-83802057D01*
X196372200Y-83685578D01*
X196040365Y-83608968D01*
X195701667Y-83573370D01*
X195361156Y-83579313D01*
X195023906Y-83626711D01*
X194694947Y-83714855D01*
X194379181Y-83842432D01*
X194081318Y-84007540D01*
X193805796Y-84207719D01*
X193556724Y-84439982D01*
X193337814Y-84700869D01*
X193152329Y-84986490D01*
X193003037Y-85292587D01*
X192892160Y-85614596D01*
X192821352Y-85947717D01*
X192791671Y-86286985D01*
X142104000Y-86286985D01*
X142104000Y-83430583D01*
X142216624Y-83269739D01*
X142322667Y-83042330D01*
X142387609Y-82799962D01*
X142409477Y-82550000D01*
X142387609Y-82300038D01*
X142322667Y-82057670D01*
X142216624Y-81830261D01*
X142072703Y-81624721D01*
X141895279Y-81447297D01*
X141689739Y-81303376D01*
X141462330Y-81197333D01*
X141219962Y-81132391D01*
X141032606Y-81116000D01*
X140907394Y-81116000D01*
X140720038Y-81132391D01*
X140477670Y-81197333D01*
X140250261Y-81303376D01*
X140044721Y-81447297D01*
X139867297Y-81624721D01*
X139723376Y-81830261D01*
X139700000Y-81880391D01*
X139676624Y-81830261D01*
X139532703Y-81624721D01*
X139355279Y-81447297D01*
X139149739Y-81303376D01*
X138922330Y-81197333D01*
X138679962Y-81132391D01*
X138492606Y-81116000D01*
X138367394Y-81116000D01*
X138180038Y-81132391D01*
X137937670Y-81197333D01*
X137710261Y-81303376D01*
X137504721Y-81447297D01*
X137327297Y-81624721D01*
X137183376Y-81830261D01*
X137160000Y-81880391D01*
X137136624Y-81830261D01*
X136992703Y-81624721D01*
X136815279Y-81447297D01*
X136609739Y-81303376D01*
X136382330Y-81197333D01*
X136139962Y-81132391D01*
X135952606Y-81116000D01*
X135827394Y-81116000D01*
X135640038Y-81132391D01*
X135397670Y-81197333D01*
X135170261Y-81303376D01*
X134964721Y-81447297D01*
X134787297Y-81624721D01*
X134643376Y-81830261D01*
X134620000Y-81880391D01*
X134596624Y-81830261D01*
X134452703Y-81624721D01*
X134275279Y-81447297D01*
X134069739Y-81303376D01*
X133842330Y-81197333D01*
X133599962Y-81132391D01*
X133412606Y-81116000D01*
X133287394Y-81116000D01*
X133100038Y-81132391D01*
X132857670Y-81197333D01*
X132630261Y-81303376D01*
X132424721Y-81447297D01*
X132247297Y-81624721D01*
X132103376Y-81830261D01*
X132080000Y-81880391D01*
X132056624Y-81830261D01*
X131912703Y-81624721D01*
X131735279Y-81447297D01*
X131529739Y-81303376D01*
X131302330Y-81197333D01*
X130938000Y-81099712D01*
X130938000Y-84000288D01*
X131302330Y-83902667D01*
X131529739Y-83796624D01*
X131735279Y-83652703D01*
X131912703Y-83475279D01*
X132056624Y-83269739D01*
X132080000Y-83219609D01*
X132103376Y-83269739D01*
X132247297Y-83475279D01*
X132424721Y-83652703D01*
X132630261Y-83796624D01*
X132857670Y-83902667D01*
X133100038Y-83967609D01*
X133287394Y-83984000D01*
X133412606Y-83984000D01*
X133599962Y-83967609D01*
X133842330Y-83902667D01*
X134069739Y-83796624D01*
X134275279Y-83652703D01*
X134452703Y-83475279D01*
X134596624Y-83269739D01*
X134620000Y-83219609D01*
X134643376Y-83269739D01*
X134787297Y-83475279D01*
X134964721Y-83652703D01*
X135170261Y-83796624D01*
X135397670Y-83902667D01*
X135640038Y-83967609D01*
X135827394Y-83984000D01*
X135952606Y-83984000D01*
X136139962Y-83967609D01*
X136382330Y-83902667D01*
X136609739Y-83796624D01*
X136815279Y-83652703D01*
X136992703Y-83475279D01*
X137136624Y-83269739D01*
X137160000Y-83219609D01*
X137183376Y-83269739D01*
X137296001Y-83430584D01*
X137296000Y-84620282D01*
X134834131Y-87082153D01*
X100213566Y-87082153D01*
X100071702Y-86940289D01*
X105538000Y-86940289D01*
X105902329Y-86842667D01*
X106129738Y-86736624D01*
X106335277Y-86592703D01*
X106512703Y-86415279D01*
X106656624Y-86209739D01*
X106680000Y-86159608D01*
X106703376Y-86209738D01*
X106847297Y-86415277D01*
X107024721Y-86592703D01*
X107230261Y-86736624D01*
X107457670Y-86842667D01*
X107700038Y-86907609D01*
X107950000Y-86929477D01*
X108199961Y-86907609D01*
X108442329Y-86842667D01*
X108669738Y-86736624D01*
X108875277Y-86592703D01*
X109052703Y-86415279D01*
X109196624Y-86209739D01*
X109302667Y-85982330D01*
X109367609Y-85739962D01*
X109384000Y-85552606D01*
X109384000Y-84627395D01*
X109367609Y-84440039D01*
X109302667Y-84197670D01*
X109196624Y-83970261D01*
X109052703Y-83764721D01*
X108875279Y-83587297D01*
X108669739Y-83443376D01*
X108442330Y-83337333D01*
X108199962Y-83272391D01*
X107950000Y-83250523D01*
X107700039Y-83272391D01*
X107457671Y-83337333D01*
X107230262Y-83443376D01*
X107024722Y-83587297D01*
X106847298Y-83764721D01*
X106703376Y-83970261D01*
X106680000Y-84020391D01*
X106656624Y-83970261D01*
X106512703Y-83764721D01*
X106335279Y-83587297D01*
X106129739Y-83443376D01*
X105902330Y-83337333D01*
X105538000Y-83239712D01*
X105538000Y-86940289D01*
X100071702Y-86940289D01*
X100024009Y-86892596D01*
X100080038Y-86907609D01*
X100330000Y-86929477D01*
X100579961Y-86907609D01*
X100822329Y-86842667D01*
X101049738Y-86736624D01*
X101255277Y-86592703D01*
X101432703Y-86415279D01*
X101576624Y-86209739D01*
X101600000Y-86159608D01*
X101623376Y-86209738D01*
X101767297Y-86415277D01*
X101944721Y-86592703D01*
X102150261Y-86736624D01*
X102377670Y-86842667D01*
X102620038Y-86907609D01*
X102870000Y-86929477D01*
X103119961Y-86907609D01*
X103362329Y-86842667D01*
X103589738Y-86736624D01*
X103795277Y-86592703D01*
X103972703Y-86415279D01*
X104116624Y-86209739D01*
X104140000Y-86159608D01*
X104163376Y-86209738D01*
X104307297Y-86415277D01*
X104484721Y-86592703D01*
X104690261Y-86736624D01*
X104917670Y-86842667D01*
X105282000Y-86940288D01*
X105282000Y-83239711D01*
X104917671Y-83337333D01*
X104690262Y-83443376D01*
X104484722Y-83587297D01*
X104307298Y-83764721D01*
X104163376Y-83970261D01*
X104140000Y-84020391D01*
X104116624Y-83970261D01*
X103972703Y-83764721D01*
X103795279Y-83587297D01*
X103589739Y-83443376D01*
X103362330Y-83337333D01*
X103119962Y-83272391D01*
X102870000Y-83250523D01*
X102620039Y-83272391D01*
X102377671Y-83337333D01*
X102150262Y-83443376D01*
X101944722Y-83587297D01*
X101767298Y-83764721D01*
X101623376Y-83970261D01*
X101600000Y-84020391D01*
X101576624Y-83970261D01*
X101464000Y-83809417D01*
X101464000Y-83359717D01*
X106219717Y-78604000D01*
X117640283Y-78604000D01*
X121766269Y-82729986D01*
X121772391Y-82799962D01*
X121837333Y-83042330D01*
X121943376Y-83269739D01*
X122087297Y-83475279D01*
X122264721Y-83652703D01*
X122470261Y-83796624D01*
X122697670Y-83902667D01*
X122940038Y-83967609D01*
X123127394Y-83984000D01*
X123252606Y-83984000D01*
X123439962Y-83967609D01*
X123682330Y-83902667D01*
X123909739Y-83796624D01*
X124115279Y-83652703D01*
X124292703Y-83475279D01*
X124436624Y-83269739D01*
X124460000Y-83219609D01*
X124483376Y-83269739D01*
X124627297Y-83475279D01*
X124804721Y-83652703D01*
X125010261Y-83796624D01*
X125237670Y-83902667D01*
X125602000Y-84000288D01*
X125602000Y-81099712D01*
X125858000Y-81099712D01*
X125858000Y-84000288D01*
X126222330Y-83902667D01*
X126449739Y-83796624D01*
X126655279Y-83652703D01*
X126832703Y-83475279D01*
X126976624Y-83269739D01*
X127000000Y-83219609D01*
X127023376Y-83269739D01*
X127167297Y-83475279D01*
X127344721Y-83652703D01*
X127550261Y-83796624D01*
X127777670Y-83902667D01*
X128142000Y-84000288D01*
X128142000Y-81099712D01*
X128398000Y-81099712D01*
X128398000Y-84000288D01*
X128762330Y-83902667D01*
X128989739Y-83796624D01*
X129195279Y-83652703D01*
X129372703Y-83475279D01*
X129516624Y-83269739D01*
X129540000Y-83219609D01*
X129563376Y-83269739D01*
X129707297Y-83475279D01*
X129884721Y-83652703D01*
X130090261Y-83796624D01*
X130317670Y-83902667D01*
X130682000Y-84000288D01*
X130682000Y-81099712D01*
X130317670Y-81197333D01*
X130090261Y-81303376D01*
X129884721Y-81447297D01*
X129707297Y-81624721D01*
X129563376Y-81830261D01*
X129540000Y-81880391D01*
X129516624Y-81830261D01*
X129372703Y-81624721D01*
X129195279Y-81447297D01*
X128989739Y-81303376D01*
X128762330Y-81197333D01*
X128398000Y-81099712D01*
X128142000Y-81099712D01*
X127777670Y-81197333D01*
X127550261Y-81303376D01*
X127344721Y-81447297D01*
X127167297Y-81624721D01*
X127023376Y-81830261D01*
X127000000Y-81880391D01*
X126976624Y-81830261D01*
X126832703Y-81624721D01*
X126655279Y-81447297D01*
X126449739Y-81303376D01*
X126222330Y-81197333D01*
X125858000Y-81099712D01*
X125602000Y-81099712D01*
X125237670Y-81197333D01*
X125010261Y-81303376D01*
X124804721Y-81447297D01*
X124627297Y-81624721D01*
X124483376Y-81830261D01*
X124460000Y-81880391D01*
X124436624Y-81830261D01*
X124292703Y-81624721D01*
X124115279Y-81447297D01*
X123909739Y-81303376D01*
X123682330Y-81197333D01*
X123439962Y-81132391D01*
X123369986Y-81126269D01*
X121499632Y-79255916D01*
X121499626Y-79255908D01*
X120847717Y-78604000D01*
X150660283Y-78604000D01*
X154786269Y-82729986D01*
X154792391Y-82799962D01*
X154857333Y-83042330D01*
X154963376Y-83269739D01*
X155107297Y-83475279D01*
X155284721Y-83652703D01*
X155490261Y-83796624D01*
X155717670Y-83902667D01*
X155960038Y-83967609D01*
X156147394Y-83984000D01*
X156272606Y-83984000D01*
X156459962Y-83967609D01*
X156702330Y-83902667D01*
X156929739Y-83796624D01*
X157135279Y-83652703D01*
X157312703Y-83475279D01*
X157456624Y-83269739D01*
X157480000Y-83219609D01*
X157503376Y-83269739D01*
X157647297Y-83475279D01*
X157824721Y-83652703D01*
X158030261Y-83796624D01*
X158257670Y-83902667D01*
X158622000Y-84000288D01*
X158622000Y-81099712D01*
X158878000Y-81099712D01*
X158878000Y-84000288D01*
X159242330Y-83902667D01*
X159469739Y-83796624D01*
X159675279Y-83652703D01*
X159852703Y-83475279D01*
X159996624Y-83269739D01*
X160020000Y-83219609D01*
X160043376Y-83269739D01*
X160187297Y-83475279D01*
X160364721Y-83652703D01*
X160570261Y-83796624D01*
X160797670Y-83902667D01*
X161162000Y-84000288D01*
X161162000Y-81099712D01*
X161418000Y-81099712D01*
X161418000Y-84000288D01*
X161782330Y-83902667D01*
X162009739Y-83796624D01*
X162215279Y-83652703D01*
X162392703Y-83475279D01*
X162536624Y-83269739D01*
X162560000Y-83219609D01*
X162583376Y-83269739D01*
X162727297Y-83475279D01*
X162904721Y-83652703D01*
X163110261Y-83796624D01*
X163337670Y-83902667D01*
X163702000Y-84000288D01*
X163958000Y-84000288D01*
X164322330Y-83902667D01*
X164549739Y-83796624D01*
X164755279Y-83652703D01*
X164932703Y-83475279D01*
X165076624Y-83269739D01*
X165100000Y-83219609D01*
X165123376Y-83269739D01*
X165267297Y-83475279D01*
X165444721Y-83652703D01*
X165650261Y-83796624D01*
X165877670Y-83902667D01*
X166120038Y-83967609D01*
X166307394Y-83984000D01*
X166432606Y-83984000D01*
X166619962Y-83967609D01*
X166862330Y-83902667D01*
X167089739Y-83796624D01*
X167295279Y-83652703D01*
X167472703Y-83475279D01*
X167616624Y-83269739D01*
X167640000Y-83219609D01*
X167663376Y-83269739D01*
X167807297Y-83475279D01*
X167984721Y-83652703D01*
X168190261Y-83796624D01*
X168417670Y-83902667D01*
X168660038Y-83967609D01*
X168847394Y-83984000D01*
X168972606Y-83984000D01*
X169159962Y-83967609D01*
X169402330Y-83902667D01*
X169629739Y-83796624D01*
X169835279Y-83652703D01*
X170012703Y-83475279D01*
X170156624Y-83269739D01*
X170180000Y-83219609D01*
X170203376Y-83269739D01*
X170347297Y-83475279D01*
X170524721Y-83652703D01*
X170730261Y-83796624D01*
X170957670Y-83902667D01*
X171200038Y-83967609D01*
X171387394Y-83984000D01*
X171512606Y-83984000D01*
X171699962Y-83967609D01*
X171942330Y-83902667D01*
X172169739Y-83796624D01*
X172375279Y-83652703D01*
X172552703Y-83475279D01*
X172696624Y-83269739D01*
X172720000Y-83219609D01*
X172743376Y-83269739D01*
X172887297Y-83475279D01*
X173064721Y-83652703D01*
X173270261Y-83796624D01*
X173497670Y-83902667D01*
X173740038Y-83967609D01*
X173927394Y-83984000D01*
X174052606Y-83984000D01*
X174239962Y-83967609D01*
X174482330Y-83902667D01*
X174709739Y-83796624D01*
X174915279Y-83652703D01*
X175092703Y-83475279D01*
X175236624Y-83269739D01*
X175342667Y-83042330D01*
X175407609Y-82799962D01*
X175429477Y-82550000D01*
X175407609Y-82300038D01*
X175342667Y-82057670D01*
X175236624Y-81830261D01*
X175092703Y-81624721D01*
X174915279Y-81447297D01*
X174709739Y-81303376D01*
X174482330Y-81197333D01*
X174239962Y-81132391D01*
X174052606Y-81116000D01*
X173927394Y-81116000D01*
X173740038Y-81132391D01*
X173497670Y-81197333D01*
X173270261Y-81303376D01*
X173064721Y-81447297D01*
X172887297Y-81624721D01*
X172743376Y-81830261D01*
X172720000Y-81880391D01*
X172696624Y-81830261D01*
X172552703Y-81624721D01*
X172375279Y-81447297D01*
X172169739Y-81303376D01*
X171942330Y-81197333D01*
X171699962Y-81132391D01*
X171512606Y-81116000D01*
X171387394Y-81116000D01*
X171200038Y-81132391D01*
X170957670Y-81197333D01*
X170730261Y-81303376D01*
X170524721Y-81447297D01*
X170347297Y-81624721D01*
X170203376Y-81830261D01*
X170180000Y-81880391D01*
X170156624Y-81830261D01*
X170012703Y-81624721D01*
X169835279Y-81447297D01*
X169629739Y-81303376D01*
X169402330Y-81197333D01*
X169159962Y-81132391D01*
X168972606Y-81116000D01*
X168847394Y-81116000D01*
X168660038Y-81132391D01*
X168417670Y-81197333D01*
X168190261Y-81303376D01*
X167984721Y-81447297D01*
X167807297Y-81624721D01*
X167663376Y-81830261D01*
X167640000Y-81880391D01*
X167616624Y-81830261D01*
X167472703Y-81624721D01*
X167295279Y-81447297D01*
X167089739Y-81303376D01*
X166862330Y-81197333D01*
X166619962Y-81132391D01*
X166432606Y-81116000D01*
X166307394Y-81116000D01*
X166120038Y-81132391D01*
X165877670Y-81197333D01*
X165650261Y-81303376D01*
X165444721Y-81447297D01*
X165267297Y-81624721D01*
X165123376Y-81830261D01*
X165100000Y-81880391D01*
X165076624Y-81830261D01*
X164932703Y-81624721D01*
X164755279Y-81447297D01*
X164549739Y-81303376D01*
X164322330Y-81197333D01*
X163958000Y-81099712D01*
X163958000Y-84000288D01*
X163702000Y-84000288D01*
X163702000Y-81099712D01*
X163337670Y-81197333D01*
X163110261Y-81303376D01*
X162904721Y-81447297D01*
X162727297Y-81624721D01*
X162583376Y-81830261D01*
X162560000Y-81880391D01*
X162536624Y-81830261D01*
X162392703Y-81624721D01*
X162215279Y-81447297D01*
X162009739Y-81303376D01*
X161782330Y-81197333D01*
X161418000Y-81099712D01*
X161162000Y-81099712D01*
X160797670Y-81197333D01*
X160570261Y-81303376D01*
X160364721Y-81447297D01*
X160187297Y-81624721D01*
X160043376Y-81830261D01*
X160020000Y-81880391D01*
X159996624Y-81830261D01*
X159852703Y-81624721D01*
X159675279Y-81447297D01*
X159469739Y-81303376D01*
X159242330Y-81197333D01*
X158878000Y-81099712D01*
X158622000Y-81099712D01*
X158257670Y-81197333D01*
X158030261Y-81303376D01*
X157824721Y-81447297D01*
X157647297Y-81624721D01*
X157503376Y-81830261D01*
X157480000Y-81880391D01*
X157456624Y-81830261D01*
X157312703Y-81624721D01*
X157135279Y-81447297D01*
X156929739Y-81303376D01*
X156702330Y-81197333D01*
X156459962Y-81132391D01*
X156389987Y-81126269D01*
X151959676Y-76695960D01*
X151894363Y-76621090D01*
X151806380Y-76559254D01*
X151721754Y-76492899D01*
X151694378Y-76480538D01*
X151669804Y-76463268D01*
X151569615Y-76424205D01*
X151471600Y-76379950D01*
X151442071Y-76374478D01*
X151413772Y-76363445D01*
X151315693Y-76351055D01*
X151201726Y-76329932D01*
X151096497Y-76336000D01*
X118214465Y-76336000D01*
X118181726Y-76329932D01*
X118076497Y-76336000D01*
X105789317Y-76336000D01*
X105690215Y-76329244D01*
X105584283Y-76347732D01*
X105477517Y-76360651D01*
X105449413Y-76371271D01*
X105419832Y-76376434D01*
X105321390Y-76419647D01*
X105220766Y-76457670D01*
X105196008Y-76474686D01*
X105168205Y-76486891D01*
X105090098Y-76547477D01*
X104994569Y-76613131D01*
X104924431Y-76691852D01*
X99555953Y-82060331D01*
X99481091Y-82125637D01*
X99419264Y-82213607D01*
X99352899Y-82298246D01*
X99340537Y-82325624D01*
X99323268Y-82350196D01*
X99284209Y-82450377D01*
X99239950Y-82548400D01*
X99234477Y-82577936D01*
X99223446Y-82606228D01*
X99211058Y-82704291D01*
X99189932Y-82818274D01*
X99196001Y-82923519D01*
X99196001Y-83809418D01*
X99083376Y-83970261D01*
X99060000Y-84020391D01*
X99036624Y-83970261D01*
X98892703Y-83764721D01*
X98715279Y-83587297D01*
X98509739Y-83443376D01*
X98282330Y-83337333D01*
X98039962Y-83272391D01*
X97790000Y-83250523D01*
X97540039Y-83272391D01*
X97297671Y-83337333D01*
X97070262Y-83443376D01*
X96864722Y-83587297D01*
X96687298Y-83764721D01*
X96543376Y-83970261D01*
X96520000Y-84020391D01*
X96496624Y-83970261D01*
X96352703Y-83764721D01*
X96175279Y-83587297D01*
X95969739Y-83443376D01*
X95742330Y-83337333D01*
X95499962Y-83272391D01*
X95250000Y-83250523D01*
X95000039Y-83272391D01*
X94757671Y-83337333D01*
X94530262Y-83443376D01*
X94324722Y-83587297D01*
X94147298Y-83764721D01*
X94003376Y-83970261D01*
X93980000Y-84020391D01*
X93956624Y-83970261D01*
X93812703Y-83764721D01*
X93635279Y-83587297D01*
X93429739Y-83443376D01*
X93202330Y-83337333D01*
X92959962Y-83272391D01*
X92710000Y-83250523D01*
X92460039Y-83272391D01*
X92217671Y-83337333D01*
X91990262Y-83443376D01*
X91784722Y-83587297D01*
X91607298Y-83764721D01*
X91463376Y-83970261D01*
X91440000Y-84020391D01*
X91416624Y-83970261D01*
X91272703Y-83764721D01*
X91095279Y-83587297D01*
X90889739Y-83443376D01*
X90662330Y-83337333D01*
X90419962Y-83272391D01*
X90170000Y-83250523D01*
X89920039Y-83272391D01*
X89677671Y-83337333D01*
X89450262Y-83443376D01*
X89244722Y-83587297D01*
X89067298Y-83764721D01*
X88923376Y-83970261D01*
X88900000Y-84020391D01*
X88876624Y-83970261D01*
X88732703Y-83764721D01*
X88555279Y-83587297D01*
X88349739Y-83443376D01*
X88122330Y-83337333D01*
X87879962Y-83272391D01*
X87630000Y-83250523D01*
X87380039Y-83272391D01*
X87137671Y-83337333D01*
X86910262Y-83443376D01*
X86704722Y-83587297D01*
X86527298Y-83764721D01*
X86383376Y-83970261D01*
X86360000Y-84020391D01*
X86336624Y-83970261D01*
X86192703Y-83764721D01*
X86015279Y-83587297D01*
X85809739Y-83443376D01*
X85582330Y-83337333D01*
X85339962Y-83272391D01*
X85090000Y-83250523D01*
X84840039Y-83272391D01*
X84597671Y-83337333D01*
X84370262Y-83443376D01*
X84164722Y-83587297D01*
X83987298Y-83764721D01*
X83843376Y-83970261D01*
X83820000Y-84020391D01*
X83796624Y-83970261D01*
X83652703Y-83764721D01*
X83475279Y-83587297D01*
X83269739Y-83443376D01*
X83042330Y-83337333D01*
X82799962Y-83272391D01*
X82550000Y-83250523D01*
X82300039Y-83272391D01*
X82057671Y-83337333D01*
X81830262Y-83443376D01*
X81624722Y-83587297D01*
X81447298Y-83764721D01*
X81303376Y-83970261D01*
X81280000Y-84020391D01*
X81256624Y-83970261D01*
X81112703Y-83764721D01*
X80935279Y-83587297D01*
X80729739Y-83443376D01*
X80502330Y-83337333D01*
X80259962Y-83272391D01*
X80010000Y-83250523D01*
X79760039Y-83272391D01*
X79517671Y-83337333D01*
X79290262Y-83443376D01*
X79084722Y-83587297D01*
X78907298Y-83764721D01*
X78763376Y-83970261D01*
X78740000Y-84020391D01*
X78716624Y-83970261D01*
X78572703Y-83764721D01*
X78395279Y-83587297D01*
X78189739Y-83443376D01*
X77962330Y-83337333D01*
X77719962Y-83272391D01*
X77470000Y-83250523D01*
X77220039Y-83272391D01*
X76977671Y-83337333D01*
X76750262Y-83443376D01*
X76544722Y-83587297D01*
X76367298Y-83764721D01*
X76223376Y-83970261D01*
X76200000Y-84020391D01*
X76176624Y-83970261D01*
X76032703Y-83764721D01*
X75855279Y-83587297D01*
X75649739Y-83443376D01*
X75422330Y-83337333D01*
X75179962Y-83272391D01*
X74930000Y-83250523D01*
X74680039Y-83272391D01*
X74437671Y-83337333D01*
X74210262Y-83443376D01*
X74004722Y-83587297D01*
X73827298Y-83764721D01*
X73683376Y-83970261D01*
X73660000Y-84020391D01*
X73636624Y-83970261D01*
X73492703Y-83764721D01*
X73315279Y-83587297D01*
X73109739Y-83443376D01*
X72882330Y-83337333D01*
X72639962Y-83272391D01*
X72390000Y-83250523D01*
X72140039Y-83272391D01*
X71897671Y-83337333D01*
X71670262Y-83443376D01*
X71464722Y-83587297D01*
X71287298Y-83764721D01*
X71143376Y-83970261D01*
X71120000Y-84020391D01*
X71096624Y-83970261D01*
X70952703Y-83764721D01*
X70775279Y-83587297D01*
X70569739Y-83443376D01*
X70342330Y-83337333D01*
X70099962Y-83272391D01*
X69850000Y-83250523D01*
X69600039Y-83272391D01*
X69357671Y-83337333D01*
X69130262Y-83443376D01*
X68924722Y-83587297D01*
X68747298Y-83764721D01*
X68603376Y-83970261D01*
X68580000Y-84020391D01*
X68556624Y-83970261D01*
X68412703Y-83764721D01*
X68235279Y-83587297D01*
X68029739Y-83443376D01*
X67802330Y-83337333D01*
X67559962Y-83272391D01*
X67310000Y-83250523D01*
X67060039Y-83272391D01*
X66817671Y-83337333D01*
X66590262Y-83443376D01*
X66384722Y-83587297D01*
X66207298Y-83764721D01*
X66063376Y-83970261D01*
X66025000Y-84052558D01*
X65986624Y-83970261D01*
X65842703Y-83764721D01*
X65665279Y-83587297D01*
X65459739Y-83443376D01*
X65232330Y-83337333D01*
X64989962Y-83272391D01*
X64740000Y-83250523D01*
X64490039Y-83272391D01*
X64247671Y-83337333D01*
X64020262Y-83443376D01*
X63814722Y-83587297D01*
X63637298Y-83764721D01*
X63493376Y-83970261D01*
X63470000Y-84020391D01*
X63446624Y-83970261D01*
X63302703Y-83764721D01*
X63125279Y-83587297D01*
X62919739Y-83443376D01*
X62692330Y-83337333D01*
X62449962Y-83272391D01*
X62200000Y-83250523D01*
X61950039Y-83272391D01*
X61707671Y-83337333D01*
X61480262Y-83443376D01*
X61274722Y-83587297D01*
X61097298Y-83764721D01*
X60953376Y-83970261D01*
X60930000Y-84020391D01*
X60906624Y-83970261D01*
X60762703Y-83764721D01*
X60585279Y-83587297D01*
X60379739Y-83443376D01*
X60152330Y-83337333D01*
X59909962Y-83272391D01*
X59660000Y-83250523D01*
X59410039Y-83272391D01*
X59167671Y-83337333D01*
X58940262Y-83443376D01*
X58734722Y-83587297D01*
X58557298Y-83764721D01*
X58413376Y-83970261D01*
X58307333Y-84197670D01*
X58242391Y-84440038D01*
X58226000Y-84627394D01*
X57784000Y-84627394D01*
X57784000Y-69850000D01*
X121750523Y-69850000D01*
X121772391Y-70099962D01*
X121837333Y-70342330D01*
X121943376Y-70569739D01*
X122087297Y-70775279D01*
X122264721Y-70952703D01*
X122470261Y-71096624D01*
X122697670Y-71202667D01*
X122940038Y-71267609D01*
X123127394Y-71284000D01*
X123252606Y-71284000D01*
X123439962Y-71267609D01*
X123682330Y-71202667D01*
X123909739Y-71096624D01*
X124115279Y-70952703D01*
X124292703Y-70775279D01*
X124436624Y-70569739D01*
X124460000Y-70519609D01*
X124483376Y-70569739D01*
X124627297Y-70775279D01*
X124804721Y-70952703D01*
X125010261Y-71096624D01*
X125237670Y-71202667D01*
X125602000Y-71300288D01*
X125602000Y-68399712D01*
X125858000Y-68399712D01*
X125858000Y-71300288D01*
X126222330Y-71202667D01*
X126449739Y-71096624D01*
X126655279Y-70952703D01*
X126832703Y-70775279D01*
X126878432Y-70709972D01*
X126921325Y-70787353D01*
X127137352Y-71039397D01*
X127399648Y-71242855D01*
X127697497Y-71389415D01*
X128018733Y-71473091D01*
X128350231Y-71490463D01*
X128678453Y-71440824D01*
X128989990Y-71326201D01*
X129272116Y-71151276D01*
X129513307Y-70923194D01*
X129542284Y-70881810D01*
X129677352Y-71039397D01*
X129939648Y-71242855D01*
X130237497Y-71389415D01*
X130558733Y-71473091D01*
X130890231Y-71490463D01*
X131218453Y-71440824D01*
X131529990Y-71326201D01*
X131812116Y-71151276D01*
X132053307Y-70923194D01*
X132082285Y-70881810D01*
X132217353Y-71039397D01*
X132479649Y-71242855D01*
X132777498Y-71389415D01*
X133098734Y-71473091D01*
X133430232Y-71490463D01*
X133758454Y-71440824D01*
X134069991Y-71326201D01*
X134352117Y-71151276D01*
X134593307Y-70923194D01*
X134622284Y-70881810D01*
X134757352Y-71039397D01*
X135019648Y-71242855D01*
X135317497Y-71389415D01*
X135638733Y-71473091D01*
X135970231Y-71490463D01*
X136298453Y-71440824D01*
X136609990Y-71326201D01*
X136892116Y-71151276D01*
X137133307Y-70923194D01*
X137282088Y-70710713D01*
X137327297Y-70775279D01*
X137504721Y-70952703D01*
X137710261Y-71096624D01*
X137937670Y-71202667D01*
X138180038Y-71267609D01*
X138367394Y-71284000D01*
X138492606Y-71284000D01*
X138679962Y-71267609D01*
X138922330Y-71202667D01*
X139149739Y-71096624D01*
X139355279Y-70952703D01*
X139532703Y-70775279D01*
X139550483Y-70749887D01*
X139608795Y-70967512D01*
X139756185Y-71143165D01*
X139949814Y-71254956D01*
X140158976Y-71291837D01*
X140842000Y-71291837D01*
X140842000Y-69978000D01*
X141098000Y-69978000D01*
X141098000Y-71291837D01*
X141786588Y-71291837D01*
X142087512Y-71211205D01*
X142263165Y-71063815D01*
X142374956Y-70870186D01*
X142411837Y-70661024D01*
X142411837Y-69978000D01*
X141098000Y-69978000D01*
X140842000Y-69978000D01*
X140842000Y-69850000D01*
X154770523Y-69850000D01*
X154792391Y-70099962D01*
X154857333Y-70342330D01*
X154963376Y-70569739D01*
X155107297Y-70775279D01*
X155284721Y-70952703D01*
X155490261Y-71096624D01*
X155717670Y-71202667D01*
X155960038Y-71267609D01*
X156147394Y-71284000D01*
X156272606Y-71284000D01*
X156459962Y-71267609D01*
X156702330Y-71202667D01*
X156929739Y-71096624D01*
X157135279Y-70952703D01*
X157312703Y-70775279D01*
X157456624Y-70569739D01*
X157480000Y-70519609D01*
X157503376Y-70569739D01*
X157647297Y-70775279D01*
X157824721Y-70952703D01*
X158030261Y-71096624D01*
X158257670Y-71202667D01*
X158622000Y-71300288D01*
X158622000Y-68399712D01*
X158878000Y-68399712D01*
X158878000Y-71300288D01*
X159242330Y-71202667D01*
X159469739Y-71096624D01*
X159675279Y-70952703D01*
X159852703Y-70775279D01*
X159898432Y-70709972D01*
X159941325Y-70787353D01*
X160157352Y-71039397D01*
X160419648Y-71242855D01*
X160717497Y-71389415D01*
X161038733Y-71473091D01*
X161370231Y-71490463D01*
X161698453Y-71440824D01*
X162009990Y-71326201D01*
X162292116Y-71151276D01*
X162533307Y-70923194D01*
X162562285Y-70881810D01*
X162697353Y-71039397D01*
X162959649Y-71242855D01*
X163257498Y-71389415D01*
X163578734Y-71473091D01*
X163910232Y-71490463D01*
X164238454Y-71440824D01*
X164549991Y-71326201D01*
X164832117Y-71151276D01*
X165073307Y-70923194D01*
X165102284Y-70881810D01*
X165237352Y-71039397D01*
X165499648Y-71242855D01*
X165797497Y-71389415D01*
X166118733Y-71473091D01*
X166450231Y-71490463D01*
X166778453Y-71440824D01*
X167089990Y-71326201D01*
X167372116Y-71151276D01*
X167613307Y-70923194D01*
X167642285Y-70881810D01*
X167777353Y-71039397D01*
X168039649Y-71242855D01*
X168337498Y-71389415D01*
X168658734Y-71473091D01*
X168990232Y-71490463D01*
X169318454Y-71440824D01*
X169629991Y-71326201D01*
X169912117Y-71151276D01*
X170153307Y-70923194D01*
X170302088Y-70710713D01*
X170347297Y-70775279D01*
X170524721Y-70952703D01*
X170730261Y-71096624D01*
X170957670Y-71202667D01*
X171200038Y-71267609D01*
X171387394Y-71284000D01*
X171512606Y-71284000D01*
X171699962Y-71267609D01*
X171942330Y-71202667D01*
X172169739Y-71096624D01*
X172375279Y-70952703D01*
X172552703Y-70775279D01*
X172570483Y-70749887D01*
X172628795Y-70967512D01*
X172776185Y-71143165D01*
X172969814Y-71254956D01*
X173178976Y-71291837D01*
X173862000Y-71291837D01*
X173862000Y-69978000D01*
X174118000Y-69978000D01*
X174118000Y-71291837D01*
X174806588Y-71291837D01*
X175107512Y-71211205D01*
X175283165Y-71063815D01*
X175394956Y-70870186D01*
X175431837Y-70661024D01*
X175431837Y-69978000D01*
X174118000Y-69978000D01*
X173862000Y-69978000D01*
X173862000Y-68408163D01*
X174118000Y-68408163D01*
X174118000Y-69722000D01*
X175431837Y-69722000D01*
X175431837Y-69033412D01*
X175351205Y-68732489D01*
X175203815Y-68556835D01*
X175010186Y-68445044D01*
X174801024Y-68408163D01*
X174118000Y-68408163D01*
X173862000Y-68408163D01*
X173173412Y-68408163D01*
X172872489Y-68488795D01*
X172696835Y-68636185D01*
X172585044Y-68829814D01*
X172565170Y-68942525D01*
X172552703Y-68924721D01*
X172375279Y-68747297D01*
X172169739Y-68603376D01*
X171942330Y-68497333D01*
X171699962Y-68432391D01*
X171512606Y-68416000D01*
X171387394Y-68416000D01*
X171200038Y-68432391D01*
X170957670Y-68497333D01*
X170730261Y-68603376D01*
X170544000Y-68733798D01*
X170544000Y-63417063D01*
X170518879Y-63169745D01*
X170419610Y-62852980D01*
X170379910Y-62781359D01*
X187672737Y-62781359D01*
X187707520Y-63066701D01*
X187784097Y-63343768D01*
X187900786Y-63606472D01*
X188055023Y-63849044D01*
X188243421Y-64066153D01*
X188461840Y-64253031D01*
X188705482Y-64405571D01*
X188968995Y-64520423D01*
X189246590Y-64595064D01*
X189532168Y-64627854D01*
X189819455Y-64618072D01*
X190102143Y-64565935D01*
X190374018Y-64472586D01*
X190554224Y-64378976D01*
X192368163Y-64378976D01*
X192368163Y-67006588D01*
X192448795Y-67307512D01*
X192596185Y-67483165D01*
X192789814Y-67594956D01*
X192998976Y-67631837D01*
X195626588Y-67631837D01*
X195927512Y-67551205D01*
X196103165Y-67403815D01*
X196214956Y-67210186D01*
X196251837Y-67001024D01*
X196251837Y-64373412D01*
X196171205Y-64072489D01*
X196023815Y-63896835D01*
X195830186Y-63785044D01*
X195621024Y-63748163D01*
X192993412Y-63748163D01*
X192692489Y-63828795D01*
X192516835Y-63976185D01*
X192405044Y-64169814D01*
X192368163Y-64378976D01*
X190554224Y-64378976D01*
X190629108Y-64340077D01*
X190861811Y-64171319D01*
X191067014Y-63970018D01*
X191240208Y-63740597D01*
X191377590Y-63488098D01*
X191476142Y-63218065D01*
X191534029Y-62934805D01*
X191544452Y-62549603D01*
X191501967Y-62263627D01*
X191418164Y-61988660D01*
X191294638Y-61729099D01*
X191134104Y-61490649D01*
X190940087Y-61278546D01*
X190775721Y-61145207D01*
X193035812Y-61145207D01*
X193161841Y-61253032D01*
X193405482Y-61405571D01*
X193668995Y-61520423D01*
X193946590Y-61595064D01*
X194232168Y-61627854D01*
X194519455Y-61618072D01*
X194802143Y-61565935D01*
X195074018Y-61472586D01*
X195329108Y-61340077D01*
X195589917Y-61150936D01*
X194310000Y-59871019D01*
X193035812Y-61145207D01*
X190775721Y-61145207D01*
X190716851Y-61097450D01*
X190469300Y-60951339D01*
X190202871Y-60843425D01*
X189923417Y-60776075D01*
X189637078Y-60750773D01*
X189350145Y-60768071D01*
X189068920Y-60827590D01*
X188799581Y-60928024D01*
X188548047Y-61067166D01*
X188319841Y-61241957D01*
X188119978Y-61448561D01*
X187952848Y-61682436D01*
X187822123Y-61938447D01*
X187730675Y-62210966D01*
X187680512Y-62494010D01*
X187672737Y-62781359D01*
X170379910Y-62781359D01*
X170258675Y-62562646D01*
X170042647Y-62310603D01*
X169780351Y-62107145D01*
X169482502Y-61960585D01*
X169161266Y-61876909D01*
X168829768Y-61859537D01*
X168501546Y-61909176D01*
X168190009Y-62023799D01*
X167907883Y-62198724D01*
X167666693Y-62426808D01*
X167637717Y-62468190D01*
X167502648Y-62310603D01*
X167240352Y-62107145D01*
X166942503Y-61960585D01*
X166621267Y-61876909D01*
X166289769Y-61859537D01*
X165961547Y-61909176D01*
X165650010Y-62023799D01*
X165367884Y-62198724D01*
X165126694Y-62426806D01*
X165097716Y-62468190D01*
X164962647Y-62310603D01*
X164700351Y-62107145D01*
X164402502Y-61960585D01*
X164081266Y-61876909D01*
X163749768Y-61859537D01*
X163421546Y-61909176D01*
X163110009Y-62023799D01*
X162827883Y-62198724D01*
X162694669Y-62324699D01*
X162553815Y-62156835D01*
X162360186Y-62045044D01*
X162151024Y-62008163D01*
X161959193Y-62008163D01*
X161862503Y-61960585D01*
X161541267Y-61876909D01*
X161209769Y-61859537D01*
X160881547Y-61909176D01*
X160612508Y-62008163D01*
X160423412Y-62008163D01*
X160122489Y-62088795D01*
X159946835Y-62236185D01*
X159835044Y-62429814D01*
X159798163Y-62638976D01*
X159798163Y-62833057D01*
X159723130Y-63006448D01*
X159656001Y-63440075D01*
X159656000Y-68733798D01*
X159469739Y-68603376D01*
X159242330Y-68497333D01*
X158878000Y-68399712D01*
X158622000Y-68399712D01*
X158257670Y-68497333D01*
X158030261Y-68603376D01*
X157824721Y-68747297D01*
X157647297Y-68924721D01*
X157503376Y-69130261D01*
X157480000Y-69180391D01*
X157456624Y-69130261D01*
X157312703Y-68924721D01*
X157135279Y-68747297D01*
X156929739Y-68603376D01*
X156702330Y-68497333D01*
X156459962Y-68432391D01*
X156272606Y-68416000D01*
X156147394Y-68416000D01*
X155960038Y-68432391D01*
X155717670Y-68497333D01*
X155490261Y-68603376D01*
X155284721Y-68747297D01*
X155107297Y-68924721D01*
X154963376Y-69130261D01*
X154857333Y-69357670D01*
X154792391Y-69600038D01*
X154770523Y-69850000D01*
X140842000Y-69850000D01*
X140842000Y-68408163D01*
X141098000Y-68408163D01*
X141098000Y-69722000D01*
X142411837Y-69722000D01*
X142411837Y-69033412D01*
X142331205Y-68732489D01*
X142183815Y-68556835D01*
X141990186Y-68445044D01*
X141781024Y-68408163D01*
X141098000Y-68408163D01*
X140842000Y-68408163D01*
X140153412Y-68408163D01*
X139852489Y-68488795D01*
X139676835Y-68636185D01*
X139565044Y-68829814D01*
X139545170Y-68942525D01*
X139532703Y-68924721D01*
X139355279Y-68747297D01*
X139149739Y-68603376D01*
X138922330Y-68497333D01*
X138679962Y-68432391D01*
X138492606Y-68416000D01*
X138367394Y-68416000D01*
X138180038Y-68432391D01*
X137937670Y-68497333D01*
X137710261Y-68603376D01*
X137524000Y-68733798D01*
X137524000Y-63417063D01*
X137498879Y-63169745D01*
X137399610Y-62852980D01*
X137238675Y-62562646D01*
X137022648Y-62310603D01*
X136760352Y-62107145D01*
X136462503Y-61960585D01*
X136141267Y-61876909D01*
X135809769Y-61859537D01*
X135481547Y-61909176D01*
X135170010Y-62023799D01*
X134887884Y-62198724D01*
X134646694Y-62426806D01*
X134617716Y-62468190D01*
X134482647Y-62310603D01*
X134220351Y-62107145D01*
X133922502Y-61960585D01*
X133601266Y-61876909D01*
X133269768Y-61859537D01*
X132941546Y-61909176D01*
X132630009Y-62023799D01*
X132347883Y-62198724D01*
X132106693Y-62426808D01*
X132077717Y-62468190D01*
X131942648Y-62310603D01*
X131680352Y-62107145D01*
X131382503Y-61960585D01*
X131061267Y-61876909D01*
X130729769Y-61859537D01*
X130401547Y-61909176D01*
X130090010Y-62023799D01*
X129807884Y-62198724D01*
X129674669Y-62324699D01*
X129533815Y-62156835D01*
X129340186Y-62045044D01*
X129131024Y-62008163D01*
X128939193Y-62008163D01*
X128842503Y-61960585D01*
X128521267Y-61876909D01*
X128189769Y-61859537D01*
X127861547Y-61909176D01*
X127592508Y-62008163D01*
X127403412Y-62008163D01*
X127102489Y-62088795D01*
X126926835Y-62236185D01*
X126815044Y-62429814D01*
X126778163Y-62638976D01*
X126778163Y-62833057D01*
X126703130Y-63006448D01*
X126636001Y-63440075D01*
X126636000Y-68733798D01*
X126449739Y-68603376D01*
X126222330Y-68497333D01*
X125858000Y-68399712D01*
X125602000Y-68399712D01*
X125237670Y-68497333D01*
X125010261Y-68603376D01*
X124804721Y-68747297D01*
X124627297Y-68924721D01*
X124483376Y-69130261D01*
X124460000Y-69180391D01*
X124436624Y-69130261D01*
X124292703Y-68924721D01*
X124115279Y-68747297D01*
X123909739Y-68603376D01*
X123682330Y-68497333D01*
X123439962Y-68432391D01*
X123252606Y-68416000D01*
X123127394Y-68416000D01*
X122940038Y-68432391D01*
X122697670Y-68497333D01*
X122470261Y-68603376D01*
X122264721Y-68747297D01*
X122087297Y-68924721D01*
X121943376Y-69130261D01*
X121837333Y-69357670D01*
X121772391Y-69600038D01*
X121750523Y-69850000D01*
X57784000Y-69850000D01*
X57784000Y-69160289D01*
X105508000Y-69160289D01*
X105872329Y-69062667D01*
X106099738Y-68956624D01*
X106305277Y-68812703D01*
X106482703Y-68635279D01*
X106626624Y-68429739D01*
X106650000Y-68379608D01*
X106673376Y-68429738D01*
X106817297Y-68635277D01*
X106994721Y-68812703D01*
X107200261Y-68956624D01*
X107427670Y-69062667D01*
X107670038Y-69127609D01*
X107920000Y-69149477D01*
X108169961Y-69127609D01*
X108412329Y-69062667D01*
X108639738Y-68956624D01*
X108845277Y-68812703D01*
X109022703Y-68635279D01*
X109166624Y-68429739D01*
X109272667Y-68202330D01*
X109337609Y-67959962D01*
X109354000Y-67772606D01*
X109354000Y-66847395D01*
X109337609Y-66660039D01*
X109272667Y-66417670D01*
X109166624Y-66190261D01*
X109022703Y-65984721D01*
X108845279Y-65807297D01*
X108639739Y-65663376D01*
X108412330Y-65557333D01*
X108169962Y-65492391D01*
X107920000Y-65470523D01*
X107670039Y-65492391D01*
X107427671Y-65557333D01*
X107200262Y-65663376D01*
X106994722Y-65807297D01*
X106817298Y-65984721D01*
X106673376Y-66190261D01*
X106650000Y-66240391D01*
X106626624Y-66190261D01*
X106482703Y-65984721D01*
X106305279Y-65807297D01*
X106099739Y-65663376D01*
X105872330Y-65557333D01*
X105508000Y-65459712D01*
X105508000Y-69160289D01*
X57784000Y-69160289D01*
X57784000Y-66847394D01*
X58226000Y-66847394D01*
X58226000Y-67772605D01*
X58242391Y-67959961D01*
X58307333Y-68202329D01*
X58413376Y-68429738D01*
X58557297Y-68635277D01*
X58734721Y-68812703D01*
X58940261Y-68956624D01*
X59167670Y-69062667D01*
X59410038Y-69127609D01*
X59660000Y-69149477D01*
X59909961Y-69127609D01*
X60152329Y-69062667D01*
X60379738Y-68956624D01*
X60585277Y-68812703D01*
X60762703Y-68635279D01*
X60906624Y-68429739D01*
X60930000Y-68379608D01*
X60953376Y-68429738D01*
X61097297Y-68635277D01*
X61274721Y-68812703D01*
X61480261Y-68956624D01*
X61707670Y-69062667D01*
X61950038Y-69127609D01*
X62200000Y-69149477D01*
X62449961Y-69127609D01*
X62692329Y-69062667D01*
X62919738Y-68956624D01*
X63125277Y-68812703D01*
X63302703Y-68635279D01*
X63446624Y-68429739D01*
X63470000Y-68379608D01*
X63493376Y-68429738D01*
X63637297Y-68635277D01*
X63814721Y-68812703D01*
X64020261Y-68956624D01*
X64247670Y-69062667D01*
X64490038Y-69127609D01*
X64740000Y-69149477D01*
X64989961Y-69127609D01*
X65232329Y-69062667D01*
X65459738Y-68956624D01*
X65665277Y-68812703D01*
X65842703Y-68635279D01*
X65986624Y-68429739D01*
X66010000Y-68379608D01*
X66033376Y-68429738D01*
X66177297Y-68635277D01*
X66354721Y-68812703D01*
X66560261Y-68956624D01*
X66787670Y-69062667D01*
X67030038Y-69127609D01*
X67280000Y-69149477D01*
X67529961Y-69127609D01*
X67772329Y-69062667D01*
X67999738Y-68956624D01*
X68205277Y-68812703D01*
X68382703Y-68635279D01*
X68526624Y-68429739D01*
X68550000Y-68379608D01*
X68573376Y-68429738D01*
X68717297Y-68635277D01*
X68894721Y-68812703D01*
X69100261Y-68956624D01*
X69327670Y-69062667D01*
X69570038Y-69127609D01*
X69820000Y-69149477D01*
X70069961Y-69127609D01*
X70312329Y-69062667D01*
X70539738Y-68956624D01*
X70745277Y-68812703D01*
X70922703Y-68635279D01*
X71066624Y-68429739D01*
X71090000Y-68379608D01*
X71113376Y-68429738D01*
X71257297Y-68635277D01*
X71434721Y-68812703D01*
X71640261Y-68956624D01*
X71867670Y-69062667D01*
X72110038Y-69127609D01*
X72360000Y-69149477D01*
X72609961Y-69127609D01*
X72852329Y-69062667D01*
X73079738Y-68956624D01*
X73285277Y-68812703D01*
X73462703Y-68635279D01*
X73606624Y-68429739D01*
X73630000Y-68379608D01*
X73653376Y-68429738D01*
X73797297Y-68635277D01*
X73974721Y-68812703D01*
X74180261Y-68956624D01*
X74407670Y-69062667D01*
X74650038Y-69127609D01*
X74900000Y-69149477D01*
X75149961Y-69127609D01*
X75392329Y-69062667D01*
X75619738Y-68956624D01*
X75825277Y-68812703D01*
X76002703Y-68635279D01*
X76146624Y-68429739D01*
X76170000Y-68379608D01*
X76193376Y-68429738D01*
X76337297Y-68635277D01*
X76514721Y-68812703D01*
X76720261Y-68956624D01*
X76947670Y-69062667D01*
X77190038Y-69127609D01*
X77440000Y-69149477D01*
X77689961Y-69127609D01*
X77932329Y-69062667D01*
X78159738Y-68956624D01*
X78365277Y-68812703D01*
X78542703Y-68635279D01*
X78686624Y-68429739D01*
X78710000Y-68379608D01*
X78733376Y-68429738D01*
X78877297Y-68635277D01*
X79054721Y-68812703D01*
X79260261Y-68956624D01*
X79487670Y-69062667D01*
X79730038Y-69127609D01*
X79980000Y-69149477D01*
X80229961Y-69127609D01*
X80472329Y-69062667D01*
X80699738Y-68956624D01*
X80905277Y-68812703D01*
X81082703Y-68635279D01*
X81226624Y-68429739D01*
X81250000Y-68379608D01*
X81273376Y-68429738D01*
X81417297Y-68635277D01*
X81594721Y-68812703D01*
X81800261Y-68956624D01*
X82027670Y-69062667D01*
X82270038Y-69127609D01*
X82520000Y-69149477D01*
X82769961Y-69127609D01*
X83012329Y-69062667D01*
X83239738Y-68956624D01*
X83445277Y-68812703D01*
X83622703Y-68635279D01*
X83766624Y-68429739D01*
X83790000Y-68379608D01*
X83813376Y-68429738D01*
X83957297Y-68635277D01*
X84134721Y-68812703D01*
X84340261Y-68956624D01*
X84567670Y-69062667D01*
X84810038Y-69127609D01*
X85060000Y-69149477D01*
X85309961Y-69127609D01*
X85552329Y-69062667D01*
X85779738Y-68956624D01*
X85985277Y-68812703D01*
X86162703Y-68635279D01*
X86306624Y-68429739D01*
X86330000Y-68379608D01*
X86353376Y-68429738D01*
X86497297Y-68635277D01*
X86674721Y-68812703D01*
X86880261Y-68956624D01*
X87107670Y-69062667D01*
X87350038Y-69127609D01*
X87600000Y-69149477D01*
X87849961Y-69127609D01*
X88092329Y-69062667D01*
X88319738Y-68956624D01*
X88525277Y-68812703D01*
X88702703Y-68635279D01*
X88846624Y-68429739D01*
X88870000Y-68379608D01*
X88893376Y-68429738D01*
X89037297Y-68635277D01*
X89214721Y-68812703D01*
X89420261Y-68956624D01*
X89647670Y-69062667D01*
X89890038Y-69127609D01*
X90140000Y-69149477D01*
X90389961Y-69127609D01*
X90632329Y-69062667D01*
X90859738Y-68956624D01*
X91065277Y-68812703D01*
X91242703Y-68635279D01*
X91386624Y-68429739D01*
X91410000Y-68379608D01*
X91433376Y-68429738D01*
X91577297Y-68635277D01*
X91754721Y-68812703D01*
X91960261Y-68956624D01*
X92187670Y-69062667D01*
X92430038Y-69127609D01*
X92680000Y-69149477D01*
X92929961Y-69127609D01*
X93172329Y-69062667D01*
X93399738Y-68956624D01*
X93605277Y-68812703D01*
X93782703Y-68635279D01*
X93926624Y-68429739D01*
X93950000Y-68379608D01*
X93973376Y-68429738D01*
X94117297Y-68635277D01*
X94294721Y-68812703D01*
X94500261Y-68956624D01*
X94727670Y-69062667D01*
X94970038Y-69127609D01*
X95220000Y-69149477D01*
X95469961Y-69127609D01*
X95712329Y-69062667D01*
X95939738Y-68956624D01*
X96145277Y-68812703D01*
X96322703Y-68635279D01*
X96466624Y-68429739D01*
X96490000Y-68379608D01*
X96513376Y-68429738D01*
X96657297Y-68635277D01*
X96834721Y-68812703D01*
X97040261Y-68956624D01*
X97267670Y-69062667D01*
X97510038Y-69127609D01*
X97760000Y-69149477D01*
X98009961Y-69127609D01*
X98252329Y-69062667D01*
X98479738Y-68956624D01*
X98685277Y-68812703D01*
X98862703Y-68635279D01*
X99006624Y-68429739D01*
X99030000Y-68379608D01*
X99053376Y-68429738D01*
X99197297Y-68635277D01*
X99374721Y-68812703D01*
X99580261Y-68956624D01*
X99807670Y-69062667D01*
X100050038Y-69127609D01*
X100300000Y-69149477D01*
X100549961Y-69127609D01*
X100792329Y-69062667D01*
X101019738Y-68956624D01*
X101225277Y-68812703D01*
X101402703Y-68635279D01*
X101546624Y-68429739D01*
X101570000Y-68379608D01*
X101593376Y-68429738D01*
X101737297Y-68635277D01*
X101914721Y-68812703D01*
X102120261Y-68956624D01*
X102347670Y-69062667D01*
X102590038Y-69127609D01*
X102840000Y-69149477D01*
X103089961Y-69127609D01*
X103332329Y-69062667D01*
X103559738Y-68956624D01*
X103765277Y-68812703D01*
X103942703Y-68635279D01*
X104086624Y-68429739D01*
X104110000Y-68379608D01*
X104133376Y-68429738D01*
X104277297Y-68635277D01*
X104454721Y-68812703D01*
X104660261Y-68956624D01*
X104887670Y-69062667D01*
X105252000Y-69160288D01*
X105252000Y-65459711D01*
X104887671Y-65557333D01*
X104660262Y-65663376D01*
X104454722Y-65807297D01*
X104277298Y-65984721D01*
X104133376Y-66190261D01*
X104110000Y-66240391D01*
X104086624Y-66190261D01*
X103942703Y-65984721D01*
X103765279Y-65807297D01*
X103559739Y-65663376D01*
X103332330Y-65557333D01*
X103089962Y-65492391D01*
X102840000Y-65470523D01*
X102590039Y-65492391D01*
X102347671Y-65557333D01*
X102120262Y-65663376D01*
X101914722Y-65807297D01*
X101737298Y-65984721D01*
X101593376Y-66190261D01*
X101570000Y-66240391D01*
X101546624Y-66190261D01*
X101402703Y-65984721D01*
X101225279Y-65807297D01*
X101019739Y-65663376D01*
X100792330Y-65557333D01*
X100549962Y-65492391D01*
X100300000Y-65470523D01*
X100050039Y-65492391D01*
X99807671Y-65557333D01*
X99580262Y-65663376D01*
X99374722Y-65807297D01*
X99197298Y-65984721D01*
X99053376Y-66190261D01*
X99030000Y-66240391D01*
X99006624Y-66190261D01*
X98862703Y-65984721D01*
X98685279Y-65807297D01*
X98479739Y-65663376D01*
X98252330Y-65557333D01*
X98009962Y-65492391D01*
X97760000Y-65470523D01*
X97510039Y-65492391D01*
X97267671Y-65557333D01*
X97040262Y-65663376D01*
X96834722Y-65807297D01*
X96657298Y-65984721D01*
X96513376Y-66190261D01*
X96490000Y-66240391D01*
X96466624Y-66190261D01*
X96322703Y-65984721D01*
X96145279Y-65807297D01*
X95939739Y-65663376D01*
X95712330Y-65557333D01*
X95469962Y-65492391D01*
X95220000Y-65470523D01*
X94970039Y-65492391D01*
X94727671Y-65557333D01*
X94500262Y-65663376D01*
X94294722Y-65807297D01*
X94117298Y-65984721D01*
X93973376Y-66190261D01*
X93950000Y-66240391D01*
X93926624Y-66190261D01*
X93782703Y-65984721D01*
X93605279Y-65807297D01*
X93399739Y-65663376D01*
X93172330Y-65557333D01*
X92929962Y-65492391D01*
X92680000Y-65470523D01*
X92430039Y-65492391D01*
X92187671Y-65557333D01*
X91960262Y-65663376D01*
X91754722Y-65807297D01*
X91577298Y-65984721D01*
X91433376Y-66190261D01*
X91410000Y-66240391D01*
X91386624Y-66190261D01*
X91242703Y-65984721D01*
X91065279Y-65807297D01*
X90859739Y-65663376D01*
X90632330Y-65557333D01*
X90389962Y-65492391D01*
X90140000Y-65470523D01*
X89890039Y-65492391D01*
X89647671Y-65557333D01*
X89420262Y-65663376D01*
X89214722Y-65807297D01*
X89037298Y-65984721D01*
X88893376Y-66190261D01*
X88870000Y-66240391D01*
X88846624Y-66190261D01*
X88702703Y-65984721D01*
X88525279Y-65807297D01*
X88319739Y-65663376D01*
X88092330Y-65557333D01*
X87849962Y-65492391D01*
X87600000Y-65470523D01*
X87350039Y-65492391D01*
X87107671Y-65557333D01*
X86880262Y-65663376D01*
X86674722Y-65807297D01*
X86497298Y-65984721D01*
X86353376Y-66190261D01*
X86330000Y-66240391D01*
X86306624Y-66190261D01*
X86162703Y-65984721D01*
X85985279Y-65807297D01*
X85779739Y-65663376D01*
X85552330Y-65557333D01*
X85309962Y-65492391D01*
X85060000Y-65470523D01*
X84810039Y-65492391D01*
X84567671Y-65557333D01*
X84340262Y-65663376D01*
X84134722Y-65807297D01*
X83957298Y-65984721D01*
X83813376Y-66190261D01*
X83790000Y-66240391D01*
X83766624Y-66190261D01*
X83622703Y-65984721D01*
X83445279Y-65807297D01*
X83239739Y-65663376D01*
X83012330Y-65557333D01*
X82769962Y-65492391D01*
X82520000Y-65470523D01*
X82270039Y-65492391D01*
X82027671Y-65557333D01*
X81800262Y-65663376D01*
X81594722Y-65807297D01*
X81417298Y-65984721D01*
X81273376Y-66190261D01*
X81250000Y-66240391D01*
X81226624Y-66190261D01*
X81082703Y-65984721D01*
X80905279Y-65807297D01*
X80699739Y-65663376D01*
X80472330Y-65557333D01*
X80229962Y-65492391D01*
X79980000Y-65470523D01*
X79730039Y-65492391D01*
X79487671Y-65557333D01*
X79260262Y-65663376D01*
X79054722Y-65807297D01*
X78877298Y-65984721D01*
X78733376Y-66190261D01*
X78710000Y-66240391D01*
X78686624Y-66190261D01*
X78542703Y-65984721D01*
X78365279Y-65807297D01*
X78159739Y-65663376D01*
X77932330Y-65557333D01*
X77689962Y-65492391D01*
X77440000Y-65470523D01*
X77190039Y-65492391D01*
X76947671Y-65557333D01*
X76720262Y-65663376D01*
X76514722Y-65807297D01*
X76337298Y-65984721D01*
X76193376Y-66190261D01*
X76170000Y-66240391D01*
X76146624Y-66190261D01*
X76002703Y-65984721D01*
X75825279Y-65807297D01*
X75619739Y-65663376D01*
X75392330Y-65557333D01*
X75149962Y-65492391D01*
X74900000Y-65470523D01*
X74650039Y-65492391D01*
X74407671Y-65557333D01*
X74180262Y-65663376D01*
X73974722Y-65807297D01*
X73797298Y-65984721D01*
X73653376Y-66190261D01*
X73630000Y-66240391D01*
X73606624Y-66190261D01*
X73462703Y-65984721D01*
X73285279Y-65807297D01*
X73079739Y-65663376D01*
X72852330Y-65557333D01*
X72609962Y-65492391D01*
X72360000Y-65470523D01*
X72110039Y-65492391D01*
X71867671Y-65557333D01*
X71640262Y-65663376D01*
X71434722Y-65807297D01*
X71257298Y-65984721D01*
X71113376Y-66190261D01*
X71090000Y-66240391D01*
X71066624Y-66190261D01*
X70922703Y-65984721D01*
X70745279Y-65807297D01*
X70539739Y-65663376D01*
X70312330Y-65557333D01*
X70069962Y-65492391D01*
X69820000Y-65470523D01*
X69570039Y-65492391D01*
X69327671Y-65557333D01*
X69100262Y-65663376D01*
X68894722Y-65807297D01*
X68717298Y-65984721D01*
X68573376Y-66190261D01*
X68550000Y-66240391D01*
X68526624Y-66190261D01*
X68382703Y-65984721D01*
X68205279Y-65807297D01*
X67999739Y-65663376D01*
X67772330Y-65557333D01*
X67529962Y-65492391D01*
X67280000Y-65470523D01*
X67030039Y-65492391D01*
X66787671Y-65557333D01*
X66560262Y-65663376D01*
X66354722Y-65807297D01*
X66177298Y-65984721D01*
X66033376Y-66190261D01*
X66010000Y-66240391D01*
X65986624Y-66190261D01*
X65842703Y-65984721D01*
X65665279Y-65807297D01*
X65459739Y-65663376D01*
X65232330Y-65557333D01*
X64989962Y-65492391D01*
X64740000Y-65470523D01*
X64490039Y-65492391D01*
X64247671Y-65557333D01*
X64020262Y-65663376D01*
X63814722Y-65807297D01*
X63637298Y-65984721D01*
X63493376Y-66190261D01*
X63470000Y-66240391D01*
X63446624Y-66190261D01*
X63302703Y-65984721D01*
X63125279Y-65807297D01*
X62919739Y-65663376D01*
X62692330Y-65557333D01*
X62449962Y-65492391D01*
X62200000Y-65470523D01*
X61950039Y-65492391D01*
X61707671Y-65557333D01*
X61480262Y-65663376D01*
X61274722Y-65807297D01*
X61097298Y-65984721D01*
X60953376Y-66190261D01*
X60930000Y-66240391D01*
X60906624Y-66190261D01*
X60762703Y-65984721D01*
X60585279Y-65807297D01*
X60379739Y-65663376D01*
X60152330Y-65557333D01*
X59909962Y-65492391D01*
X59660000Y-65470523D01*
X59410039Y-65492391D01*
X59167671Y-65557333D01*
X58940262Y-65663376D01*
X58734722Y-65807297D01*
X58557298Y-65984721D01*
X58413376Y-66190261D01*
X58307333Y-66417670D01*
X58242391Y-66660038D01*
X58226000Y-66847394D01*
X57784000Y-66847394D01*
X57784000Y-58346985D01*
X60711671Y-58346985D01*
X60723556Y-58687341D01*
X60776832Y-59023712D01*
X60870704Y-59351082D01*
X61003772Y-59664573D01*
X61174054Y-59959510D01*
X61379011Y-60231496D01*
X61615586Y-60476477D01*
X61880254Y-60690800D01*
X62169068Y-60871272D01*
X62477724Y-61015201D01*
X62801619Y-61120441D01*
X63135925Y-61185422D01*
X63475659Y-61209180D01*
X63815756Y-61191356D01*
X64151146Y-61132218D01*
X64476829Y-61032646D01*
X64787949Y-60894126D01*
X65079869Y-60718723D01*
X65348236Y-60509052D01*
X65589052Y-60268236D01*
X65798723Y-59999869D01*
X65930016Y-59781359D01*
X192372737Y-59781359D01*
X192407520Y-60066701D01*
X192484097Y-60343768D01*
X192600786Y-60606472D01*
X192755025Y-60849048D01*
X192854879Y-60964102D01*
X194128981Y-59690000D01*
X194491019Y-59690000D01*
X195768745Y-60967726D01*
X195940209Y-60740597D01*
X196077590Y-60488098D01*
X196176142Y-60218065D01*
X196234029Y-59934805D01*
X196244452Y-59549603D01*
X196201967Y-59263627D01*
X196118164Y-58988660D01*
X195994638Y-58729099D01*
X195776272Y-58404747D01*
X194491019Y-59690000D01*
X194128981Y-59690000D01*
X192848136Y-58409156D01*
X192652848Y-58682436D01*
X192522123Y-58938447D01*
X192430675Y-59210966D01*
X192380512Y-59494010D01*
X192372737Y-59781359D01*
X65930016Y-59781359D01*
X65974126Y-59707949D01*
X66112646Y-59396829D01*
X66212218Y-59071146D01*
X66271644Y-58734124D01*
X66284285Y-58251363D01*
X66281899Y-58231923D01*
X193032942Y-58231923D01*
X194310000Y-59508981D01*
X195585068Y-58233913D01*
X195416851Y-58097450D01*
X195169300Y-57951339D01*
X194902871Y-57843425D01*
X194623417Y-57776075D01*
X194337078Y-57750773D01*
X194050145Y-57768071D01*
X193768920Y-57827590D01*
X193499581Y-57928024D01*
X193248047Y-58067166D01*
X193032942Y-58231923D01*
X66281899Y-58231923D01*
X66242579Y-57911693D01*
X66160189Y-57581245D01*
X66038141Y-57263302D01*
X65878256Y-56962602D01*
X65682918Y-56683629D01*
X65455036Y-56430540D01*
X65198009Y-56207111D01*
X64915669Y-56016670D01*
X64612225Y-55862057D01*
X64292200Y-55745578D01*
X63960365Y-55668968D01*
X63621667Y-55633370D01*
X63281156Y-55639313D01*
X62943906Y-55686711D01*
X62614947Y-55774855D01*
X62299181Y-55902432D01*
X62001318Y-56067540D01*
X61725796Y-56267719D01*
X61476724Y-56499982D01*
X61257814Y-56760869D01*
X61072329Y-57046490D01*
X60923037Y-57352587D01*
X60812160Y-57674596D01*
X60741352Y-58007717D01*
X60711671Y-58346985D01*
X57784000Y-58346985D01*
X57784000Y-52704000D01*
X201296001Y-52704000D01*
X201296000Y-92076000D01*
X201296000Y-92076000D01*
G37*
X201296000Y-92076000D02*
X57784000Y-92076000D01*
X57784000Y-84627394D01*
X58226000Y-84627394D01*
X58226000Y-85552605D01*
X58242391Y-85739961D01*
X58307333Y-85982329D01*
X58413376Y-86209738D01*
X58557297Y-86415277D01*
X58734721Y-86592703D01*
X58940261Y-86736624D01*
X59167670Y-86842667D01*
X59410038Y-86907609D01*
X59660000Y-86929477D01*
X59909961Y-86907609D01*
X60152329Y-86842667D01*
X60379738Y-86736624D01*
X60585277Y-86592703D01*
X60762703Y-86415279D01*
X60906624Y-86209739D01*
X60930000Y-86159608D01*
X60953376Y-86209738D01*
X61097297Y-86415277D01*
X61274721Y-86592703D01*
X61480261Y-86736624D01*
X61707670Y-86842667D01*
X61950038Y-86907609D01*
X62200000Y-86929477D01*
X62449961Y-86907609D01*
X62692329Y-86842667D01*
X62919738Y-86736624D01*
X63125277Y-86592703D01*
X63302703Y-86415279D01*
X63446624Y-86209739D01*
X63470000Y-86159608D01*
X63493376Y-86209738D01*
X63637297Y-86415277D01*
X63814721Y-86592703D01*
X64020261Y-86736624D01*
X64247670Y-86842667D01*
X64490038Y-86907609D01*
X64740000Y-86929477D01*
X64989961Y-86907609D01*
X65232329Y-86842667D01*
X65459738Y-86736624D01*
X65665277Y-86592703D01*
X65842703Y-86415279D01*
X65986624Y-86209739D01*
X66025000Y-86127441D01*
X66063376Y-86209738D01*
X66207297Y-86415277D01*
X66384721Y-86592703D01*
X66590261Y-86736624D01*
X66817670Y-86842667D01*
X67060038Y-86907609D01*
X67310000Y-86929477D01*
X67559961Y-86907609D01*
X67802329Y-86842667D01*
X68029738Y-86736624D01*
X68235277Y-86592703D01*
X68412703Y-86415279D01*
X68556624Y-86209739D01*
X68580000Y-86159608D01*
X68603376Y-86209738D01*
X68747297Y-86415277D01*
X68924721Y-86592703D01*
X69130261Y-86736624D01*
X69357670Y-86842667D01*
X69600038Y-86907609D01*
X69850000Y-86929477D01*
X70099961Y-86907609D01*
X70342329Y-86842667D01*
X70569738Y-86736624D01*
X70775277Y-86592703D01*
X70952703Y-86415279D01*
X71096624Y-86209739D01*
X71120000Y-86159608D01*
X71143376Y-86209738D01*
X71287297Y-86415277D01*
X71464721Y-86592703D01*
X71670261Y-86736624D01*
X71897670Y-86842667D01*
X72140038Y-86907609D01*
X72390000Y-86929477D01*
X72639961Y-86907609D01*
X72882329Y-86842667D01*
X73109738Y-86736624D01*
X73315277Y-86592703D01*
X73492703Y-86415279D01*
X73636624Y-86209739D01*
X73660000Y-86159608D01*
X73683376Y-86209738D01*
X73827297Y-86415277D01*
X74004721Y-86592703D01*
X74210261Y-86736624D01*
X74437670Y-86842667D01*
X74680038Y-86907609D01*
X74930000Y-86929477D01*
X75179961Y-86907609D01*
X75422329Y-86842667D01*
X75649738Y-86736624D01*
X75855277Y-86592703D01*
X76032703Y-86415279D01*
X76176624Y-86209739D01*
X76200000Y-86159608D01*
X76223376Y-86209738D01*
X76367297Y-86415277D01*
X76544721Y-86592703D01*
X76750261Y-86736624D01*
X76977670Y-86842667D01*
X77220038Y-86907609D01*
X77470000Y-86929477D01*
X77719961Y-86907609D01*
X77962329Y-86842667D01*
X78189738Y-86736624D01*
X78395277Y-86592703D01*
X78572703Y-86415279D01*
X78716624Y-86209739D01*
X78740000Y-86159608D01*
X78763376Y-86209738D01*
X78907297Y-86415277D01*
X79084721Y-86592703D01*
X79290261Y-86736624D01*
X79517670Y-86842667D01*
X79760038Y-86907609D01*
X80010000Y-86929477D01*
X80259961Y-86907609D01*
X80502329Y-86842667D01*
X80729738Y-86736624D01*
X80935277Y-86592703D01*
X81112703Y-86415279D01*
X81256624Y-86209739D01*
X81280000Y-86159608D01*
X81303376Y-86209738D01*
X81447297Y-86415277D01*
X81624721Y-86592703D01*
X81830261Y-86736624D01*
X82057670Y-86842667D01*
X82300038Y-86907609D01*
X82550000Y-86929477D01*
X82799961Y-86907609D01*
X83042329Y-86842667D01*
X83269738Y-86736624D01*
X83475277Y-86592703D01*
X83652703Y-86415279D01*
X83796624Y-86209739D01*
X83820000Y-86159608D01*
X83843376Y-86209738D01*
X83987297Y-86415277D01*
X84164721Y-86592703D01*
X84370261Y-86736624D01*
X84597670Y-86842667D01*
X84840038Y-86907609D01*
X85090000Y-86929477D01*
X85339961Y-86907609D01*
X85582329Y-86842667D01*
X85809738Y-86736624D01*
X86015277Y-86592703D01*
X86192703Y-86415279D01*
X86336624Y-86209739D01*
X86360000Y-86159608D01*
X86383376Y-86209738D01*
X86527297Y-86415277D01*
X86704721Y-86592703D01*
X86910261Y-86736624D01*
X87137670Y-86842667D01*
X87380038Y-86907609D01*
X87630000Y-86929477D01*
X87879961Y-86907609D01*
X88122329Y-86842667D01*
X88349738Y-86736624D01*
X88555277Y-86592703D01*
X88732703Y-86415279D01*
X88876624Y-86209739D01*
X88900000Y-86159608D01*
X88923376Y-86209738D01*
X89067297Y-86415277D01*
X89244721Y-86592703D01*
X89450261Y-86736624D01*
X89677670Y-86842667D01*
X89920038Y-86907609D01*
X90170000Y-86929477D01*
X90419961Y-86907609D01*
X90662329Y-86842667D01*
X90889738Y-86736624D01*
X91095277Y-86592703D01*
X91272703Y-86415279D01*
X91416624Y-86209739D01*
X91440000Y-86159608D01*
X91463376Y-86209738D01*
X91607297Y-86415277D01*
X91784721Y-86592703D01*
X91990261Y-86736624D01*
X92217670Y-86842667D01*
X92460038Y-86907609D01*
X92710000Y-86929477D01*
X92959961Y-86907609D01*
X93202329Y-86842667D01*
X93429738Y-86736624D01*
X93635277Y-86592703D01*
X93812703Y-86415279D01*
X93956624Y-86209739D01*
X93980000Y-86159608D01*
X94003376Y-86209738D01*
X94116000Y-86370582D01*
X94116001Y-88860678D01*
X94109245Y-88959784D01*
X94127731Y-89065704D01*
X94140652Y-89172483D01*
X94151271Y-89200583D01*
X94156433Y-89230165D01*
X94199653Y-89328625D01*
X94237671Y-89429234D01*
X94254684Y-89453987D01*
X94266891Y-89481795D01*
X94327475Y-89559901D01*
X94393133Y-89655432D01*
X94471844Y-89725561D01*
X95690331Y-90944048D01*
X95755637Y-91018910D01*
X95843611Y-91080740D01*
X95928246Y-91147101D01*
X95955624Y-91159463D01*
X95980195Y-91176732D01*
X96080378Y-91215792D01*
X96178397Y-91260049D01*
X96207932Y-91265524D01*
X96236229Y-91276555D01*
X96334309Y-91288946D01*
X96448273Y-91310068D01*
X96553502Y-91304000D01*
X137120692Y-91304000D01*
X137219783Y-91310755D01*
X137325701Y-91292270D01*
X137432482Y-91279349D01*
X137460586Y-91268729D01*
X137490167Y-91263566D01*
X137588614Y-91220352D01*
X137689234Y-91182330D01*
X137713992Y-91165314D01*
X137741795Y-91153109D01*
X137819902Y-91092523D01*
X137915431Y-91026869D01*
X137985569Y-90948148D01*
X141744048Y-87189669D01*
X141818910Y-87124362D01*
X141880746Y-87036379D01*
X141947103Y-86951753D01*
X141959464Y-86924376D01*
X141976732Y-86899806D01*
X142015790Y-86799626D01*
X142060050Y-86701600D01*
X142065522Y-86672071D01*
X142076555Y-86643772D01*
X142088945Y-86545694D01*
X142110068Y-86431727D01*
X142104000Y-86326498D01*
X142104000Y-86286985D01*
X192791671Y-86286985D01*
X192803556Y-86627341D01*
X192856832Y-86963712D01*
X192950704Y-87291082D01*
X193083772Y-87604573D01*
X193254054Y-87899510D01*
X193459011Y-88171496D01*
X193695586Y-88416477D01*
X193960254Y-88630800D01*
X194249068Y-88811272D01*
X194557724Y-88955201D01*
X194881619Y-89060441D01*
X195215925Y-89125422D01*
X195555659Y-89149180D01*
X195895756Y-89131356D01*
X196231146Y-89072218D01*
X196556829Y-88972646D01*
X196867949Y-88834126D01*
X197159869Y-88658723D01*
X197428236Y-88449052D01*
X197669052Y-88208236D01*
X197878723Y-87939869D01*
X198054126Y-87647949D01*
X198192646Y-87336829D01*
X198292218Y-87011146D01*
X198351644Y-86674124D01*
X198364285Y-86191363D01*
X198322579Y-85851693D01*
X198240189Y-85521245D01*
X198118141Y-85203302D01*
X197958256Y-84902602D01*
X197762918Y-84623629D01*
X197535036Y-84370540D01*
X197278009Y-84147111D01*
X196995669Y-83956670D01*
X196692225Y-83802057D01*
X196372200Y-83685578D01*
X196040365Y-83608968D01*
X195701667Y-83573370D01*
X195361156Y-83579313D01*
X195023906Y-83626711D01*
X194694947Y-83714855D01*
X194379181Y-83842432D01*
X194081318Y-84007540D01*
X193805796Y-84207719D01*
X193556724Y-84439982D01*
X193337814Y-84700869D01*
X193152329Y-84986490D01*
X193003037Y-85292587D01*
X192892160Y-85614596D01*
X192821352Y-85947717D01*
X192791671Y-86286985D01*
X142104000Y-86286985D01*
X142104000Y-83430583D01*
X142216624Y-83269739D01*
X142322667Y-83042330D01*
X142387609Y-82799962D01*
X142409477Y-82550000D01*
X142387609Y-82300038D01*
X142322667Y-82057670D01*
X142216624Y-81830261D01*
X142072703Y-81624721D01*
X141895279Y-81447297D01*
X141689739Y-81303376D01*
X141462330Y-81197333D01*
X141219962Y-81132391D01*
X141032606Y-81116000D01*
X140907394Y-81116000D01*
X140720038Y-81132391D01*
X140477670Y-81197333D01*
X140250261Y-81303376D01*
X140044721Y-81447297D01*
X139867297Y-81624721D01*
X139723376Y-81830261D01*
X139700000Y-81880391D01*
X139676624Y-81830261D01*
X139532703Y-81624721D01*
X139355279Y-81447297D01*
X139149739Y-81303376D01*
X138922330Y-81197333D01*
X138679962Y-81132391D01*
X138492606Y-81116000D01*
X138367394Y-81116000D01*
X138180038Y-81132391D01*
X137937670Y-81197333D01*
X137710261Y-81303376D01*
X137504721Y-81447297D01*
X137327297Y-81624721D01*
X137183376Y-81830261D01*
X137160000Y-81880391D01*
X137136624Y-81830261D01*
X136992703Y-81624721D01*
X136815279Y-81447297D01*
X136609739Y-81303376D01*
X136382330Y-81197333D01*
X136139962Y-81132391D01*
X135952606Y-81116000D01*
X135827394Y-81116000D01*
X135640038Y-81132391D01*
X135397670Y-81197333D01*
X135170261Y-81303376D01*
X134964721Y-81447297D01*
X134787297Y-81624721D01*
X134643376Y-81830261D01*
X134620000Y-81880391D01*
X134596624Y-81830261D01*
X134452703Y-81624721D01*
X134275279Y-81447297D01*
X134069739Y-81303376D01*
X133842330Y-81197333D01*
X133599962Y-81132391D01*
X133412606Y-81116000D01*
X133287394Y-81116000D01*
X133100038Y-81132391D01*
X132857670Y-81197333D01*
X132630261Y-81303376D01*
X132424721Y-81447297D01*
X132247297Y-81624721D01*
X132103376Y-81830261D01*
X132080000Y-81880391D01*
X132056624Y-81830261D01*
X131912703Y-81624721D01*
X131735279Y-81447297D01*
X131529739Y-81303376D01*
X131302330Y-81197333D01*
X130938000Y-81099712D01*
X130938000Y-84000288D01*
X131302330Y-83902667D01*
X131529739Y-83796624D01*
X131735279Y-83652703D01*
X131912703Y-83475279D01*
X132056624Y-83269739D01*
X132080000Y-83219609D01*
X132103376Y-83269739D01*
X132247297Y-83475279D01*
X132424721Y-83652703D01*
X132630261Y-83796624D01*
X132857670Y-83902667D01*
X133100038Y-83967609D01*
X133287394Y-83984000D01*
X133412606Y-83984000D01*
X133599962Y-83967609D01*
X133842330Y-83902667D01*
X134069739Y-83796624D01*
X134275279Y-83652703D01*
X134452703Y-83475279D01*
X134596624Y-83269739D01*
X134620000Y-83219609D01*
X134643376Y-83269739D01*
X134787297Y-83475279D01*
X134964721Y-83652703D01*
X135170261Y-83796624D01*
X135397670Y-83902667D01*
X135640038Y-83967609D01*
X135827394Y-83984000D01*
X135952606Y-83984000D01*
X136139962Y-83967609D01*
X136382330Y-83902667D01*
X136609739Y-83796624D01*
X136815279Y-83652703D01*
X136992703Y-83475279D01*
X137136624Y-83269739D01*
X137160000Y-83219609D01*
X137183376Y-83269739D01*
X137296001Y-83430584D01*
X137296000Y-84620282D01*
X134834131Y-87082153D01*
X100213566Y-87082153D01*
X100071702Y-86940289D01*
X105538000Y-86940289D01*
X105902329Y-86842667D01*
X106129738Y-86736624D01*
X106335277Y-86592703D01*
X106512703Y-86415279D01*
X106656624Y-86209739D01*
X106680000Y-86159608D01*
X106703376Y-86209738D01*
X106847297Y-86415277D01*
X107024721Y-86592703D01*
X107230261Y-86736624D01*
X107457670Y-86842667D01*
X107700038Y-86907609D01*
X107950000Y-86929477D01*
X108199961Y-86907609D01*
X108442329Y-86842667D01*
X108669738Y-86736624D01*
X108875277Y-86592703D01*
X109052703Y-86415279D01*
X109196624Y-86209739D01*
X109302667Y-85982330D01*
X109367609Y-85739962D01*
X109384000Y-85552606D01*
X109384000Y-84627395D01*
X109367609Y-84440039D01*
X109302667Y-84197670D01*
X109196624Y-83970261D01*
X109052703Y-83764721D01*
X108875279Y-83587297D01*
X108669739Y-83443376D01*
X108442330Y-83337333D01*
X108199962Y-83272391D01*
X107950000Y-83250523D01*
X107700039Y-83272391D01*
X107457671Y-83337333D01*
X107230262Y-83443376D01*
X107024722Y-83587297D01*
X106847298Y-83764721D01*
X106703376Y-83970261D01*
X106680000Y-84020391D01*
X106656624Y-83970261D01*
X106512703Y-83764721D01*
X106335279Y-83587297D01*
X106129739Y-83443376D01*
X105902330Y-83337333D01*
X105538000Y-83239712D01*
X105538000Y-86940289D01*
X100071702Y-86940289D01*
X100024009Y-86892596D01*
X100080038Y-86907609D01*
X100330000Y-86929477D01*
X100579961Y-86907609D01*
X100822329Y-86842667D01*
X101049738Y-86736624D01*
X101255277Y-86592703D01*
X101432703Y-86415279D01*
X101576624Y-86209739D01*
X101600000Y-86159608D01*
X101623376Y-86209738D01*
X101767297Y-86415277D01*
X101944721Y-86592703D01*
X102150261Y-86736624D01*
X102377670Y-86842667D01*
X102620038Y-86907609D01*
X102870000Y-86929477D01*
X103119961Y-86907609D01*
X103362329Y-86842667D01*
X103589738Y-86736624D01*
X103795277Y-86592703D01*
X103972703Y-86415279D01*
X104116624Y-86209739D01*
X104140000Y-86159608D01*
X104163376Y-86209738D01*
X104307297Y-86415277D01*
X104484721Y-86592703D01*
X104690261Y-86736624D01*
X104917670Y-86842667D01*
X105282000Y-86940288D01*
X105282000Y-83239711D01*
X104917671Y-83337333D01*
X104690262Y-83443376D01*
X104484722Y-83587297D01*
X104307298Y-83764721D01*
X104163376Y-83970261D01*
X104140000Y-84020391D01*
X104116624Y-83970261D01*
X103972703Y-83764721D01*
X103795279Y-83587297D01*
X103589739Y-83443376D01*
X103362330Y-83337333D01*
X103119962Y-83272391D01*
X102870000Y-83250523D01*
X102620039Y-83272391D01*
X102377671Y-83337333D01*
X102150262Y-83443376D01*
X101944722Y-83587297D01*
X101767298Y-83764721D01*
X101623376Y-83970261D01*
X101600000Y-84020391D01*
X101576624Y-83970261D01*
X101464000Y-83809417D01*
X101464000Y-83359717D01*
X106219717Y-78604000D01*
X117640283Y-78604000D01*
X121766269Y-82729986D01*
X121772391Y-82799962D01*
X121837333Y-83042330D01*
X121943376Y-83269739D01*
X122087297Y-83475279D01*
X122264721Y-83652703D01*
X122470261Y-83796624D01*
X122697670Y-83902667D01*
X122940038Y-83967609D01*
X123127394Y-83984000D01*
X123252606Y-83984000D01*
X123439962Y-83967609D01*
X123682330Y-83902667D01*
X123909739Y-83796624D01*
X124115279Y-83652703D01*
X124292703Y-83475279D01*
X124436624Y-83269739D01*
X124460000Y-83219609D01*
X124483376Y-83269739D01*
X124627297Y-83475279D01*
X124804721Y-83652703D01*
X125010261Y-83796624D01*
X125237670Y-83902667D01*
X125602000Y-84000288D01*
X125602000Y-81099712D01*
X125858000Y-81099712D01*
X125858000Y-84000288D01*
X126222330Y-83902667D01*
X126449739Y-83796624D01*
X126655279Y-83652703D01*
X126832703Y-83475279D01*
X126976624Y-83269739D01*
X127000000Y-83219609D01*
X127023376Y-83269739D01*
X127167297Y-83475279D01*
X127344721Y-83652703D01*
X127550261Y-83796624D01*
X127777670Y-83902667D01*
X128142000Y-84000288D01*
X128142000Y-81099712D01*
X128398000Y-81099712D01*
X128398000Y-84000288D01*
X128762330Y-83902667D01*
X128989739Y-83796624D01*
X129195279Y-83652703D01*
X129372703Y-83475279D01*
X129516624Y-83269739D01*
X129540000Y-83219609D01*
X129563376Y-83269739D01*
X129707297Y-83475279D01*
X129884721Y-83652703D01*
X130090261Y-83796624D01*
X130317670Y-83902667D01*
X130682000Y-84000288D01*
X130682000Y-81099712D01*
X130317670Y-81197333D01*
X130090261Y-81303376D01*
X129884721Y-81447297D01*
X129707297Y-81624721D01*
X129563376Y-81830261D01*
X129540000Y-81880391D01*
X129516624Y-81830261D01*
X129372703Y-81624721D01*
X129195279Y-81447297D01*
X128989739Y-81303376D01*
X128762330Y-81197333D01*
X128398000Y-81099712D01*
X128142000Y-81099712D01*
X127777670Y-81197333D01*
X127550261Y-81303376D01*
X127344721Y-81447297D01*
X127167297Y-81624721D01*
X127023376Y-81830261D01*
X127000000Y-81880391D01*
X126976624Y-81830261D01*
X126832703Y-81624721D01*
X126655279Y-81447297D01*
X126449739Y-81303376D01*
X126222330Y-81197333D01*
X125858000Y-81099712D01*
X125602000Y-81099712D01*
X125237670Y-81197333D01*
X125010261Y-81303376D01*
X124804721Y-81447297D01*
X124627297Y-81624721D01*
X124483376Y-81830261D01*
X124460000Y-81880391D01*
X124436624Y-81830261D01*
X124292703Y-81624721D01*
X124115279Y-81447297D01*
X123909739Y-81303376D01*
X123682330Y-81197333D01*
X123439962Y-81132391D01*
X123369986Y-81126269D01*
X121499632Y-79255916D01*
X121499626Y-79255908D01*
X120847717Y-78604000D01*
X150660283Y-78604000D01*
X154786269Y-82729986D01*
X154792391Y-82799962D01*
X154857333Y-83042330D01*
X154963376Y-83269739D01*
X155107297Y-83475279D01*
X155284721Y-83652703D01*
X155490261Y-83796624D01*
X155717670Y-83902667D01*
X155960038Y-83967609D01*
X156147394Y-83984000D01*
X156272606Y-83984000D01*
X156459962Y-83967609D01*
X156702330Y-83902667D01*
X156929739Y-83796624D01*
X157135279Y-83652703D01*
X157312703Y-83475279D01*
X157456624Y-83269739D01*
X157480000Y-83219609D01*
X157503376Y-83269739D01*
X157647297Y-83475279D01*
X157824721Y-83652703D01*
X158030261Y-83796624D01*
X158257670Y-83902667D01*
X158622000Y-84000288D01*
X158622000Y-81099712D01*
X158878000Y-81099712D01*
X158878000Y-84000288D01*
X159242330Y-83902667D01*
X159469739Y-83796624D01*
X159675279Y-83652703D01*
X159852703Y-83475279D01*
X159996624Y-83269739D01*
X160020000Y-83219609D01*
X160043376Y-83269739D01*
X160187297Y-83475279D01*
X160364721Y-83652703D01*
X160570261Y-83796624D01*
X160797670Y-83902667D01*
X161162000Y-84000288D01*
X161162000Y-81099712D01*
X161418000Y-81099712D01*
X161418000Y-84000288D01*
X161782330Y-83902667D01*
X162009739Y-83796624D01*
X162215279Y-83652703D01*
X162392703Y-83475279D01*
X162536624Y-83269739D01*
X162560000Y-83219609D01*
X162583376Y-83269739D01*
X162727297Y-83475279D01*
X162904721Y-83652703D01*
X163110261Y-83796624D01*
X163337670Y-83902667D01*
X163702000Y-84000288D01*
X163958000Y-84000288D01*
X164322330Y-83902667D01*
X164549739Y-83796624D01*
X164755279Y-83652703D01*
X164932703Y-83475279D01*
X165076624Y-83269739D01*
X165100000Y-83219609D01*
X165123376Y-83269739D01*
X165267297Y-83475279D01*
X165444721Y-83652703D01*
X165650261Y-83796624D01*
X165877670Y-83902667D01*
X166120038Y-83967609D01*
X166307394Y-83984000D01*
X166432606Y-83984000D01*
X166619962Y-83967609D01*
X166862330Y-83902667D01*
X167089739Y-83796624D01*
X167295279Y-83652703D01*
X167472703Y-83475279D01*
X167616624Y-83269739D01*
X167640000Y-83219609D01*
X167663376Y-83269739D01*
X167807297Y-83475279D01*
X167984721Y-83652703D01*
X168190261Y-83796624D01*
X168417670Y-83902667D01*
X168660038Y-83967609D01*
X168847394Y-83984000D01*
X168972606Y-83984000D01*
X169159962Y-83967609D01*
X169402330Y-83902667D01*
X169629739Y-83796624D01*
X169835279Y-83652703D01*
X170012703Y-83475279D01*
X170156624Y-83269739D01*
X170180000Y-83219609D01*
X170203376Y-83269739D01*
X170347297Y-83475279D01*
X170524721Y-83652703D01*
X170730261Y-83796624D01*
X170957670Y-83902667D01*
X171200038Y-83967609D01*
X171387394Y-83984000D01*
X171512606Y-83984000D01*
X171699962Y-83967609D01*
X171942330Y-83902667D01*
X172169739Y-83796624D01*
X172375279Y-83652703D01*
X172552703Y-83475279D01*
X172696624Y-83269739D01*
X172720000Y-83219609D01*
X172743376Y-83269739D01*
X172887297Y-83475279D01*
X173064721Y-83652703D01*
X173270261Y-83796624D01*
X173497670Y-83902667D01*
X173740038Y-83967609D01*
X173927394Y-83984000D01*
X174052606Y-83984000D01*
X174239962Y-83967609D01*
X174482330Y-83902667D01*
X174709739Y-83796624D01*
X174915279Y-83652703D01*
X175092703Y-83475279D01*
X175236624Y-83269739D01*
X175342667Y-83042330D01*
X175407609Y-82799962D01*
X175429477Y-82550000D01*
X175407609Y-82300038D01*
X175342667Y-82057670D01*
X175236624Y-81830261D01*
X175092703Y-81624721D01*
X174915279Y-81447297D01*
X174709739Y-81303376D01*
X174482330Y-81197333D01*
X174239962Y-81132391D01*
X174052606Y-81116000D01*
X173927394Y-81116000D01*
X173740038Y-81132391D01*
X173497670Y-81197333D01*
X173270261Y-81303376D01*
X173064721Y-81447297D01*
X172887297Y-81624721D01*
X172743376Y-81830261D01*
X172720000Y-81880391D01*
X172696624Y-81830261D01*
X172552703Y-81624721D01*
X172375279Y-81447297D01*
X172169739Y-81303376D01*
X171942330Y-81197333D01*
X171699962Y-81132391D01*
X171512606Y-81116000D01*
X171387394Y-81116000D01*
X171200038Y-81132391D01*
X170957670Y-81197333D01*
X170730261Y-81303376D01*
X170524721Y-81447297D01*
X170347297Y-81624721D01*
X170203376Y-81830261D01*
X170180000Y-81880391D01*
X170156624Y-81830261D01*
X170012703Y-81624721D01*
X169835279Y-81447297D01*
X169629739Y-81303376D01*
X169402330Y-81197333D01*
X169159962Y-81132391D01*
X168972606Y-81116000D01*
X168847394Y-81116000D01*
X168660038Y-81132391D01*
X168417670Y-81197333D01*
X168190261Y-81303376D01*
X167984721Y-81447297D01*
X167807297Y-81624721D01*
X167663376Y-81830261D01*
X167640000Y-81880391D01*
X167616624Y-81830261D01*
X167472703Y-81624721D01*
X167295279Y-81447297D01*
X167089739Y-81303376D01*
X166862330Y-81197333D01*
X166619962Y-81132391D01*
X166432606Y-81116000D01*
X166307394Y-81116000D01*
X166120038Y-81132391D01*
X165877670Y-81197333D01*
X165650261Y-81303376D01*
X165444721Y-81447297D01*
X165267297Y-81624721D01*
X165123376Y-81830261D01*
X165100000Y-81880391D01*
X165076624Y-81830261D01*
X164932703Y-81624721D01*
X164755279Y-81447297D01*
X164549739Y-81303376D01*
X164322330Y-81197333D01*
X163958000Y-81099712D01*
X163958000Y-84000288D01*
X163702000Y-84000288D01*
X163702000Y-81099712D01*
X163337670Y-81197333D01*
X163110261Y-81303376D01*
X162904721Y-81447297D01*
X162727297Y-81624721D01*
X162583376Y-81830261D01*
X162560000Y-81880391D01*
X162536624Y-81830261D01*
X162392703Y-81624721D01*
X162215279Y-81447297D01*
X162009739Y-81303376D01*
X161782330Y-81197333D01*
X161418000Y-81099712D01*
X161162000Y-81099712D01*
X160797670Y-81197333D01*
X160570261Y-81303376D01*
X160364721Y-81447297D01*
X160187297Y-81624721D01*
X160043376Y-81830261D01*
X160020000Y-81880391D01*
X159996624Y-81830261D01*
X159852703Y-81624721D01*
X159675279Y-81447297D01*
X159469739Y-81303376D01*
X159242330Y-81197333D01*
X158878000Y-81099712D01*
X158622000Y-81099712D01*
X158257670Y-81197333D01*
X158030261Y-81303376D01*
X157824721Y-81447297D01*
X157647297Y-81624721D01*
X157503376Y-81830261D01*
X157480000Y-81880391D01*
X157456624Y-81830261D01*
X157312703Y-81624721D01*
X157135279Y-81447297D01*
X156929739Y-81303376D01*
X156702330Y-81197333D01*
X156459962Y-81132391D01*
X156389987Y-81126269D01*
X151959676Y-76695960D01*
X151894363Y-76621090D01*
X151806380Y-76559254D01*
X151721754Y-76492899D01*
X151694378Y-76480538D01*
X151669804Y-76463268D01*
X151569615Y-76424205D01*
X151471600Y-76379950D01*
X151442071Y-76374478D01*
X151413772Y-76363445D01*
X151315693Y-76351055D01*
X151201726Y-76329932D01*
X151096497Y-76336000D01*
X118214465Y-76336000D01*
X118181726Y-76329932D01*
X118076497Y-76336000D01*
X105789317Y-76336000D01*
X105690215Y-76329244D01*
X105584283Y-76347732D01*
X105477517Y-76360651D01*
X105449413Y-76371271D01*
X105419832Y-76376434D01*
X105321390Y-76419647D01*
X105220766Y-76457670D01*
X105196008Y-76474686D01*
X105168205Y-76486891D01*
X105090098Y-76547477D01*
X104994569Y-76613131D01*
X104924431Y-76691852D01*
X99555953Y-82060331D01*
X99481091Y-82125637D01*
X99419264Y-82213607D01*
X99352899Y-82298246D01*
X99340537Y-82325624D01*
X99323268Y-82350196D01*
X99284209Y-82450377D01*
X99239950Y-82548400D01*
X99234477Y-82577936D01*
X99223446Y-82606228D01*
X99211058Y-82704291D01*
X99189932Y-82818274D01*
X99196001Y-82923519D01*
X99196001Y-83809418D01*
X99083376Y-83970261D01*
X99060000Y-84020391D01*
X99036624Y-83970261D01*
X98892703Y-83764721D01*
X98715279Y-83587297D01*
X98509739Y-83443376D01*
X98282330Y-83337333D01*
X98039962Y-83272391D01*
X97790000Y-83250523D01*
X97540039Y-83272391D01*
X97297671Y-83337333D01*
X97070262Y-83443376D01*
X96864722Y-83587297D01*
X96687298Y-83764721D01*
X96543376Y-83970261D01*
X96520000Y-84020391D01*
X96496624Y-83970261D01*
X96352703Y-83764721D01*
X96175279Y-83587297D01*
X95969739Y-83443376D01*
X95742330Y-83337333D01*
X95499962Y-83272391D01*
X95250000Y-83250523D01*
X95000039Y-83272391D01*
X94757671Y-83337333D01*
X94530262Y-83443376D01*
X94324722Y-83587297D01*
X94147298Y-83764721D01*
X94003376Y-83970261D01*
X93980000Y-84020391D01*
X93956624Y-83970261D01*
X93812703Y-83764721D01*
X93635279Y-83587297D01*
X93429739Y-83443376D01*
X93202330Y-83337333D01*
X92959962Y-83272391D01*
X92710000Y-83250523D01*
X92460039Y-83272391D01*
X92217671Y-83337333D01*
X91990262Y-83443376D01*
X91784722Y-83587297D01*
X91607298Y-83764721D01*
X91463376Y-83970261D01*
X91440000Y-84020391D01*
X91416624Y-83970261D01*
X91272703Y-83764721D01*
X91095279Y-83587297D01*
X90889739Y-83443376D01*
X90662330Y-83337333D01*
X90419962Y-83272391D01*
X90170000Y-83250523D01*
X89920039Y-83272391D01*
X89677671Y-83337333D01*
X89450262Y-83443376D01*
X89244722Y-83587297D01*
X89067298Y-83764721D01*
X88923376Y-83970261D01*
X88900000Y-84020391D01*
X88876624Y-83970261D01*
X88732703Y-83764721D01*
X88555279Y-83587297D01*
X88349739Y-83443376D01*
X88122330Y-83337333D01*
X87879962Y-83272391D01*
X87630000Y-83250523D01*
X87380039Y-83272391D01*
X87137671Y-83337333D01*
X86910262Y-83443376D01*
X86704722Y-83587297D01*
X86527298Y-83764721D01*
X86383376Y-83970261D01*
X86360000Y-84020391D01*
X86336624Y-83970261D01*
X86192703Y-83764721D01*
X86015279Y-83587297D01*
X85809739Y-83443376D01*
X85582330Y-83337333D01*
X85339962Y-83272391D01*
X85090000Y-83250523D01*
X84840039Y-83272391D01*
X84597671Y-83337333D01*
X84370262Y-83443376D01*
X84164722Y-83587297D01*
X83987298Y-83764721D01*
X83843376Y-83970261D01*
X83820000Y-84020391D01*
X83796624Y-83970261D01*
X83652703Y-83764721D01*
X83475279Y-83587297D01*
X83269739Y-83443376D01*
X83042330Y-83337333D01*
X82799962Y-83272391D01*
X82550000Y-83250523D01*
X82300039Y-83272391D01*
X82057671Y-83337333D01*
X81830262Y-83443376D01*
X81624722Y-83587297D01*
X81447298Y-83764721D01*
X81303376Y-83970261D01*
X81280000Y-84020391D01*
X81256624Y-83970261D01*
X81112703Y-83764721D01*
X80935279Y-83587297D01*
X80729739Y-83443376D01*
X80502330Y-83337333D01*
X80259962Y-83272391D01*
X80010000Y-83250523D01*
X79760039Y-83272391D01*
X79517671Y-83337333D01*
X79290262Y-83443376D01*
X79084722Y-83587297D01*
X78907298Y-83764721D01*
X78763376Y-83970261D01*
X78740000Y-84020391D01*
X78716624Y-83970261D01*
X78572703Y-83764721D01*
X78395279Y-83587297D01*
X78189739Y-83443376D01*
X77962330Y-83337333D01*
X77719962Y-83272391D01*
X77470000Y-83250523D01*
X77220039Y-83272391D01*
X76977671Y-83337333D01*
X76750262Y-83443376D01*
X76544722Y-83587297D01*
X76367298Y-83764721D01*
X76223376Y-83970261D01*
X76200000Y-84020391D01*
X76176624Y-83970261D01*
X76032703Y-83764721D01*
X75855279Y-83587297D01*
X75649739Y-83443376D01*
X75422330Y-83337333D01*
X75179962Y-83272391D01*
X74930000Y-83250523D01*
X74680039Y-83272391D01*
X74437671Y-83337333D01*
X74210262Y-83443376D01*
X74004722Y-83587297D01*
X73827298Y-83764721D01*
X73683376Y-83970261D01*
X73660000Y-84020391D01*
X73636624Y-83970261D01*
X73492703Y-83764721D01*
X73315279Y-83587297D01*
X73109739Y-83443376D01*
X72882330Y-83337333D01*
X72639962Y-83272391D01*
X72390000Y-83250523D01*
X72140039Y-83272391D01*
X71897671Y-83337333D01*
X71670262Y-83443376D01*
X71464722Y-83587297D01*
X71287298Y-83764721D01*
X71143376Y-83970261D01*
X71120000Y-84020391D01*
X71096624Y-83970261D01*
X70952703Y-83764721D01*
X70775279Y-83587297D01*
X70569739Y-83443376D01*
X70342330Y-83337333D01*
X70099962Y-83272391D01*
X69850000Y-83250523D01*
X69600039Y-83272391D01*
X69357671Y-83337333D01*
X69130262Y-83443376D01*
X68924722Y-83587297D01*
X68747298Y-83764721D01*
X68603376Y-83970261D01*
X68580000Y-84020391D01*
X68556624Y-83970261D01*
X68412703Y-83764721D01*
X68235279Y-83587297D01*
X68029739Y-83443376D01*
X67802330Y-83337333D01*
X67559962Y-83272391D01*
X67310000Y-83250523D01*
X67060039Y-83272391D01*
X66817671Y-83337333D01*
X66590262Y-83443376D01*
X66384722Y-83587297D01*
X66207298Y-83764721D01*
X66063376Y-83970261D01*
X66025000Y-84052558D01*
X65986624Y-83970261D01*
X65842703Y-83764721D01*
X65665279Y-83587297D01*
X65459739Y-83443376D01*
X65232330Y-83337333D01*
X64989962Y-83272391D01*
X64740000Y-83250523D01*
X64490039Y-83272391D01*
X64247671Y-83337333D01*
X64020262Y-83443376D01*
X63814722Y-83587297D01*
X63637298Y-83764721D01*
X63493376Y-83970261D01*
X63470000Y-84020391D01*
X63446624Y-83970261D01*
X63302703Y-83764721D01*
X63125279Y-83587297D01*
X62919739Y-83443376D01*
X62692330Y-83337333D01*
X62449962Y-83272391D01*
X62200000Y-83250523D01*
X61950039Y-83272391D01*
X61707671Y-83337333D01*
X61480262Y-83443376D01*
X61274722Y-83587297D01*
X61097298Y-83764721D01*
X60953376Y-83970261D01*
X60930000Y-84020391D01*
X60906624Y-83970261D01*
X60762703Y-83764721D01*
X60585279Y-83587297D01*
X60379739Y-83443376D01*
X60152330Y-83337333D01*
X59909962Y-83272391D01*
X59660000Y-83250523D01*
X59410039Y-83272391D01*
X59167671Y-83337333D01*
X58940262Y-83443376D01*
X58734722Y-83587297D01*
X58557298Y-83764721D01*
X58413376Y-83970261D01*
X58307333Y-84197670D01*
X58242391Y-84440038D01*
X58226000Y-84627394D01*
X57784000Y-84627394D01*
X57784000Y-69850000D01*
X121750523Y-69850000D01*
X121772391Y-70099962D01*
X121837333Y-70342330D01*
X121943376Y-70569739D01*
X122087297Y-70775279D01*
X122264721Y-70952703D01*
X122470261Y-71096624D01*
X122697670Y-71202667D01*
X122940038Y-71267609D01*
X123127394Y-71284000D01*
X123252606Y-71284000D01*
X123439962Y-71267609D01*
X123682330Y-71202667D01*
X123909739Y-71096624D01*
X124115279Y-70952703D01*
X124292703Y-70775279D01*
X124436624Y-70569739D01*
X124460000Y-70519609D01*
X124483376Y-70569739D01*
X124627297Y-70775279D01*
X124804721Y-70952703D01*
X125010261Y-71096624D01*
X125237670Y-71202667D01*
X125602000Y-71300288D01*
X125602000Y-68399712D01*
X125858000Y-68399712D01*
X125858000Y-71300288D01*
X126222330Y-71202667D01*
X126449739Y-71096624D01*
X126655279Y-70952703D01*
X126832703Y-70775279D01*
X126878432Y-70709972D01*
X126921325Y-70787353D01*
X127137352Y-71039397D01*
X127399648Y-71242855D01*
X127697497Y-71389415D01*
X128018733Y-71473091D01*
X128350231Y-71490463D01*
X128678453Y-71440824D01*
X128989990Y-71326201D01*
X129272116Y-71151276D01*
X129513307Y-70923194D01*
X129542284Y-70881810D01*
X129677352Y-71039397D01*
X129939648Y-71242855D01*
X130237497Y-71389415D01*
X130558733Y-71473091D01*
X130890231Y-71490463D01*
X131218453Y-71440824D01*
X131529990Y-71326201D01*
X131812116Y-71151276D01*
X132053307Y-70923194D01*
X132082285Y-70881810D01*
X132217353Y-71039397D01*
X132479649Y-71242855D01*
X132777498Y-71389415D01*
X133098734Y-71473091D01*
X133430232Y-71490463D01*
X133758454Y-71440824D01*
X134069991Y-71326201D01*
X134352117Y-71151276D01*
X134593307Y-70923194D01*
X134622284Y-70881810D01*
X134757352Y-71039397D01*
X135019648Y-71242855D01*
X135317497Y-71389415D01*
X135638733Y-71473091D01*
X135970231Y-71490463D01*
X136298453Y-71440824D01*
X136609990Y-71326201D01*
X136892116Y-71151276D01*
X137133307Y-70923194D01*
X137282088Y-70710713D01*
X137327297Y-70775279D01*
X137504721Y-70952703D01*
X137710261Y-71096624D01*
X137937670Y-71202667D01*
X138180038Y-71267609D01*
X138367394Y-71284000D01*
X138492606Y-71284000D01*
X138679962Y-71267609D01*
X138922330Y-71202667D01*
X139149739Y-71096624D01*
X139355279Y-70952703D01*
X139532703Y-70775279D01*
X139550483Y-70749887D01*
X139608795Y-70967512D01*
X139756185Y-71143165D01*
X139949814Y-71254956D01*
X140158976Y-71291837D01*
X140842000Y-71291837D01*
X140842000Y-69978000D01*
X141098000Y-69978000D01*
X141098000Y-71291837D01*
X141786588Y-71291837D01*
X142087512Y-71211205D01*
X142263165Y-71063815D01*
X142374956Y-70870186D01*
X142411837Y-70661024D01*
X142411837Y-69978000D01*
X141098000Y-69978000D01*
X140842000Y-69978000D01*
X140842000Y-69850000D01*
X154770523Y-69850000D01*
X154792391Y-70099962D01*
X154857333Y-70342330D01*
X154963376Y-70569739D01*
X155107297Y-70775279D01*
X155284721Y-70952703D01*
X155490261Y-71096624D01*
X155717670Y-71202667D01*
X155960038Y-71267609D01*
X156147394Y-71284000D01*
X156272606Y-71284000D01*
X156459962Y-71267609D01*
X156702330Y-71202667D01*
X156929739Y-71096624D01*
X157135279Y-70952703D01*
X157312703Y-70775279D01*
X157456624Y-70569739D01*
X157480000Y-70519609D01*
X157503376Y-70569739D01*
X157647297Y-70775279D01*
X157824721Y-70952703D01*
X158030261Y-71096624D01*
X158257670Y-71202667D01*
X158622000Y-71300288D01*
X158622000Y-68399712D01*
X158878000Y-68399712D01*
X158878000Y-71300288D01*
X159242330Y-71202667D01*
X159469739Y-71096624D01*
X159675279Y-70952703D01*
X159852703Y-70775279D01*
X159898432Y-70709972D01*
X159941325Y-70787353D01*
X160157352Y-71039397D01*
X160419648Y-71242855D01*
X160717497Y-71389415D01*
X161038733Y-71473091D01*
X161370231Y-71490463D01*
X161698453Y-71440824D01*
X162009990Y-71326201D01*
X162292116Y-71151276D01*
X162533307Y-70923194D01*
X162562285Y-70881810D01*
X162697353Y-71039397D01*
X162959649Y-71242855D01*
X163257498Y-71389415D01*
X163578734Y-71473091D01*
X163910232Y-71490463D01*
X164238454Y-71440824D01*
X164549991Y-71326201D01*
X164832117Y-71151276D01*
X165073307Y-70923194D01*
X165102284Y-70881810D01*
X165237352Y-71039397D01*
X165499648Y-71242855D01*
X165797497Y-71389415D01*
X166118733Y-71473091D01*
X166450231Y-71490463D01*
X166778453Y-71440824D01*
X167089990Y-71326201D01*
X167372116Y-71151276D01*
X167613307Y-70923194D01*
X167642285Y-70881810D01*
X167777353Y-71039397D01*
X168039649Y-71242855D01*
X168337498Y-71389415D01*
X168658734Y-71473091D01*
X168990232Y-71490463D01*
X169318454Y-71440824D01*
X169629991Y-71326201D01*
X169912117Y-71151276D01*
X170153307Y-70923194D01*
X170302088Y-70710713D01*
X170347297Y-70775279D01*
X170524721Y-70952703D01*
X170730261Y-71096624D01*
X170957670Y-71202667D01*
X171200038Y-71267609D01*
X171387394Y-71284000D01*
X171512606Y-71284000D01*
X171699962Y-71267609D01*
X171942330Y-71202667D01*
X172169739Y-71096624D01*
X172375279Y-70952703D01*
X172552703Y-70775279D01*
X172570483Y-70749887D01*
X172628795Y-70967512D01*
X172776185Y-71143165D01*
X172969814Y-71254956D01*
X173178976Y-71291837D01*
X173862000Y-71291837D01*
X173862000Y-69978000D01*
X174118000Y-69978000D01*
X174118000Y-71291837D01*
X174806588Y-71291837D01*
X175107512Y-71211205D01*
X175283165Y-71063815D01*
X175394956Y-70870186D01*
X175431837Y-70661024D01*
X175431837Y-69978000D01*
X174118000Y-69978000D01*
X173862000Y-69978000D01*
X173862000Y-68408163D01*
X174118000Y-68408163D01*
X174118000Y-69722000D01*
X175431837Y-69722000D01*
X175431837Y-69033412D01*
X175351205Y-68732489D01*
X175203815Y-68556835D01*
X175010186Y-68445044D01*
X174801024Y-68408163D01*
X174118000Y-68408163D01*
X173862000Y-68408163D01*
X173173412Y-68408163D01*
X172872489Y-68488795D01*
X172696835Y-68636185D01*
X172585044Y-68829814D01*
X172565170Y-68942525D01*
X172552703Y-68924721D01*
X172375279Y-68747297D01*
X172169739Y-68603376D01*
X171942330Y-68497333D01*
X171699962Y-68432391D01*
X171512606Y-68416000D01*
X171387394Y-68416000D01*
X171200038Y-68432391D01*
X170957670Y-68497333D01*
X170730261Y-68603376D01*
X170544000Y-68733798D01*
X170544000Y-63417063D01*
X170518879Y-63169745D01*
X170419610Y-62852980D01*
X170379910Y-62781359D01*
X187672737Y-62781359D01*
X187707520Y-63066701D01*
X187784097Y-63343768D01*
X187900786Y-63606472D01*
X188055023Y-63849044D01*
X188243421Y-64066153D01*
X188461840Y-64253031D01*
X188705482Y-64405571D01*
X188968995Y-64520423D01*
X189246590Y-64595064D01*
X189532168Y-64627854D01*
X189819455Y-64618072D01*
X190102143Y-64565935D01*
X190374018Y-64472586D01*
X190554224Y-64378976D01*
X192368163Y-64378976D01*
X192368163Y-67006588D01*
X192448795Y-67307512D01*
X192596185Y-67483165D01*
X192789814Y-67594956D01*
X192998976Y-67631837D01*
X195626588Y-67631837D01*
X195927512Y-67551205D01*
X196103165Y-67403815D01*
X196214956Y-67210186D01*
X196251837Y-67001024D01*
X196251837Y-64373412D01*
X196171205Y-64072489D01*
X196023815Y-63896835D01*
X195830186Y-63785044D01*
X195621024Y-63748163D01*
X192993412Y-63748163D01*
X192692489Y-63828795D01*
X192516835Y-63976185D01*
X192405044Y-64169814D01*
X192368163Y-64378976D01*
X190554224Y-64378976D01*
X190629108Y-64340077D01*
X190861811Y-64171319D01*
X191067014Y-63970018D01*
X191240208Y-63740597D01*
X191377590Y-63488098D01*
X191476142Y-63218065D01*
X191534029Y-62934805D01*
X191544452Y-62549603D01*
X191501967Y-62263627D01*
X191418164Y-61988660D01*
X191294638Y-61729099D01*
X191134104Y-61490649D01*
X190940087Y-61278546D01*
X190775721Y-61145207D01*
X193035812Y-61145207D01*
X193161841Y-61253032D01*
X193405482Y-61405571D01*
X193668995Y-61520423D01*
X193946590Y-61595064D01*
X194232168Y-61627854D01*
X194519455Y-61618072D01*
X194802143Y-61565935D01*
X195074018Y-61472586D01*
X195329108Y-61340077D01*
X195589917Y-61150936D01*
X194310000Y-59871019D01*
X193035812Y-61145207D01*
X190775721Y-61145207D01*
X190716851Y-61097450D01*
X190469300Y-60951339D01*
X190202871Y-60843425D01*
X189923417Y-60776075D01*
X189637078Y-60750773D01*
X189350145Y-60768071D01*
X189068920Y-60827590D01*
X188799581Y-60928024D01*
X188548047Y-61067166D01*
X188319841Y-61241957D01*
X188119978Y-61448561D01*
X187952848Y-61682436D01*
X187822123Y-61938447D01*
X187730675Y-62210966D01*
X187680512Y-62494010D01*
X187672737Y-62781359D01*
X170379910Y-62781359D01*
X170258675Y-62562646D01*
X170042647Y-62310603D01*
X169780351Y-62107145D01*
X169482502Y-61960585D01*
X169161266Y-61876909D01*
X168829768Y-61859537D01*
X168501546Y-61909176D01*
X168190009Y-62023799D01*
X167907883Y-62198724D01*
X167666693Y-62426808D01*
X167637717Y-62468190D01*
X167502648Y-62310603D01*
X167240352Y-62107145D01*
X166942503Y-61960585D01*
X166621267Y-61876909D01*
X166289769Y-61859537D01*
X165961547Y-61909176D01*
X165650010Y-62023799D01*
X165367884Y-62198724D01*
X165126694Y-62426806D01*
X165097716Y-62468190D01*
X164962647Y-62310603D01*
X164700351Y-62107145D01*
X164402502Y-61960585D01*
X164081266Y-61876909D01*
X163749768Y-61859537D01*
X163421546Y-61909176D01*
X163110009Y-62023799D01*
X162827883Y-62198724D01*
X162694669Y-62324699D01*
X162553815Y-62156835D01*
X162360186Y-62045044D01*
X162151024Y-62008163D01*
X161959193Y-62008163D01*
X161862503Y-61960585D01*
X161541267Y-61876909D01*
X161209769Y-61859537D01*
X160881547Y-61909176D01*
X160612508Y-62008163D01*
X160423412Y-62008163D01*
X160122489Y-62088795D01*
X159946835Y-62236185D01*
X159835044Y-62429814D01*
X159798163Y-62638976D01*
X159798163Y-62833057D01*
X159723130Y-63006448D01*
X159656001Y-63440075D01*
X159656000Y-68733798D01*
X159469739Y-68603376D01*
X159242330Y-68497333D01*
X158878000Y-68399712D01*
X158622000Y-68399712D01*
X158257670Y-68497333D01*
X158030261Y-68603376D01*
X157824721Y-68747297D01*
X157647297Y-68924721D01*
X157503376Y-69130261D01*
X157480000Y-69180391D01*
X157456624Y-69130261D01*
X157312703Y-68924721D01*
X157135279Y-68747297D01*
X156929739Y-68603376D01*
X156702330Y-68497333D01*
X156459962Y-68432391D01*
X156272606Y-68416000D01*
X156147394Y-68416000D01*
X155960038Y-68432391D01*
X155717670Y-68497333D01*
X155490261Y-68603376D01*
X155284721Y-68747297D01*
X155107297Y-68924721D01*
X154963376Y-69130261D01*
X154857333Y-69357670D01*
X154792391Y-69600038D01*
X154770523Y-69850000D01*
X140842000Y-69850000D01*
X140842000Y-68408163D01*
X141098000Y-68408163D01*
X141098000Y-69722000D01*
X142411837Y-69722000D01*
X142411837Y-69033412D01*
X142331205Y-68732489D01*
X142183815Y-68556835D01*
X141990186Y-68445044D01*
X141781024Y-68408163D01*
X141098000Y-68408163D01*
X140842000Y-68408163D01*
X140153412Y-68408163D01*
X139852489Y-68488795D01*
X139676835Y-68636185D01*
X139565044Y-68829814D01*
X139545170Y-68942525D01*
X139532703Y-68924721D01*
X139355279Y-68747297D01*
X139149739Y-68603376D01*
X138922330Y-68497333D01*
X138679962Y-68432391D01*
X138492606Y-68416000D01*
X138367394Y-68416000D01*
X138180038Y-68432391D01*
X137937670Y-68497333D01*
X137710261Y-68603376D01*
X137524000Y-68733798D01*
X137524000Y-63417063D01*
X137498879Y-63169745D01*
X137399610Y-62852980D01*
X137238675Y-62562646D01*
X137022648Y-62310603D01*
X136760352Y-62107145D01*
X136462503Y-61960585D01*
X136141267Y-61876909D01*
X135809769Y-61859537D01*
X135481547Y-61909176D01*
X135170010Y-62023799D01*
X134887884Y-62198724D01*
X134646694Y-62426806D01*
X134617716Y-62468190D01*
X134482647Y-62310603D01*
X134220351Y-62107145D01*
X133922502Y-61960585D01*
X133601266Y-61876909D01*
X133269768Y-61859537D01*
X132941546Y-61909176D01*
X132630009Y-62023799D01*
X132347883Y-62198724D01*
X132106693Y-62426808D01*
X132077717Y-62468190D01*
X131942648Y-62310603D01*
X131680352Y-62107145D01*
X131382503Y-61960585D01*
X131061267Y-61876909D01*
X130729769Y-61859537D01*
X130401547Y-61909176D01*
X130090010Y-62023799D01*
X129807884Y-62198724D01*
X129674669Y-62324699D01*
X129533815Y-62156835D01*
X129340186Y-62045044D01*
X129131024Y-62008163D01*
X128939193Y-62008163D01*
X128842503Y-61960585D01*
X128521267Y-61876909D01*
X128189769Y-61859537D01*
X127861547Y-61909176D01*
X127592508Y-62008163D01*
X127403412Y-62008163D01*
X127102489Y-62088795D01*
X126926835Y-62236185D01*
X126815044Y-62429814D01*
X126778163Y-62638976D01*
X126778163Y-62833057D01*
X126703130Y-63006448D01*
X126636001Y-63440075D01*
X126636000Y-68733798D01*
X126449739Y-68603376D01*
X126222330Y-68497333D01*
X125858000Y-68399712D01*
X125602000Y-68399712D01*
X125237670Y-68497333D01*
X125010261Y-68603376D01*
X124804721Y-68747297D01*
X124627297Y-68924721D01*
X124483376Y-69130261D01*
X124460000Y-69180391D01*
X124436624Y-69130261D01*
X124292703Y-68924721D01*
X124115279Y-68747297D01*
X123909739Y-68603376D01*
X123682330Y-68497333D01*
X123439962Y-68432391D01*
X123252606Y-68416000D01*
X123127394Y-68416000D01*
X122940038Y-68432391D01*
X122697670Y-68497333D01*
X122470261Y-68603376D01*
X122264721Y-68747297D01*
X122087297Y-68924721D01*
X121943376Y-69130261D01*
X121837333Y-69357670D01*
X121772391Y-69600038D01*
X121750523Y-69850000D01*
X57784000Y-69850000D01*
X57784000Y-69160289D01*
X105508000Y-69160289D01*
X105872329Y-69062667D01*
X106099738Y-68956624D01*
X106305277Y-68812703D01*
X106482703Y-68635279D01*
X106626624Y-68429739D01*
X106650000Y-68379608D01*
X106673376Y-68429738D01*
X106817297Y-68635277D01*
X106994721Y-68812703D01*
X107200261Y-68956624D01*
X107427670Y-69062667D01*
X107670038Y-69127609D01*
X107920000Y-69149477D01*
X108169961Y-69127609D01*
X108412329Y-69062667D01*
X108639738Y-68956624D01*
X108845277Y-68812703D01*
X109022703Y-68635279D01*
X109166624Y-68429739D01*
X109272667Y-68202330D01*
X109337609Y-67959962D01*
X109354000Y-67772606D01*
X109354000Y-66847395D01*
X109337609Y-66660039D01*
X109272667Y-66417670D01*
X109166624Y-66190261D01*
X109022703Y-65984721D01*
X108845279Y-65807297D01*
X108639739Y-65663376D01*
X108412330Y-65557333D01*
X108169962Y-65492391D01*
X107920000Y-65470523D01*
X107670039Y-65492391D01*
X107427671Y-65557333D01*
X107200262Y-65663376D01*
X106994722Y-65807297D01*
X106817298Y-65984721D01*
X106673376Y-66190261D01*
X106650000Y-66240391D01*
X106626624Y-66190261D01*
X106482703Y-65984721D01*
X106305279Y-65807297D01*
X106099739Y-65663376D01*
X105872330Y-65557333D01*
X105508000Y-65459712D01*
X105508000Y-69160289D01*
X57784000Y-69160289D01*
X57784000Y-66847394D01*
X58226000Y-66847394D01*
X58226000Y-67772605D01*
X58242391Y-67959961D01*
X58307333Y-68202329D01*
X58413376Y-68429738D01*
X58557297Y-68635277D01*
X58734721Y-68812703D01*
X58940261Y-68956624D01*
X59167670Y-69062667D01*
X59410038Y-69127609D01*
X59660000Y-69149477D01*
X59909961Y-69127609D01*
X60152329Y-69062667D01*
X60379738Y-68956624D01*
X60585277Y-68812703D01*
X60762703Y-68635279D01*
X60906624Y-68429739D01*
X60930000Y-68379608D01*
X60953376Y-68429738D01*
X61097297Y-68635277D01*
X61274721Y-68812703D01*
X61480261Y-68956624D01*
X61707670Y-69062667D01*
X61950038Y-69127609D01*
X62200000Y-69149477D01*
X62449961Y-69127609D01*
X62692329Y-69062667D01*
X62919738Y-68956624D01*
X63125277Y-68812703D01*
X63302703Y-68635279D01*
X63446624Y-68429739D01*
X63470000Y-68379608D01*
X63493376Y-68429738D01*
X63637297Y-68635277D01*
X63814721Y-68812703D01*
X64020261Y-68956624D01*
X64247670Y-69062667D01*
X64490038Y-69127609D01*
X64740000Y-69149477D01*
X64989961Y-69127609D01*
X65232329Y-69062667D01*
X65459738Y-68956624D01*
X65665277Y-68812703D01*
X65842703Y-68635279D01*
X65986624Y-68429739D01*
X66010000Y-68379608D01*
X66033376Y-68429738D01*
X66177297Y-68635277D01*
X66354721Y-68812703D01*
X66560261Y-68956624D01*
X66787670Y-69062667D01*
X67030038Y-69127609D01*
X67280000Y-69149477D01*
X67529961Y-69127609D01*
X67772329Y-69062667D01*
X67999738Y-68956624D01*
X68205277Y-68812703D01*
X68382703Y-68635279D01*
X68526624Y-68429739D01*
X68550000Y-68379608D01*
X68573376Y-68429738D01*
X68717297Y-68635277D01*
X68894721Y-68812703D01*
X69100261Y-68956624D01*
X69327670Y-69062667D01*
X69570038Y-69127609D01*
X69820000Y-69149477D01*
X70069961Y-69127609D01*
X70312329Y-69062667D01*
X70539738Y-68956624D01*
X70745277Y-68812703D01*
X70922703Y-68635279D01*
X71066624Y-68429739D01*
X71090000Y-68379608D01*
X71113376Y-68429738D01*
X71257297Y-68635277D01*
X71434721Y-68812703D01*
X71640261Y-68956624D01*
X71867670Y-69062667D01*
X72110038Y-69127609D01*
X72360000Y-69149477D01*
X72609961Y-69127609D01*
X72852329Y-69062667D01*
X73079738Y-68956624D01*
X73285277Y-68812703D01*
X73462703Y-68635279D01*
X73606624Y-68429739D01*
X73630000Y-68379608D01*
X73653376Y-68429738D01*
X73797297Y-68635277D01*
X73974721Y-68812703D01*
X74180261Y-68956624D01*
X74407670Y-69062667D01*
X74650038Y-69127609D01*
X74900000Y-69149477D01*
X75149961Y-69127609D01*
X75392329Y-69062667D01*
X75619738Y-68956624D01*
X75825277Y-68812703D01*
X76002703Y-68635279D01*
X76146624Y-68429739D01*
X76170000Y-68379608D01*
X76193376Y-68429738D01*
X76337297Y-68635277D01*
X76514721Y-68812703D01*
X76720261Y-68956624D01*
X76947670Y-69062667D01*
X77190038Y-69127609D01*
X77440000Y-69149477D01*
X77689961Y-69127609D01*
X77932329Y-69062667D01*
X78159738Y-68956624D01*
X78365277Y-68812703D01*
X78542703Y-68635279D01*
X78686624Y-68429739D01*
X78710000Y-68379608D01*
X78733376Y-68429738D01*
X78877297Y-68635277D01*
X79054721Y-68812703D01*
X79260261Y-68956624D01*
X79487670Y-69062667D01*
X79730038Y-69127609D01*
X79980000Y-69149477D01*
X80229961Y-69127609D01*
X80472329Y-69062667D01*
X80699738Y-68956624D01*
X80905277Y-68812703D01*
X81082703Y-68635279D01*
X81226624Y-68429739D01*
X81250000Y-68379608D01*
X81273376Y-68429738D01*
X81417297Y-68635277D01*
X81594721Y-68812703D01*
X81800261Y-68956624D01*
X82027670Y-69062667D01*
X82270038Y-69127609D01*
X82520000Y-69149477D01*
X82769961Y-69127609D01*
X83012329Y-69062667D01*
X83239738Y-68956624D01*
X83445277Y-68812703D01*
X83622703Y-68635279D01*
X83766624Y-68429739D01*
X83790000Y-68379608D01*
X83813376Y-68429738D01*
X83957297Y-68635277D01*
X84134721Y-68812703D01*
X84340261Y-68956624D01*
X84567670Y-69062667D01*
X84810038Y-69127609D01*
X85060000Y-69149477D01*
X85309961Y-69127609D01*
X85552329Y-69062667D01*
X85779738Y-68956624D01*
X85985277Y-68812703D01*
X86162703Y-68635279D01*
X86306624Y-68429739D01*
X86330000Y-68379608D01*
X86353376Y-68429738D01*
X86497297Y-68635277D01*
X86674721Y-68812703D01*
X86880261Y-68956624D01*
X87107670Y-69062667D01*
X87350038Y-69127609D01*
X87600000Y-69149477D01*
X87849961Y-69127609D01*
X88092329Y-69062667D01*
X88319738Y-68956624D01*
X88525277Y-68812703D01*
X88702703Y-68635279D01*
X88846624Y-68429739D01*
X88870000Y-68379608D01*
X88893376Y-68429738D01*
X89037297Y-68635277D01*
X89214721Y-68812703D01*
X89420261Y-68956624D01*
X89647670Y-69062667D01*
X89890038Y-69127609D01*
X90140000Y-69149477D01*
X90389961Y-69127609D01*
X90632329Y-69062667D01*
X90859738Y-68956624D01*
X91065277Y-68812703D01*
X91242703Y-68635279D01*
X91386624Y-68429739D01*
X91410000Y-68379608D01*
X91433376Y-68429738D01*
X91577297Y-68635277D01*
X91754721Y-68812703D01*
X91960261Y-68956624D01*
X92187670Y-69062667D01*
X92430038Y-69127609D01*
X92680000Y-69149477D01*
X92929961Y-69127609D01*
X93172329Y-69062667D01*
X93399738Y-68956624D01*
X93605277Y-68812703D01*
X93782703Y-68635279D01*
X93926624Y-68429739D01*
X93950000Y-68379608D01*
X93973376Y-68429738D01*
X94117297Y-68635277D01*
X94294721Y-68812703D01*
X94500261Y-68956624D01*
X94727670Y-69062667D01*
X94970038Y-69127609D01*
X95220000Y-69149477D01*
X95469961Y-69127609D01*
X95712329Y-69062667D01*
X95939738Y-68956624D01*
X96145277Y-68812703D01*
X96322703Y-68635279D01*
X96466624Y-68429739D01*
X96490000Y-68379608D01*
X96513376Y-68429738D01*
X96657297Y-68635277D01*
X96834721Y-68812703D01*
X97040261Y-68956624D01*
X97267670Y-69062667D01*
X97510038Y-69127609D01*
X97760000Y-69149477D01*
X98009961Y-69127609D01*
X98252329Y-69062667D01*
X98479738Y-68956624D01*
X98685277Y-68812703D01*
X98862703Y-68635279D01*
X99006624Y-68429739D01*
X99030000Y-68379608D01*
X99053376Y-68429738D01*
X99197297Y-68635277D01*
X99374721Y-68812703D01*
X99580261Y-68956624D01*
X99807670Y-69062667D01*
X100050038Y-69127609D01*
X100300000Y-69149477D01*
X100549961Y-69127609D01*
X100792329Y-69062667D01*
X101019738Y-68956624D01*
X101225277Y-68812703D01*
X101402703Y-68635279D01*
X101546624Y-68429739D01*
X101570000Y-68379608D01*
X101593376Y-68429738D01*
X101737297Y-68635277D01*
X101914721Y-68812703D01*
X102120261Y-68956624D01*
X102347670Y-69062667D01*
X102590038Y-69127609D01*
X102840000Y-69149477D01*
X103089961Y-69127609D01*
X103332329Y-69062667D01*
X103559738Y-68956624D01*
X103765277Y-68812703D01*
X103942703Y-68635279D01*
X104086624Y-68429739D01*
X104110000Y-68379608D01*
X104133376Y-68429738D01*
X104277297Y-68635277D01*
X104454721Y-68812703D01*
X104660261Y-68956624D01*
X104887670Y-69062667D01*
X105252000Y-69160288D01*
X105252000Y-65459711D01*
X104887671Y-65557333D01*
X104660262Y-65663376D01*
X104454722Y-65807297D01*
X104277298Y-65984721D01*
X104133376Y-66190261D01*
X104110000Y-66240391D01*
X104086624Y-66190261D01*
X103942703Y-65984721D01*
X103765279Y-65807297D01*
X103559739Y-65663376D01*
X103332330Y-65557333D01*
X103089962Y-65492391D01*
X102840000Y-65470523D01*
X102590039Y-65492391D01*
X102347671Y-65557333D01*
X102120262Y-65663376D01*
X101914722Y-65807297D01*
X101737298Y-65984721D01*
X101593376Y-66190261D01*
X101570000Y-66240391D01*
X101546624Y-66190261D01*
X101402703Y-65984721D01*
X101225279Y-65807297D01*
X101019739Y-65663376D01*
X100792330Y-65557333D01*
X100549962Y-65492391D01*
X100300000Y-65470523D01*
X100050039Y-65492391D01*
X99807671Y-65557333D01*
X99580262Y-65663376D01*
X99374722Y-65807297D01*
X99197298Y-65984721D01*
X99053376Y-66190261D01*
X99030000Y-66240391D01*
X99006624Y-66190261D01*
X98862703Y-65984721D01*
X98685279Y-65807297D01*
X98479739Y-65663376D01*
X98252330Y-65557333D01*
X98009962Y-65492391D01*
X97760000Y-65470523D01*
X97510039Y-65492391D01*
X97267671Y-65557333D01*
X97040262Y-65663376D01*
X96834722Y-65807297D01*
X96657298Y-65984721D01*
X96513376Y-66190261D01*
X96490000Y-66240391D01*
X96466624Y-66190261D01*
X96322703Y-65984721D01*
X96145279Y-65807297D01*
X95939739Y-65663376D01*
X95712330Y-65557333D01*
X95469962Y-65492391D01*
X95220000Y-65470523D01*
X94970039Y-65492391D01*
X94727671Y-65557333D01*
X94500262Y-65663376D01*
X94294722Y-65807297D01*
X94117298Y-65984721D01*
X93973376Y-66190261D01*
X93950000Y-66240391D01*
X93926624Y-66190261D01*
X93782703Y-65984721D01*
X93605279Y-65807297D01*
X93399739Y-65663376D01*
X93172330Y-65557333D01*
X92929962Y-65492391D01*
X92680000Y-65470523D01*
X92430039Y-65492391D01*
X92187671Y-65557333D01*
X91960262Y-65663376D01*
X91754722Y-65807297D01*
X91577298Y-65984721D01*
X91433376Y-66190261D01*
X91410000Y-66240391D01*
X91386624Y-66190261D01*
X91242703Y-65984721D01*
X91065279Y-65807297D01*
X90859739Y-65663376D01*
X90632330Y-65557333D01*
X90389962Y-65492391D01*
X90140000Y-65470523D01*
X89890039Y-65492391D01*
X89647671Y-65557333D01*
X89420262Y-65663376D01*
X89214722Y-65807297D01*
X89037298Y-65984721D01*
X88893376Y-66190261D01*
X88870000Y-66240391D01*
X88846624Y-66190261D01*
X88702703Y-65984721D01*
X88525279Y-65807297D01*
X88319739Y-65663376D01*
X88092330Y-65557333D01*
X87849962Y-65492391D01*
X87600000Y-65470523D01*
X87350039Y-65492391D01*
X87107671Y-65557333D01*
X86880262Y-65663376D01*
X86674722Y-65807297D01*
X86497298Y-65984721D01*
X86353376Y-66190261D01*
X86330000Y-66240391D01*
X86306624Y-66190261D01*
X86162703Y-65984721D01*
X85985279Y-65807297D01*
X85779739Y-65663376D01*
X85552330Y-65557333D01*
X85309962Y-65492391D01*
X85060000Y-65470523D01*
X84810039Y-65492391D01*
X84567671Y-65557333D01*
X84340262Y-65663376D01*
X84134722Y-65807297D01*
X83957298Y-65984721D01*
X83813376Y-66190261D01*
X83790000Y-66240391D01*
X83766624Y-66190261D01*
X83622703Y-65984721D01*
X83445279Y-65807297D01*
X83239739Y-65663376D01*
X83012330Y-65557333D01*
X82769962Y-65492391D01*
X82520000Y-65470523D01*
X82270039Y-65492391D01*
X82027671Y-65557333D01*
X81800262Y-65663376D01*
X81594722Y-65807297D01*
X81417298Y-65984721D01*
X81273376Y-66190261D01*
X81250000Y-66240391D01*
X81226624Y-66190261D01*
X81082703Y-65984721D01*
X80905279Y-65807297D01*
X80699739Y-65663376D01*
X80472330Y-65557333D01*
X80229962Y-65492391D01*
X79980000Y-65470523D01*
X79730039Y-65492391D01*
X79487671Y-65557333D01*
X79260262Y-65663376D01*
X79054722Y-65807297D01*
X78877298Y-65984721D01*
X78733376Y-66190261D01*
X78710000Y-66240391D01*
X78686624Y-66190261D01*
X78542703Y-65984721D01*
X78365279Y-65807297D01*
X78159739Y-65663376D01*
X77932330Y-65557333D01*
X77689962Y-65492391D01*
X77440000Y-65470523D01*
X77190039Y-65492391D01*
X76947671Y-65557333D01*
X76720262Y-65663376D01*
X76514722Y-65807297D01*
X76337298Y-65984721D01*
X76193376Y-66190261D01*
X76170000Y-66240391D01*
X76146624Y-66190261D01*
X76002703Y-65984721D01*
X75825279Y-65807297D01*
X75619739Y-65663376D01*
X75392330Y-65557333D01*
X75149962Y-65492391D01*
X74900000Y-65470523D01*
X74650039Y-65492391D01*
X74407671Y-65557333D01*
X74180262Y-65663376D01*
X73974722Y-65807297D01*
X73797298Y-65984721D01*
X73653376Y-66190261D01*
X73630000Y-66240391D01*
X73606624Y-66190261D01*
X73462703Y-65984721D01*
X73285279Y-65807297D01*
X73079739Y-65663376D01*
X72852330Y-65557333D01*
X72609962Y-65492391D01*
X72360000Y-65470523D01*
X72110039Y-65492391D01*
X71867671Y-65557333D01*
X71640262Y-65663376D01*
X71434722Y-65807297D01*
X71257298Y-65984721D01*
X71113376Y-66190261D01*
X71090000Y-66240391D01*
X71066624Y-66190261D01*
X70922703Y-65984721D01*
X70745279Y-65807297D01*
X70539739Y-65663376D01*
X70312330Y-65557333D01*
X70069962Y-65492391D01*
X69820000Y-65470523D01*
X69570039Y-65492391D01*
X69327671Y-65557333D01*
X69100262Y-65663376D01*
X68894722Y-65807297D01*
X68717298Y-65984721D01*
X68573376Y-66190261D01*
X68550000Y-66240391D01*
X68526624Y-66190261D01*
X68382703Y-65984721D01*
X68205279Y-65807297D01*
X67999739Y-65663376D01*
X67772330Y-65557333D01*
X67529962Y-65492391D01*
X67280000Y-65470523D01*
X67030039Y-65492391D01*
X66787671Y-65557333D01*
X66560262Y-65663376D01*
X66354722Y-65807297D01*
X66177298Y-65984721D01*
X66033376Y-66190261D01*
X66010000Y-66240391D01*
X65986624Y-66190261D01*
X65842703Y-65984721D01*
X65665279Y-65807297D01*
X65459739Y-65663376D01*
X65232330Y-65557333D01*
X64989962Y-65492391D01*
X64740000Y-65470523D01*
X64490039Y-65492391D01*
X64247671Y-65557333D01*
X64020262Y-65663376D01*
X63814722Y-65807297D01*
X63637298Y-65984721D01*
X63493376Y-66190261D01*
X63470000Y-66240391D01*
X63446624Y-66190261D01*
X63302703Y-65984721D01*
X63125279Y-65807297D01*
X62919739Y-65663376D01*
X62692330Y-65557333D01*
X62449962Y-65492391D01*
X62200000Y-65470523D01*
X61950039Y-65492391D01*
X61707671Y-65557333D01*
X61480262Y-65663376D01*
X61274722Y-65807297D01*
X61097298Y-65984721D01*
X60953376Y-66190261D01*
X60930000Y-66240391D01*
X60906624Y-66190261D01*
X60762703Y-65984721D01*
X60585279Y-65807297D01*
X60379739Y-65663376D01*
X60152330Y-65557333D01*
X59909962Y-65492391D01*
X59660000Y-65470523D01*
X59410039Y-65492391D01*
X59167671Y-65557333D01*
X58940262Y-65663376D01*
X58734722Y-65807297D01*
X58557298Y-65984721D01*
X58413376Y-66190261D01*
X58307333Y-66417670D01*
X58242391Y-66660038D01*
X58226000Y-66847394D01*
X57784000Y-66847394D01*
X57784000Y-58346985D01*
X60711671Y-58346985D01*
X60723556Y-58687341D01*
X60776832Y-59023712D01*
X60870704Y-59351082D01*
X61003772Y-59664573D01*
X61174054Y-59959510D01*
X61379011Y-60231496D01*
X61615586Y-60476477D01*
X61880254Y-60690800D01*
X62169068Y-60871272D01*
X62477724Y-61015201D01*
X62801619Y-61120441D01*
X63135925Y-61185422D01*
X63475659Y-61209180D01*
X63815756Y-61191356D01*
X64151146Y-61132218D01*
X64476829Y-61032646D01*
X64787949Y-60894126D01*
X65079869Y-60718723D01*
X65348236Y-60509052D01*
X65589052Y-60268236D01*
X65798723Y-59999869D01*
X65930016Y-59781359D01*
X192372737Y-59781359D01*
X192407520Y-60066701D01*
X192484097Y-60343768D01*
X192600786Y-60606472D01*
X192755025Y-60849048D01*
X192854879Y-60964102D01*
X194128981Y-59690000D01*
X194491019Y-59690000D01*
X195768745Y-60967726D01*
X195940209Y-60740597D01*
X196077590Y-60488098D01*
X196176142Y-60218065D01*
X196234029Y-59934805D01*
X196244452Y-59549603D01*
X196201967Y-59263627D01*
X196118164Y-58988660D01*
X195994638Y-58729099D01*
X195776272Y-58404747D01*
X194491019Y-59690000D01*
X194128981Y-59690000D01*
X192848136Y-58409156D01*
X192652848Y-58682436D01*
X192522123Y-58938447D01*
X192430675Y-59210966D01*
X192380512Y-59494010D01*
X192372737Y-59781359D01*
X65930016Y-59781359D01*
X65974126Y-59707949D01*
X66112646Y-59396829D01*
X66212218Y-59071146D01*
X66271644Y-58734124D01*
X66284285Y-58251363D01*
X66281899Y-58231923D01*
X193032942Y-58231923D01*
X194310000Y-59508981D01*
X195585068Y-58233913D01*
X195416851Y-58097450D01*
X195169300Y-57951339D01*
X194902871Y-57843425D01*
X194623417Y-57776075D01*
X194337078Y-57750773D01*
X194050145Y-57768071D01*
X193768920Y-57827590D01*
X193499581Y-57928024D01*
X193248047Y-58067166D01*
X193032942Y-58231923D01*
X66281899Y-58231923D01*
X66242579Y-57911693D01*
X66160189Y-57581245D01*
X66038141Y-57263302D01*
X65878256Y-56962602D01*
X65682918Y-56683629D01*
X65455036Y-56430540D01*
X65198009Y-56207111D01*
X64915669Y-56016670D01*
X64612225Y-55862057D01*
X64292200Y-55745578D01*
X63960365Y-55668968D01*
X63621667Y-55633370D01*
X63281156Y-55639313D01*
X62943906Y-55686711D01*
X62614947Y-55774855D01*
X62299181Y-55902432D01*
X62001318Y-56067540D01*
X61725796Y-56267719D01*
X61476724Y-56499982D01*
X61257814Y-56760869D01*
X61072329Y-57046490D01*
X60923037Y-57352587D01*
X60812160Y-57674596D01*
X60741352Y-58007717D01*
X60711671Y-58346985D01*
X57784000Y-58346985D01*
X57784000Y-52704000D01*
X201296001Y-52704000D01*
X201296000Y-92076000D01*
M02*
