G04 #@! TF.GenerationSoftware,KiCad,Pcbnew,5.99.0-unknown-c3175b4~86~ubuntu16.04.1*
G04 #@! TF.CreationDate,2019-11-28T09:11:42-05:00*
G04 #@! TF.ProjectId,sketchy_v2,736b6574-6368-4795-9f76-322e6b696361,rev?*
G04 #@! TF.SameCoordinates,Original*
G04 #@! TF.FileFunction,Legend,Top*
G04 #@! TF.FilePolarity,Positive*
%FSLAX46Y46*%
G04 Gerber Fmt 4.6, Leading zero omitted, Abs format (unit mm)*
G04 Created by KiCad (PCBNEW 5.99.0-unknown-c3175b4~86~ubuntu16.04.1) date 2019-11-28 09:11:42*
%MOMM*%
%LPD*%
G04 APERTURE LIST*
%ADD10C,0.300000*%
%ADD11C,0.200000*%
%ADD12C,0.120000*%
%ADD13C,0.150000*%
G04 APERTURE END LIST*
D10*
X151110000Y-125562857D02*
X151038571Y-125634285D01*
X150824285Y-125777142D01*
X150681428Y-125848571D01*
X150467142Y-125920000D01*
X150110000Y-125991428D01*
X149824285Y-125991428D01*
X149467142Y-125920000D01*
X149252857Y-125848571D01*
X149110000Y-125777142D01*
X148895714Y-125634285D01*
X148824285Y-125562857D01*
X149824285Y-124705714D02*
X150538571Y-124705714D01*
X149038571Y-125205714D02*
X149824285Y-124705714D01*
X149038571Y-124205714D01*
X150110000Y-122634285D02*
X150110000Y-121920000D01*
X150538571Y-122777142D02*
X149038571Y-122277142D01*
X150538571Y-121777142D01*
X150538571Y-121420000D02*
X149538571Y-120634285D01*
X149538571Y-121420000D02*
X150538571Y-120634285D01*
X150538571Y-120062857D02*
X149538571Y-120062857D01*
X149038571Y-120062857D02*
X149110000Y-120134285D01*
X149181428Y-120062857D01*
X149110000Y-119991428D01*
X149038571Y-120062857D01*
X149181428Y-120062857D01*
X150467142Y-119420000D02*
X150538571Y-119277142D01*
X150538571Y-118991428D01*
X150467142Y-118848571D01*
X150324285Y-118777142D01*
X150252857Y-118777142D01*
X150110000Y-118848571D01*
X150038571Y-118991428D01*
X150038571Y-119205714D01*
X149967142Y-119348571D01*
X149824285Y-119420000D01*
X149752857Y-119420000D01*
X149610000Y-119348571D01*
X149538571Y-119205714D01*
X149538571Y-118991428D01*
X149610000Y-118848571D01*
X151110000Y-118277142D02*
X151038571Y-118205714D01*
X150824285Y-118062857D01*
X150681428Y-117991428D01*
X150467142Y-117920000D01*
X150110000Y-117848571D01*
X149824285Y-117848571D01*
X149467142Y-117920000D01*
X149252857Y-117991428D01*
X149110000Y-118062857D01*
X148895714Y-118205714D01*
X148824285Y-118277142D01*
X151110000Y-149764285D02*
X151038571Y-149835714D01*
X150824285Y-149978571D01*
X150681428Y-150050000D01*
X150467142Y-150121428D01*
X150110000Y-150192857D01*
X149824285Y-150192857D01*
X149467142Y-150121428D01*
X149252857Y-150050000D01*
X149110000Y-149978571D01*
X148895714Y-149835714D01*
X148824285Y-149764285D01*
X149038571Y-149335714D02*
X150538571Y-148335714D01*
X149038571Y-148335714D02*
X150538571Y-149335714D01*
X150110000Y-146692857D02*
X150110000Y-145978571D01*
X150538571Y-146835714D02*
X149038571Y-146335714D01*
X150538571Y-145835714D01*
X150538571Y-145478571D02*
X149538571Y-144692857D01*
X149538571Y-145478571D02*
X150538571Y-144692857D01*
X150538571Y-144121428D02*
X149538571Y-144121428D01*
X149038571Y-144121428D02*
X149110000Y-144192857D01*
X149181428Y-144121428D01*
X149110000Y-144050000D01*
X149038571Y-144121428D01*
X149181428Y-144121428D01*
X150467142Y-143478571D02*
X150538571Y-143335714D01*
X150538571Y-143050000D01*
X150467142Y-142907142D01*
X150324285Y-142835714D01*
X150252857Y-142835714D01*
X150110000Y-142907142D01*
X150038571Y-143050000D01*
X150038571Y-143264285D01*
X149967142Y-143407142D01*
X149824285Y-143478571D01*
X149752857Y-143478571D01*
X149610000Y-143407142D01*
X149538571Y-143264285D01*
X149538571Y-143050000D01*
X149610000Y-142907142D01*
X151110000Y-142335714D02*
X151038571Y-142264285D01*
X150824285Y-142121428D01*
X150681428Y-142050000D01*
X150467142Y-141978571D01*
X150110000Y-141907142D01*
X149824285Y-141907142D01*
X149467142Y-141978571D01*
X149252857Y-142050000D01*
X149110000Y-142121428D01*
X148895714Y-142264285D01*
X148824285Y-142335714D01*
X146859523Y-128491428D02*
X146954761Y-128205714D01*
X146954761Y-127729523D01*
X146859523Y-127539047D01*
X146764285Y-127443809D01*
X146573809Y-127348571D01*
X146383333Y-127348571D01*
X146192857Y-127443809D01*
X146097619Y-127539047D01*
X146002380Y-127729523D01*
X145907142Y-128110476D01*
X145811904Y-128300952D01*
X145716666Y-128396190D01*
X145526190Y-128491428D01*
X145335714Y-128491428D01*
X145145238Y-128396190D01*
X145050000Y-128300952D01*
X144954761Y-128110476D01*
X144954761Y-127634285D01*
X145050000Y-127348571D01*
X145621428Y-126777142D02*
X145621428Y-126015238D01*
X144954761Y-126491428D02*
X146669047Y-126491428D01*
X146859523Y-126396190D01*
X146954761Y-126205714D01*
X146954761Y-126015238D01*
X146859523Y-124586666D02*
X146954761Y-124777142D01*
X146954761Y-125158095D01*
X146859523Y-125348571D01*
X146669047Y-125443809D01*
X145907142Y-125443809D01*
X145716666Y-125348571D01*
X145621428Y-125158095D01*
X145621428Y-124777142D01*
X145716666Y-124586666D01*
X145907142Y-124491428D01*
X146097619Y-124491428D01*
X146288095Y-125443809D01*
X145621428Y-123634285D02*
X147621428Y-123634285D01*
X145716666Y-123634285D02*
X145621428Y-123443809D01*
X145621428Y-123062857D01*
X145716666Y-122872380D01*
X145811904Y-122777142D01*
X146002380Y-122681904D01*
X146573809Y-122681904D01*
X146764285Y-122777142D01*
X146859523Y-122872380D01*
X146954761Y-123062857D01*
X146954761Y-123443809D01*
X146859523Y-123634285D01*
X146859523Y-121920000D02*
X146954761Y-121634285D01*
X146954761Y-121158095D01*
X146859523Y-120967619D01*
X146764285Y-120872380D01*
X146573809Y-120777142D01*
X146383333Y-120777142D01*
X146192857Y-120872380D01*
X146097619Y-120967619D01*
X146002380Y-121158095D01*
X145907142Y-121539047D01*
X145811904Y-121729523D01*
X145716666Y-121824761D01*
X145526190Y-121920000D01*
X145335714Y-121920000D01*
X145145238Y-121824761D01*
X145050000Y-121729523D01*
X144954761Y-121539047D01*
X144954761Y-121062857D01*
X145050000Y-120777142D01*
X145621428Y-120205714D02*
X145621428Y-119443809D01*
X144954761Y-119920000D02*
X146669047Y-119920000D01*
X146859523Y-119824761D01*
X146954761Y-119634285D01*
X146954761Y-119443809D01*
X146954761Y-118777142D02*
X145621428Y-118777142D01*
X144954761Y-118777142D02*
X145050000Y-118872380D01*
X145145238Y-118777142D01*
X145050000Y-118681904D01*
X144954761Y-118777142D01*
X145145238Y-118777142D01*
X146859523Y-116967619D02*
X146954761Y-117158095D01*
X146954761Y-117539047D01*
X146859523Y-117729523D01*
X146764285Y-117824761D01*
X146573809Y-117920000D01*
X146002380Y-117920000D01*
X145811904Y-117824761D01*
X145716666Y-117729523D01*
X145621428Y-117539047D01*
X145621428Y-117158095D01*
X145716666Y-116967619D01*
X146954761Y-116110476D02*
X144954761Y-116110476D01*
X146192857Y-115920000D02*
X146954761Y-115348571D01*
X145621428Y-115348571D02*
X146383333Y-116110476D01*
X146859523Y-152621428D02*
X146954761Y-152335714D01*
X146954761Y-151859523D01*
X146859523Y-151669047D01*
X146764285Y-151573809D01*
X146573809Y-151478571D01*
X146383333Y-151478571D01*
X146192857Y-151573809D01*
X146097619Y-151669047D01*
X146002380Y-151859523D01*
X145907142Y-152240476D01*
X145811904Y-152430952D01*
X145716666Y-152526190D01*
X145526190Y-152621428D01*
X145335714Y-152621428D01*
X145145238Y-152526190D01*
X145050000Y-152430952D01*
X144954761Y-152240476D01*
X144954761Y-151764285D01*
X145050000Y-151478571D01*
X145621428Y-150907142D02*
X145621428Y-150145238D01*
X144954761Y-150621428D02*
X146669047Y-150621428D01*
X146859523Y-150526190D01*
X146954761Y-150335714D01*
X146954761Y-150145238D01*
X146859523Y-148716666D02*
X146954761Y-148907142D01*
X146954761Y-149288095D01*
X146859523Y-149478571D01*
X146669047Y-149573809D01*
X145907142Y-149573809D01*
X145716666Y-149478571D01*
X145621428Y-149288095D01*
X145621428Y-148907142D01*
X145716666Y-148716666D01*
X145907142Y-148621428D01*
X146097619Y-148621428D01*
X146288095Y-149573809D01*
X145621428Y-147764285D02*
X147621428Y-147764285D01*
X145716666Y-147764285D02*
X145621428Y-147573809D01*
X145621428Y-147192857D01*
X145716666Y-147002380D01*
X145811904Y-146907142D01*
X146002380Y-146811904D01*
X146573809Y-146811904D01*
X146764285Y-146907142D01*
X146859523Y-147002380D01*
X146954761Y-147192857D01*
X146954761Y-147573809D01*
X146859523Y-147764285D01*
X146859523Y-146050000D02*
X146954761Y-145764285D01*
X146954761Y-145288095D01*
X146859523Y-145097619D01*
X146764285Y-145002380D01*
X146573809Y-144907142D01*
X146383333Y-144907142D01*
X146192857Y-145002380D01*
X146097619Y-145097619D01*
X146002380Y-145288095D01*
X145907142Y-145669047D01*
X145811904Y-145859523D01*
X145716666Y-145954761D01*
X145526190Y-146050000D01*
X145335714Y-146050000D01*
X145145238Y-145954761D01*
X145050000Y-145859523D01*
X144954761Y-145669047D01*
X144954761Y-145192857D01*
X145050000Y-144907142D01*
X145621428Y-144335714D02*
X145621428Y-143573809D01*
X144954761Y-144050000D02*
X146669047Y-144050000D01*
X146859523Y-143954761D01*
X146954761Y-143764285D01*
X146954761Y-143573809D01*
X146954761Y-142907142D02*
X145621428Y-142907142D01*
X144954761Y-142907142D02*
X145050000Y-143002380D01*
X145145238Y-142907142D01*
X145050000Y-142811904D01*
X144954761Y-142907142D01*
X145145238Y-142907142D01*
X146859523Y-141097619D02*
X146954761Y-141288095D01*
X146954761Y-141669047D01*
X146859523Y-141859523D01*
X146764285Y-141954761D01*
X146573809Y-142050000D01*
X146002380Y-142050000D01*
X145811904Y-141954761D01*
X145716666Y-141859523D01*
X145621428Y-141669047D01*
X145621428Y-141288095D01*
X145716666Y-141097619D01*
X146954761Y-140240476D02*
X144954761Y-140240476D01*
X146192857Y-140050000D02*
X146954761Y-139478571D01*
X145621428Y-139478571D02*
X146383333Y-140240476D01*
D11*
X137480476Y-158349761D02*
X137623333Y-158397380D01*
X137861428Y-158397380D01*
X137956666Y-158349761D01*
X138004285Y-158302142D01*
X138051904Y-158206904D01*
X138051904Y-158111666D01*
X138004285Y-158016428D01*
X137956666Y-157968809D01*
X137861428Y-157921190D01*
X137670952Y-157873571D01*
X137575714Y-157825952D01*
X137528095Y-157778333D01*
X137480476Y-157683095D01*
X137480476Y-157587857D01*
X137528095Y-157492619D01*
X137575714Y-157445000D01*
X137670952Y-157397380D01*
X137909047Y-157397380D01*
X138051904Y-157445000D01*
X138480476Y-158397380D02*
X138480476Y-157397380D01*
X138575714Y-158016428D02*
X138861428Y-158397380D01*
X138861428Y-157730714D02*
X138480476Y-158111666D01*
X139670952Y-158349761D02*
X139575714Y-158397380D01*
X139385238Y-158397380D01*
X139290000Y-158349761D01*
X139242380Y-158254523D01*
X139242380Y-157873571D01*
X139290000Y-157778333D01*
X139385238Y-157730714D01*
X139575714Y-157730714D01*
X139670952Y-157778333D01*
X139718571Y-157873571D01*
X139718571Y-157968809D01*
X139242380Y-158064047D01*
X140004285Y-157730714D02*
X140385238Y-157730714D01*
X140147142Y-157397380D02*
X140147142Y-158254523D01*
X140194761Y-158349761D01*
X140290000Y-158397380D01*
X140385238Y-158397380D01*
X141147142Y-158349761D02*
X141051904Y-158397380D01*
X140861428Y-158397380D01*
X140766190Y-158349761D01*
X140718571Y-158302142D01*
X140670952Y-158206904D01*
X140670952Y-157921190D01*
X140718571Y-157825952D01*
X140766190Y-157778333D01*
X140861428Y-157730714D01*
X141051904Y-157730714D01*
X141147142Y-157778333D01*
X141575714Y-158397380D02*
X141575714Y-157397380D01*
X142004285Y-158397380D02*
X142004285Y-157873571D01*
X141956666Y-157778333D01*
X141861428Y-157730714D01*
X141718571Y-157730714D01*
X141623333Y-157778333D01*
X141575714Y-157825952D01*
X142385238Y-157730714D02*
X142623333Y-158397380D01*
X142861428Y-157730714D02*
X142623333Y-158397380D01*
X142528095Y-158635476D01*
X142480476Y-158683095D01*
X142385238Y-158730714D01*
X144004285Y-158397380D02*
X144004285Y-157397380D01*
X144385238Y-157397380D01*
X144480476Y-157445000D01*
X144528095Y-157492619D01*
X144575714Y-157587857D01*
X144575714Y-157730714D01*
X144528095Y-157825952D01*
X144480476Y-157873571D01*
X144385238Y-157921190D01*
X144004285Y-157921190D01*
X145575714Y-158302142D02*
X145528095Y-158349761D01*
X145385238Y-158397380D01*
X145290000Y-158397380D01*
X145147142Y-158349761D01*
X145051904Y-158254523D01*
X145004285Y-158159285D01*
X144956666Y-157968809D01*
X144956666Y-157825952D01*
X145004285Y-157635476D01*
X145051904Y-157540238D01*
X145147142Y-157445000D01*
X145290000Y-157397380D01*
X145385238Y-157397380D01*
X145528095Y-157445000D01*
X145575714Y-157492619D01*
X146337619Y-157873571D02*
X146480476Y-157921190D01*
X146528095Y-157968809D01*
X146575714Y-158064047D01*
X146575714Y-158206904D01*
X146528095Y-158302142D01*
X146480476Y-158349761D01*
X146385238Y-158397380D01*
X146004285Y-158397380D01*
X146004285Y-157397380D01*
X146337619Y-157397380D01*
X146432857Y-157445000D01*
X146480476Y-157492619D01*
X146528095Y-157587857D01*
X146528095Y-157683095D01*
X146480476Y-157778333D01*
X146432857Y-157825952D01*
X146337619Y-157873571D01*
X146004285Y-157873571D01*
X147670952Y-157730714D02*
X147909047Y-158397380D01*
X148147142Y-157730714D01*
X148480476Y-157492619D02*
X148528095Y-157445000D01*
X148623333Y-157397380D01*
X148861428Y-157397380D01*
X148956666Y-157445000D01*
X149004285Y-157492619D01*
X149051904Y-157587857D01*
X149051904Y-157683095D01*
X149004285Y-157825952D01*
X148432857Y-158397380D01*
X149051904Y-158397380D01*
X149670952Y-157397380D02*
X149766190Y-157397380D01*
X149861428Y-157445000D01*
X149909047Y-157492619D01*
X149956666Y-157587857D01*
X150004285Y-157778333D01*
X150004285Y-158016428D01*
X149956666Y-158206904D01*
X149909047Y-158302142D01*
X149861428Y-158349761D01*
X149766190Y-158397380D01*
X149670952Y-158397380D01*
X149575714Y-158349761D01*
X149528095Y-158302142D01*
X149480476Y-158206904D01*
X149432857Y-158016428D01*
X149432857Y-157778333D01*
X149480476Y-157587857D01*
X149528095Y-157492619D01*
X149575714Y-157445000D01*
X149670952Y-157397380D01*
X150956666Y-158397380D02*
X150385238Y-158397380D01*
X150670952Y-158397380D02*
X150670952Y-157397380D01*
X150575714Y-157540238D01*
X150480476Y-157635476D01*
X150385238Y-157683095D01*
X151432857Y-158397380D02*
X151623333Y-158397380D01*
X151718571Y-158349761D01*
X151766190Y-158302142D01*
X151861428Y-158159285D01*
X151909047Y-157968809D01*
X151909047Y-157587857D01*
X151861428Y-157492619D01*
X151813809Y-157445000D01*
X151718571Y-157397380D01*
X151528095Y-157397380D01*
X151432857Y-157445000D01*
X151385238Y-157492619D01*
X151337619Y-157587857D01*
X151337619Y-157825952D01*
X151385238Y-157921190D01*
X151432857Y-157968809D01*
X151528095Y-158016428D01*
X151718571Y-158016428D01*
X151813809Y-157968809D01*
X151861428Y-157921190D01*
X151909047Y-157825952D01*
X152861428Y-158397380D02*
X152290000Y-158397380D01*
X152575714Y-158397380D02*
X152575714Y-157397380D01*
X152480476Y-157540238D01*
X152385238Y-157635476D01*
X152290000Y-157683095D01*
X153813809Y-158397380D02*
X153242380Y-158397380D01*
X153528095Y-158397380D02*
X153528095Y-157397380D01*
X153432857Y-157540238D01*
X153337619Y-157635476D01*
X153242380Y-157683095D01*
X154194761Y-157492619D02*
X154242380Y-157445000D01*
X154337619Y-157397380D01*
X154575714Y-157397380D01*
X154670952Y-157445000D01*
X154718571Y-157492619D01*
X154766190Y-157587857D01*
X154766190Y-157683095D01*
X154718571Y-157825952D01*
X154147142Y-158397380D01*
X154766190Y-158397380D01*
X155099523Y-157397380D02*
X155766190Y-157397380D01*
X155337619Y-158397380D01*
X137528095Y-160007380D02*
X137528095Y-159007380D01*
X137956666Y-160007380D02*
X137956666Y-159483571D01*
X137909047Y-159388333D01*
X137813809Y-159340714D01*
X137670952Y-159340714D01*
X137575714Y-159388333D01*
X137528095Y-159435952D01*
X138290000Y-159340714D02*
X138670952Y-159340714D01*
X138432857Y-159007380D02*
X138432857Y-159864523D01*
X138480476Y-159959761D01*
X138575714Y-160007380D01*
X138670952Y-160007380D01*
X138861428Y-159340714D02*
X139242380Y-159340714D01*
X139004285Y-159007380D02*
X139004285Y-159864523D01*
X139051904Y-159959761D01*
X139147142Y-160007380D01*
X139242380Y-160007380D01*
X139575714Y-159340714D02*
X139575714Y-160340714D01*
X139575714Y-159388333D02*
X139670952Y-159340714D01*
X139861428Y-159340714D01*
X139956666Y-159388333D01*
X140004285Y-159435952D01*
X140051904Y-159531190D01*
X140051904Y-159816904D01*
X140004285Y-159912142D01*
X139956666Y-159959761D01*
X139861428Y-160007380D01*
X139670952Y-160007380D01*
X139575714Y-159959761D01*
X140432857Y-159959761D02*
X140528095Y-160007380D01*
X140718571Y-160007380D01*
X140813809Y-159959761D01*
X140861428Y-159864523D01*
X140861428Y-159816904D01*
X140813809Y-159721666D01*
X140718571Y-159674047D01*
X140575714Y-159674047D01*
X140480476Y-159626428D01*
X140432857Y-159531190D01*
X140432857Y-159483571D01*
X140480476Y-159388333D01*
X140575714Y-159340714D01*
X140718571Y-159340714D01*
X140813809Y-159388333D01*
X141290000Y-159912142D02*
X141337619Y-159959761D01*
X141290000Y-160007380D01*
X141242380Y-159959761D01*
X141290000Y-159912142D01*
X141290000Y-160007380D01*
X141290000Y-159388333D02*
X141337619Y-159435952D01*
X141290000Y-159483571D01*
X141242380Y-159435952D01*
X141290000Y-159388333D01*
X141290000Y-159483571D01*
X142480476Y-158959761D02*
X141623333Y-160245476D01*
X143528095Y-158959761D02*
X142670952Y-160245476D01*
X144290000Y-159340714D02*
X144290000Y-160150238D01*
X144242380Y-160245476D01*
X144194761Y-160293095D01*
X144099523Y-160340714D01*
X143956666Y-160340714D01*
X143861428Y-160293095D01*
X144290000Y-159959761D02*
X144194761Y-160007380D01*
X144004285Y-160007380D01*
X143909047Y-159959761D01*
X143861428Y-159912142D01*
X143813809Y-159816904D01*
X143813809Y-159531190D01*
X143861428Y-159435952D01*
X143909047Y-159388333D01*
X144004285Y-159340714D01*
X144194761Y-159340714D01*
X144290000Y-159388333D01*
X144766190Y-160007380D02*
X144766190Y-159340714D01*
X144766190Y-159007380D02*
X144718571Y-159055000D01*
X144766190Y-159102619D01*
X144813809Y-159055000D01*
X144766190Y-159007380D01*
X144766190Y-159102619D01*
X145099523Y-159340714D02*
X145480476Y-159340714D01*
X145242380Y-159007380D02*
X145242380Y-159864523D01*
X145290000Y-159959761D01*
X145385238Y-160007380D01*
X145480476Y-160007380D01*
X145813809Y-160007380D02*
X145813809Y-159007380D01*
X146242380Y-160007380D02*
X146242380Y-159483571D01*
X146194761Y-159388333D01*
X146099523Y-159340714D01*
X145956666Y-159340714D01*
X145861428Y-159388333D01*
X145813809Y-159435952D01*
X147147142Y-159340714D02*
X147147142Y-160007380D01*
X146718571Y-159340714D02*
X146718571Y-159864523D01*
X146766190Y-159959761D01*
X146861428Y-160007380D01*
X147004285Y-160007380D01*
X147099523Y-159959761D01*
X147147142Y-159912142D01*
X147623333Y-160007380D02*
X147623333Y-159007380D01*
X147623333Y-159388333D02*
X147718571Y-159340714D01*
X147909047Y-159340714D01*
X148004285Y-159388333D01*
X148051904Y-159435952D01*
X148099523Y-159531190D01*
X148099523Y-159816904D01*
X148051904Y-159912142D01*
X148004285Y-159959761D01*
X147909047Y-160007380D01*
X147718571Y-160007380D01*
X147623333Y-159959761D01*
X148528095Y-159912142D02*
X148575714Y-159959761D01*
X148528095Y-160007380D01*
X148480476Y-159959761D01*
X148528095Y-159912142D01*
X148528095Y-160007380D01*
X149432857Y-159959761D02*
X149337619Y-160007380D01*
X149147142Y-160007380D01*
X149051904Y-159959761D01*
X149004285Y-159912142D01*
X148956666Y-159816904D01*
X148956666Y-159531190D01*
X149004285Y-159435952D01*
X149051904Y-159388333D01*
X149147142Y-159340714D01*
X149337619Y-159340714D01*
X149432857Y-159388333D01*
X150004285Y-160007380D02*
X149909047Y-159959761D01*
X149861428Y-159912142D01*
X149813809Y-159816904D01*
X149813809Y-159531190D01*
X149861428Y-159435952D01*
X149909047Y-159388333D01*
X150004285Y-159340714D01*
X150147142Y-159340714D01*
X150242380Y-159388333D01*
X150290000Y-159435952D01*
X150337619Y-159531190D01*
X150337619Y-159816904D01*
X150290000Y-159912142D01*
X150242380Y-159959761D01*
X150147142Y-160007380D01*
X150004285Y-160007380D01*
X150766190Y-160007380D02*
X150766190Y-159340714D01*
X150766190Y-159435952D02*
X150813809Y-159388333D01*
X150909047Y-159340714D01*
X151051904Y-159340714D01*
X151147142Y-159388333D01*
X151194761Y-159483571D01*
X151194761Y-160007380D01*
X151194761Y-159483571D02*
X151242380Y-159388333D01*
X151337619Y-159340714D01*
X151480476Y-159340714D01*
X151575714Y-159388333D01*
X151623333Y-159483571D01*
X151623333Y-160007380D01*
X152813809Y-158959761D02*
X151956666Y-160245476D01*
X153575714Y-160007380D02*
X153575714Y-159007380D01*
X153575714Y-159959761D02*
X153480476Y-160007380D01*
X153290000Y-160007380D01*
X153194761Y-159959761D01*
X153147142Y-159912142D01*
X153099523Y-159816904D01*
X153099523Y-159531190D01*
X153147142Y-159435952D01*
X153194761Y-159388333D01*
X153290000Y-159340714D01*
X153480476Y-159340714D01*
X153575714Y-159388333D01*
X154432857Y-159959761D02*
X154337619Y-160007380D01*
X154147142Y-160007380D01*
X154051904Y-159959761D01*
X154004285Y-159864523D01*
X154004285Y-159483571D01*
X154051904Y-159388333D01*
X154147142Y-159340714D01*
X154337619Y-159340714D01*
X154432857Y-159388333D01*
X154480476Y-159483571D01*
X154480476Y-159578809D01*
X154004285Y-159674047D01*
X154909047Y-160007380D02*
X154909047Y-159340714D01*
X154909047Y-159531190D02*
X154956666Y-159435952D01*
X155004285Y-159388333D01*
X155099523Y-159340714D01*
X155194761Y-159340714D01*
X155909047Y-159959761D02*
X155813809Y-160007380D01*
X155623333Y-160007380D01*
X155528095Y-159959761D01*
X155480476Y-159864523D01*
X155480476Y-159483571D01*
X155528095Y-159388333D01*
X155623333Y-159340714D01*
X155813809Y-159340714D01*
X155909047Y-159388333D01*
X155956666Y-159483571D01*
X155956666Y-159578809D01*
X155480476Y-159674047D01*
X156385238Y-160007380D02*
X156385238Y-159007380D01*
X156480476Y-159626428D02*
X156766190Y-160007380D01*
X156766190Y-159340714D02*
X156385238Y-159721666D01*
X157575714Y-159959761D02*
X157480476Y-160007380D01*
X157290000Y-160007380D01*
X157194761Y-159959761D01*
X157147142Y-159864523D01*
X157147142Y-159483571D01*
X157194761Y-159388333D01*
X157290000Y-159340714D01*
X157480476Y-159340714D01*
X157575714Y-159388333D01*
X157623333Y-159483571D01*
X157623333Y-159578809D01*
X157147142Y-159674047D01*
X158051904Y-159340714D02*
X158051904Y-160007380D01*
X158051904Y-159435952D02*
X158099523Y-159388333D01*
X158194761Y-159340714D01*
X158337619Y-159340714D01*
X158432857Y-159388333D01*
X158480476Y-159483571D01*
X158480476Y-160007380D01*
X159099523Y-160007380D02*
X159004285Y-159959761D01*
X158956666Y-159912142D01*
X158909047Y-159816904D01*
X158909047Y-159531190D01*
X158956666Y-159435952D01*
X159004285Y-159388333D01*
X159099523Y-159340714D01*
X159242380Y-159340714D01*
X159337619Y-159388333D01*
X159385238Y-159435952D01*
X159432857Y-159531190D01*
X159432857Y-159816904D01*
X159385238Y-159912142D01*
X159337619Y-159959761D01*
X159242380Y-160007380D01*
X159099523Y-160007380D01*
X159813809Y-159959761D02*
X159909047Y-160007380D01*
X160099523Y-160007380D01*
X160194761Y-159959761D01*
X160242380Y-159864523D01*
X160242380Y-159816904D01*
X160194761Y-159721666D01*
X160099523Y-159674047D01*
X159956666Y-159674047D01*
X159861428Y-159626428D01*
X159813809Y-159531190D01*
X159813809Y-159483571D01*
X159861428Y-159388333D01*
X159956666Y-159340714D01*
X160099523Y-159340714D01*
X160194761Y-159388333D01*
X161385238Y-158959761D02*
X160528095Y-160245476D01*
X161718571Y-160007380D02*
X161718571Y-159340714D01*
X161718571Y-159007380D02*
X161670952Y-159055000D01*
X161718571Y-159102619D01*
X161766190Y-159055000D01*
X161718571Y-159007380D01*
X161718571Y-159102619D01*
X162337619Y-160007380D02*
X162242380Y-159959761D01*
X162194761Y-159912142D01*
X162147142Y-159816904D01*
X162147142Y-159531190D01*
X162194761Y-159435952D01*
X162242380Y-159388333D01*
X162337619Y-159340714D01*
X162480476Y-159340714D01*
X162575714Y-159388333D01*
X162623333Y-159435952D01*
X162670952Y-159531190D01*
X162670952Y-159816904D01*
X162623333Y-159912142D01*
X162575714Y-159959761D01*
X162480476Y-160007380D01*
X162337619Y-160007380D01*
X163099523Y-160007380D02*
X163099523Y-159340714D01*
X163099523Y-159435952D02*
X163147142Y-159388333D01*
X163242380Y-159340714D01*
X163385238Y-159340714D01*
X163480476Y-159388333D01*
X163528095Y-159483571D01*
X163528095Y-160007380D01*
X163528095Y-159483571D02*
X163575714Y-159388333D01*
X163670952Y-159340714D01*
X163813809Y-159340714D01*
X163909047Y-159388333D01*
X163956666Y-159483571D01*
X163956666Y-160007380D01*
X164813809Y-159959761D02*
X164718571Y-160007380D01*
X164528095Y-160007380D01*
X164432857Y-159959761D01*
X164385238Y-159864523D01*
X164385238Y-159483571D01*
X164432857Y-159388333D01*
X164528095Y-159340714D01*
X164718571Y-159340714D01*
X164813809Y-159388333D01*
X164861428Y-159483571D01*
X164861428Y-159578809D01*
X164385238Y-159674047D01*
X166004285Y-158959761D02*
X165147142Y-160245476D01*
X166194761Y-159340714D02*
X166575714Y-159340714D01*
X166337619Y-159007380D02*
X166337619Y-159864523D01*
X166385238Y-159959761D01*
X166480476Y-160007380D01*
X166575714Y-160007380D01*
X166909047Y-160007380D02*
X166909047Y-159340714D01*
X166909047Y-159531190D02*
X166956666Y-159435952D01*
X167004285Y-159388333D01*
X167099523Y-159340714D01*
X167194761Y-159340714D01*
X167909047Y-159959761D02*
X167813809Y-160007380D01*
X167623333Y-160007380D01*
X167528095Y-159959761D01*
X167480476Y-159864523D01*
X167480476Y-159483571D01*
X167528095Y-159388333D01*
X167623333Y-159340714D01*
X167813809Y-159340714D01*
X167909047Y-159388333D01*
X167956666Y-159483571D01*
X167956666Y-159578809D01*
X167480476Y-159674047D01*
X168766190Y-159959761D02*
X168670952Y-160007380D01*
X168480476Y-160007380D01*
X168385238Y-159959761D01*
X168337619Y-159864523D01*
X168337619Y-159483571D01*
X168385238Y-159388333D01*
X168480476Y-159340714D01*
X168670952Y-159340714D01*
X168766190Y-159388333D01*
X168813809Y-159483571D01*
X168813809Y-159578809D01*
X168337619Y-159674047D01*
X169956666Y-158959761D02*
X169099523Y-160245476D01*
X170290000Y-160007380D02*
X170290000Y-159340714D01*
X170290000Y-159435952D02*
X170337619Y-159388333D01*
X170432857Y-159340714D01*
X170575714Y-159340714D01*
X170670952Y-159388333D01*
X170718571Y-159483571D01*
X170718571Y-160007380D01*
X170718571Y-159483571D02*
X170766190Y-159388333D01*
X170861428Y-159340714D01*
X171004285Y-159340714D01*
X171099523Y-159388333D01*
X171147142Y-159483571D01*
X171147142Y-160007380D01*
X172051904Y-160007380D02*
X172051904Y-159483571D01*
X172004285Y-159388333D01*
X171909047Y-159340714D01*
X171718571Y-159340714D01*
X171623333Y-159388333D01*
X172051904Y-159959761D02*
X171956666Y-160007380D01*
X171718571Y-160007380D01*
X171623333Y-159959761D01*
X171575714Y-159864523D01*
X171575714Y-159769285D01*
X171623333Y-159674047D01*
X171718571Y-159626428D01*
X171956666Y-159626428D01*
X172051904Y-159578809D01*
X172480476Y-159959761D02*
X172575714Y-160007380D01*
X172766190Y-160007380D01*
X172861428Y-159959761D01*
X172909047Y-159864523D01*
X172909047Y-159816904D01*
X172861428Y-159721666D01*
X172766190Y-159674047D01*
X172623333Y-159674047D01*
X172528095Y-159626428D01*
X172480476Y-159531190D01*
X172480476Y-159483571D01*
X172528095Y-159388333D01*
X172623333Y-159340714D01*
X172766190Y-159340714D01*
X172861428Y-159388333D01*
X173194761Y-159340714D02*
X173575714Y-159340714D01*
X173337619Y-159007380D02*
X173337619Y-159864523D01*
X173385238Y-159959761D01*
X173480476Y-160007380D01*
X173575714Y-160007380D01*
X174290000Y-159959761D02*
X174194761Y-160007380D01*
X174004285Y-160007380D01*
X173909047Y-159959761D01*
X173861428Y-159864523D01*
X173861428Y-159483571D01*
X173909047Y-159388333D01*
X174004285Y-159340714D01*
X174194761Y-159340714D01*
X174290000Y-159388333D01*
X174337619Y-159483571D01*
X174337619Y-159578809D01*
X173861428Y-159674047D01*
X174766190Y-160007380D02*
X174766190Y-159340714D01*
X174766190Y-159531190D02*
X174813809Y-159435952D01*
X174861428Y-159388333D01*
X174956666Y-159340714D01*
X175051904Y-159340714D01*
X176099523Y-158959761D02*
X175242380Y-160245476D01*
X176861428Y-160007380D02*
X176861428Y-159483571D01*
X176813809Y-159388333D01*
X176718571Y-159340714D01*
X176528095Y-159340714D01*
X176432857Y-159388333D01*
X176861428Y-159959761D02*
X176766190Y-160007380D01*
X176528095Y-160007380D01*
X176432857Y-159959761D01*
X176385238Y-159864523D01*
X176385238Y-159769285D01*
X176432857Y-159674047D01*
X176528095Y-159626428D01*
X176766190Y-159626428D01*
X176861428Y-159578809D01*
X177337619Y-159340714D02*
X177337619Y-160340714D01*
X177337619Y-159388333D02*
X177432857Y-159340714D01*
X177623333Y-159340714D01*
X177718571Y-159388333D01*
X177766190Y-159435952D01*
X177813809Y-159531190D01*
X177813809Y-159816904D01*
X177766190Y-159912142D01*
X177718571Y-159959761D01*
X177623333Y-160007380D01*
X177432857Y-160007380D01*
X177337619Y-159959761D01*
X178242380Y-159340714D02*
X178242380Y-160340714D01*
X178242380Y-159388333D02*
X178337619Y-159340714D01*
X178528095Y-159340714D01*
X178623333Y-159388333D01*
X178670952Y-159435952D01*
X178718571Y-159531190D01*
X178718571Y-159816904D01*
X178670952Y-159912142D01*
X178623333Y-159959761D01*
X178528095Y-160007380D01*
X178337619Y-160007380D01*
X178242380Y-159959761D01*
X179290000Y-160007380D02*
X179194761Y-159959761D01*
X179147142Y-159864523D01*
X179147142Y-159007380D01*
X179670952Y-160007380D02*
X179670952Y-159340714D01*
X179670952Y-159007380D02*
X179623333Y-159055000D01*
X179670952Y-159102619D01*
X179718571Y-159055000D01*
X179670952Y-159007380D01*
X179670952Y-159102619D01*
X180575714Y-160007380D02*
X180575714Y-159483571D01*
X180528095Y-159388333D01*
X180432857Y-159340714D01*
X180242380Y-159340714D01*
X180147142Y-159388333D01*
X180575714Y-159959761D02*
X180480476Y-160007380D01*
X180242380Y-160007380D01*
X180147142Y-159959761D01*
X180099523Y-159864523D01*
X180099523Y-159769285D01*
X180147142Y-159674047D01*
X180242380Y-159626428D01*
X180480476Y-159626428D01*
X180575714Y-159578809D01*
X181051904Y-159340714D02*
X181051904Y-160007380D01*
X181051904Y-159435952D02*
X181099523Y-159388333D01*
X181194761Y-159340714D01*
X181337619Y-159340714D01*
X181432857Y-159388333D01*
X181480476Y-159483571D01*
X181480476Y-160007380D01*
X182385238Y-159959761D02*
X182290000Y-160007380D01*
X182099523Y-160007380D01*
X182004285Y-159959761D01*
X181956666Y-159912142D01*
X181909047Y-159816904D01*
X181909047Y-159531190D01*
X181956666Y-159435952D01*
X182004285Y-159388333D01*
X182099523Y-159340714D01*
X182290000Y-159340714D01*
X182385238Y-159388333D01*
X183194761Y-159959761D02*
X183099523Y-160007380D01*
X182909047Y-160007380D01*
X182813809Y-159959761D01*
X182766190Y-159864523D01*
X182766190Y-159483571D01*
X182813809Y-159388333D01*
X182909047Y-159340714D01*
X183099523Y-159340714D01*
X183194761Y-159388333D01*
X183242380Y-159483571D01*
X183242380Y-159578809D01*
X182766190Y-159674047D01*
X183623333Y-159959761D02*
X183718571Y-160007380D01*
X183909047Y-160007380D01*
X184004285Y-159959761D01*
X184051904Y-159864523D01*
X184051904Y-159816904D01*
X184004285Y-159721666D01*
X183909047Y-159674047D01*
X183766190Y-159674047D01*
X183670952Y-159626428D01*
X183623333Y-159531190D01*
X183623333Y-159483571D01*
X183670952Y-159388333D01*
X183766190Y-159340714D01*
X183909047Y-159340714D01*
X184004285Y-159388333D01*
X185194761Y-158959761D02*
X184337619Y-160245476D01*
X185480476Y-159959761D02*
X185575714Y-160007380D01*
X185766190Y-160007380D01*
X185861428Y-159959761D01*
X185909047Y-159864523D01*
X185909047Y-159816904D01*
X185861428Y-159721666D01*
X185766190Y-159674047D01*
X185623333Y-159674047D01*
X185528095Y-159626428D01*
X185480476Y-159531190D01*
X185480476Y-159483571D01*
X185528095Y-159388333D01*
X185623333Y-159340714D01*
X185766190Y-159340714D01*
X185861428Y-159388333D01*
X186337619Y-160007380D02*
X186337619Y-159007380D01*
X186432857Y-159626428D02*
X186718571Y-160007380D01*
X186718571Y-159340714D02*
X186337619Y-159721666D01*
X187528095Y-159959761D02*
X187432857Y-160007380D01*
X187242380Y-160007380D01*
X187147142Y-159959761D01*
X187099523Y-159864523D01*
X187099523Y-159483571D01*
X187147142Y-159388333D01*
X187242380Y-159340714D01*
X187432857Y-159340714D01*
X187528095Y-159388333D01*
X187575714Y-159483571D01*
X187575714Y-159578809D01*
X187099523Y-159674047D01*
X187861428Y-159340714D02*
X188242380Y-159340714D01*
X188004285Y-159007380D02*
X188004285Y-159864523D01*
X188051904Y-159959761D01*
X188147142Y-160007380D01*
X188242380Y-160007380D01*
X189004285Y-159959761D02*
X188909047Y-160007380D01*
X188718571Y-160007380D01*
X188623333Y-159959761D01*
X188575714Y-159912142D01*
X188528095Y-159816904D01*
X188528095Y-159531190D01*
X188575714Y-159435952D01*
X188623333Y-159388333D01*
X188718571Y-159340714D01*
X188909047Y-159340714D01*
X189004285Y-159388333D01*
X189432857Y-160007380D02*
X189432857Y-159007380D01*
X189861428Y-160007380D02*
X189861428Y-159483571D01*
X189813809Y-159388333D01*
X189718571Y-159340714D01*
X189575714Y-159340714D01*
X189480476Y-159388333D01*
X189432857Y-159435952D01*
X190242380Y-159340714D02*
X190480476Y-160007380D01*
X190718571Y-159340714D02*
X190480476Y-160007380D01*
X190385238Y-160245476D01*
X190337619Y-160293095D01*
X190242380Y-160340714D01*
D10*
X150201428Y-104881071D02*
X149344285Y-104881071D01*
X149772857Y-104881071D02*
X149772857Y-103381071D01*
X149630000Y-103595357D01*
X149487142Y-103738214D01*
X149344285Y-103809642D01*
X150772857Y-103523928D02*
X150844285Y-103452500D01*
X150987142Y-103381071D01*
X151344285Y-103381071D01*
X151487142Y-103452500D01*
X151558571Y-103523928D01*
X151630000Y-103666785D01*
X151630000Y-103809642D01*
X151558571Y-104023928D01*
X150701428Y-104881071D01*
X151630000Y-104881071D01*
X152058571Y-103381071D02*
X152558571Y-104881071D01*
X153058571Y-103381071D01*
X147272857Y-107296071D02*
X147272857Y-105796071D01*
X147844285Y-105796071D01*
X147987142Y-105867500D01*
X148058571Y-105938928D01*
X148130000Y-106081785D01*
X148130000Y-106296071D01*
X148058571Y-106438928D01*
X147987142Y-106510357D01*
X147844285Y-106581785D01*
X147272857Y-106581785D01*
X148987142Y-107296071D02*
X148844285Y-107224642D01*
X148772857Y-107153214D01*
X148701428Y-107010357D01*
X148701428Y-106581785D01*
X148772857Y-106438928D01*
X148844285Y-106367500D01*
X148987142Y-106296071D01*
X149201428Y-106296071D01*
X149344285Y-106367500D01*
X149415714Y-106438928D01*
X149487142Y-106581785D01*
X149487142Y-107010357D01*
X149415714Y-107153214D01*
X149344285Y-107224642D01*
X149201428Y-107296071D01*
X148987142Y-107296071D01*
X150058571Y-107224642D02*
X150201428Y-107296071D01*
X150487142Y-107296071D01*
X150630000Y-107224642D01*
X150701428Y-107081785D01*
X150701428Y-107010357D01*
X150630000Y-106867500D01*
X150487142Y-106796071D01*
X150272857Y-106796071D01*
X150130000Y-106724642D01*
X150058571Y-106581785D01*
X150058571Y-106510357D01*
X150130000Y-106367500D01*
X150272857Y-106296071D01*
X150487142Y-106296071D01*
X150630000Y-106367500D01*
X152272857Y-105796071D02*
X153130000Y-105796071D01*
X152701428Y-107296071D02*
X152701428Y-105796071D01*
X153630000Y-107296071D02*
X153630000Y-106296071D01*
X153630000Y-105796071D02*
X153558571Y-105867500D01*
X153630000Y-105938928D01*
X153701428Y-105867500D01*
X153630000Y-105796071D01*
X153630000Y-105938928D01*
X154344285Y-106296071D02*
X154344285Y-107796071D01*
X154344285Y-106367500D02*
X154487142Y-106296071D01*
X154772857Y-106296071D01*
X154915714Y-106367500D01*
X154987142Y-106438928D01*
X155058571Y-106581785D01*
X155058571Y-107010357D01*
X154987142Y-107153214D01*
X154915714Y-107224642D01*
X154772857Y-107296071D01*
X154487142Y-107296071D01*
X154344285Y-107224642D01*
X138534438Y-123830101D02*
X138463010Y-123901530D01*
X138320152Y-123972958D01*
X137963010Y-123972958D01*
X137820152Y-123901530D01*
X137748724Y-123830101D01*
X137677295Y-123687244D01*
X137677295Y-123544387D01*
X137748724Y-123330101D01*
X138605867Y-122472958D01*
X137677295Y-122472958D01*
X137105867Y-122901530D02*
X136391581Y-122901530D01*
X137248724Y-122472958D02*
X136748724Y-123972958D01*
X136248724Y-122472958D01*
X137677295Y-119932958D02*
X138534438Y-119932958D01*
X138105867Y-119932958D02*
X138105867Y-121432958D01*
X138248724Y-121218672D01*
X138391581Y-121075815D01*
X138534438Y-121004387D01*
X137105867Y-120361530D02*
X136391581Y-120361530D01*
X137248724Y-119932958D02*
X136748724Y-121432958D01*
X136248724Y-119932958D01*
X137784438Y-117392958D02*
X138641581Y-117392958D01*
X138213010Y-117392958D02*
X138213010Y-118892958D01*
X138355867Y-118678672D01*
X138498724Y-118535815D01*
X138641581Y-118464387D01*
X136641581Y-118178672D02*
X136427295Y-118107244D01*
X136355867Y-118035815D01*
X136284438Y-117892958D01*
X136284438Y-117678672D01*
X136355867Y-117535815D01*
X136427295Y-117464387D01*
X136570152Y-117392958D01*
X137141581Y-117392958D01*
X137141581Y-118892958D01*
X136641581Y-118892958D01*
X136498724Y-118821530D01*
X136427295Y-118750101D01*
X136355867Y-118607244D01*
X136355867Y-118464387D01*
X136427295Y-118321530D01*
X136498724Y-118250101D01*
X136641581Y-118178672D01*
X137141581Y-118178672D01*
X138641581Y-126370101D02*
X138570152Y-126441530D01*
X138427295Y-126512958D01*
X138070152Y-126512958D01*
X137927295Y-126441530D01*
X137855867Y-126370101D01*
X137784438Y-126227244D01*
X137784438Y-126084387D01*
X137855867Y-125870101D01*
X138713010Y-125012958D01*
X137784438Y-125012958D01*
X136641581Y-125798672D02*
X136427295Y-125727244D01*
X136355867Y-125655815D01*
X136284438Y-125512958D01*
X136284438Y-125298672D01*
X136355867Y-125155815D01*
X136427295Y-125084387D01*
X136570152Y-125012958D01*
X137141581Y-125012958D01*
X137141581Y-126512958D01*
X136641581Y-126512958D01*
X136498724Y-126441530D01*
X136427295Y-126370101D01*
X136355867Y-126227244D01*
X136355867Y-126084387D01*
X136427295Y-125941530D01*
X136498724Y-125870101D01*
X136641581Y-125798672D01*
X137141581Y-125798672D01*
X138641581Y-150500101D02*
X138570152Y-150571530D01*
X138427295Y-150642958D01*
X138070152Y-150642958D01*
X137927295Y-150571530D01*
X137855867Y-150500101D01*
X137784438Y-150357244D01*
X137784438Y-150214387D01*
X137855867Y-150000101D01*
X138713010Y-149142958D01*
X137784438Y-149142958D01*
X136641581Y-149928672D02*
X136427295Y-149857244D01*
X136355867Y-149785815D01*
X136284438Y-149642958D01*
X136284438Y-149428672D01*
X136355867Y-149285815D01*
X136427295Y-149214387D01*
X136570152Y-149142958D01*
X137141581Y-149142958D01*
X137141581Y-150642958D01*
X136641581Y-150642958D01*
X136498724Y-150571530D01*
X136427295Y-150500101D01*
X136355867Y-150357244D01*
X136355867Y-150214387D01*
X136427295Y-150071530D01*
X136498724Y-150000101D01*
X136641581Y-149928672D01*
X137141581Y-149928672D01*
X138534438Y-147960101D02*
X138463010Y-148031530D01*
X138320152Y-148102958D01*
X137963010Y-148102958D01*
X137820152Y-148031530D01*
X137748724Y-147960101D01*
X137677295Y-147817244D01*
X137677295Y-147674387D01*
X137748724Y-147460101D01*
X138605867Y-146602958D01*
X137677295Y-146602958D01*
X137105867Y-147031530D02*
X136391581Y-147031530D01*
X137248724Y-146602958D02*
X136748724Y-148102958D01*
X136248724Y-146602958D01*
X137677295Y-144062958D02*
X138534438Y-144062958D01*
X138105867Y-144062958D02*
X138105867Y-145562958D01*
X138248724Y-145348672D01*
X138391581Y-145205815D01*
X138534438Y-145134387D01*
X137105867Y-144491530D02*
X136391581Y-144491530D01*
X137248724Y-144062958D02*
X136748724Y-145562958D01*
X136248724Y-144062958D01*
X137784438Y-141522958D02*
X138641581Y-141522958D01*
X138213010Y-141522958D02*
X138213010Y-143022958D01*
X138355867Y-142808672D01*
X138498724Y-142665815D01*
X138641581Y-142594387D01*
X136641581Y-142308672D02*
X136427295Y-142237244D01*
X136355867Y-142165815D01*
X136284438Y-142022958D01*
X136284438Y-141808672D01*
X136355867Y-141665815D01*
X136427295Y-141594387D01*
X136570152Y-141522958D01*
X137141581Y-141522958D01*
X137141581Y-143022958D01*
X136641581Y-143022958D01*
X136498724Y-142951530D01*
X136427295Y-142880101D01*
X136355867Y-142737244D01*
X136355867Y-142594387D01*
X136427295Y-142451530D01*
X136498724Y-142380101D01*
X136641581Y-142308672D01*
X137141581Y-142308672D01*
X133314285Y-134865714D02*
X134028571Y-134865714D01*
X132528571Y-135365714D02*
X133314285Y-134865714D01*
X132528571Y-134365714D01*
X133600000Y-132794285D02*
X133600000Y-132080000D01*
X134028571Y-132937142D02*
X132528571Y-132437142D01*
X134028571Y-131937142D01*
X134028571Y-131580000D02*
X133028571Y-130794285D01*
X133028571Y-131580000D02*
X134028571Y-130794285D01*
X134028571Y-130222857D02*
X133028571Y-130222857D01*
X132528571Y-130222857D02*
X132600000Y-130294285D01*
X132671428Y-130222857D01*
X132600000Y-130151428D01*
X132528571Y-130222857D01*
X132671428Y-130222857D01*
X133957142Y-129580000D02*
X134028571Y-129437142D01*
X134028571Y-129151428D01*
X133957142Y-129008571D01*
X133814285Y-128937142D01*
X133742857Y-128937142D01*
X133600000Y-129008571D01*
X133528571Y-129151428D01*
X133528571Y-129365714D01*
X133457142Y-129508571D01*
X133314285Y-129580000D01*
X133242857Y-129580000D01*
X133100000Y-129508571D01*
X133028571Y-129365714D01*
X133028571Y-129151428D01*
X133100000Y-129008571D01*
X132528571Y-159495714D02*
X134028571Y-158495714D01*
X132528571Y-158495714D02*
X134028571Y-159495714D01*
X133600000Y-156852857D02*
X133600000Y-156138571D01*
X134028571Y-156995714D02*
X132528571Y-156495714D01*
X134028571Y-155995714D01*
X134028571Y-155638571D02*
X133028571Y-154852857D01*
X133028571Y-155638571D02*
X134028571Y-154852857D01*
X134028571Y-154281428D02*
X133028571Y-154281428D01*
X132528571Y-154281428D02*
X132600000Y-154352857D01*
X132671428Y-154281428D01*
X132600000Y-154210000D01*
X132528571Y-154281428D01*
X132671428Y-154281428D01*
X133957142Y-153638571D02*
X134028571Y-153495714D01*
X134028571Y-153210000D01*
X133957142Y-153067142D01*
X133814285Y-152995714D01*
X133742857Y-152995714D01*
X133600000Y-153067142D01*
X133528571Y-153210000D01*
X133528571Y-153424285D01*
X133457142Y-153567142D01*
X133314285Y-153638571D01*
X133242857Y-153638571D01*
X133100000Y-153567142D01*
X133028571Y-153424285D01*
X133028571Y-153210000D01*
X133100000Y-153067142D01*
D12*
X162620000Y-106620000D02*
X159960000Y-106620000D01*
X162620000Y-127000000D02*
X162620000Y-106620000D01*
X159960000Y-127000000D02*
X159960000Y-106620000D01*
X162620000Y-127000000D02*
X159960000Y-127000000D01*
X162620000Y-128270000D02*
X162620000Y-129600000D01*
X162620000Y-129600000D02*
X161290000Y-129600000D01*
X190560000Y-106620000D02*
X187900000Y-106620000D01*
X190560000Y-147320000D02*
X190560000Y-106620000D01*
X187900000Y-147320000D02*
X187900000Y-106620000D01*
X190560000Y-147320000D02*
X187900000Y-147320000D01*
X190560000Y-148590000D02*
X190560000Y-149920000D01*
X190560000Y-149920000D02*
X189230000Y-149920000D01*
X135890000Y-127000000D02*
X134620000Y-127000000D01*
X135890000Y-125730000D02*
X135890000Y-127000000D01*
X133577071Y-117730000D02*
X133180000Y-117730000D01*
X133577071Y-118490000D02*
X133180000Y-118490000D01*
X124520000Y-117730000D02*
X130520000Y-117730000D01*
X124520000Y-118490000D02*
X124520000Y-117730000D01*
X130520000Y-118490000D02*
X124520000Y-118490000D01*
X133180000Y-119380000D02*
X130520000Y-119380000D01*
X133577071Y-120270000D02*
X133180000Y-120270000D01*
X133577071Y-121030000D02*
X133180000Y-121030000D01*
X124520000Y-120270000D02*
X130520000Y-120270000D01*
X124520000Y-121030000D02*
X124520000Y-120270000D01*
X130520000Y-121030000D02*
X124520000Y-121030000D01*
X133180000Y-121920000D02*
X130520000Y-121920000D01*
X133577071Y-122810000D02*
X133180000Y-122810000D01*
X133577071Y-123570000D02*
X133180000Y-123570000D01*
X124520000Y-122810000D02*
X130520000Y-122810000D01*
X124520000Y-123570000D02*
X124520000Y-122810000D01*
X130520000Y-123570000D02*
X124520000Y-123570000D01*
X133180000Y-124460000D02*
X130520000Y-124460000D01*
X133510000Y-125350000D02*
X133180000Y-125350000D01*
X133510000Y-126110000D02*
X133180000Y-126110000D01*
X130520000Y-125450000D02*
X124520000Y-125450000D01*
X130520000Y-125570000D02*
X124520000Y-125570000D01*
X130520000Y-125690000D02*
X124520000Y-125690000D01*
X130520000Y-125810000D02*
X124520000Y-125810000D01*
X130520000Y-125930000D02*
X124520000Y-125930000D01*
X130520000Y-126050000D02*
X124520000Y-126050000D01*
X124520000Y-125350000D02*
X130520000Y-125350000D01*
X124520000Y-126110000D02*
X124520000Y-125350000D01*
X130520000Y-126110000D02*
X124520000Y-126110000D01*
X130520000Y-127060000D02*
X133180000Y-127060000D01*
X130520000Y-116780000D02*
X130520000Y-127060000D01*
X133180000Y-116780000D02*
X130520000Y-116780000D01*
X133180000Y-127060000D02*
X133180000Y-116780000D01*
X135890000Y-151130000D02*
X134620000Y-151130000D01*
X135890000Y-149860000D02*
X135890000Y-151130000D01*
X133577071Y-141860000D02*
X133180000Y-141860000D01*
X133577071Y-142620000D02*
X133180000Y-142620000D01*
X124520000Y-141860000D02*
X130520000Y-141860000D01*
X124520000Y-142620000D02*
X124520000Y-141860000D01*
X130520000Y-142620000D02*
X124520000Y-142620000D01*
X133180000Y-143510000D02*
X130520000Y-143510000D01*
X133577071Y-144400000D02*
X133180000Y-144400000D01*
X133577071Y-145160000D02*
X133180000Y-145160000D01*
X124520000Y-144400000D02*
X130520000Y-144400000D01*
X124520000Y-145160000D02*
X124520000Y-144400000D01*
X130520000Y-145160000D02*
X124520000Y-145160000D01*
X133180000Y-146050000D02*
X130520000Y-146050000D01*
X133577071Y-146940000D02*
X133180000Y-146940000D01*
X133577071Y-147700000D02*
X133180000Y-147700000D01*
X124520000Y-146940000D02*
X130520000Y-146940000D01*
X124520000Y-147700000D02*
X124520000Y-146940000D01*
X130520000Y-147700000D02*
X124520000Y-147700000D01*
X133180000Y-148590000D02*
X130520000Y-148590000D01*
X133510000Y-149480000D02*
X133180000Y-149480000D01*
X133510000Y-150240000D02*
X133180000Y-150240000D01*
X130520000Y-149580000D02*
X124520000Y-149580000D01*
X130520000Y-149700000D02*
X124520000Y-149700000D01*
X130520000Y-149820000D02*
X124520000Y-149820000D01*
X130520000Y-149940000D02*
X124520000Y-149940000D01*
X130520000Y-150060000D02*
X124520000Y-150060000D01*
X130520000Y-150180000D02*
X124520000Y-150180000D01*
X124520000Y-149480000D02*
X130520000Y-149480000D01*
X124520000Y-150240000D02*
X124520000Y-149480000D01*
X130520000Y-150240000D02*
X124520000Y-150240000D01*
X130520000Y-151190000D02*
X133180000Y-151190000D01*
X130520000Y-140910000D02*
X130520000Y-151190000D01*
X133180000Y-140910000D02*
X130520000Y-140910000D01*
X133180000Y-151190000D02*
X133180000Y-140910000D01*
X155070000Y-111630000D02*
X142240000Y-111630000D01*
X155070000Y-132210000D02*
X155070000Y-111630000D01*
X139570000Y-132210000D02*
X155070000Y-132210000D01*
X139570000Y-114300000D02*
X139570000Y-132210000D01*
X142240000Y-114300000D02*
X139570000Y-114300000D01*
X142240000Y-111630000D02*
X142240000Y-114300000D01*
X139570000Y-111630000D02*
X139570000Y-113030000D01*
X140970000Y-111630000D02*
X139570000Y-111630000D01*
X142240000Y-114300000D02*
X142240000Y-132210000D01*
X152400000Y-111630000D02*
X152400000Y-132210000D01*
X155070000Y-135760000D02*
X142240000Y-135760000D01*
X155070000Y-156340000D02*
X155070000Y-135760000D01*
X139570000Y-156340000D02*
X155070000Y-156340000D01*
X139570000Y-138430000D02*
X139570000Y-156340000D01*
X142240000Y-138430000D02*
X139570000Y-138430000D01*
X142240000Y-135760000D02*
X142240000Y-138430000D01*
X139570000Y-135760000D02*
X139570000Y-137160000D01*
X140970000Y-135760000D02*
X139570000Y-135760000D01*
X142240000Y-138430000D02*
X142240000Y-156340000D01*
X152400000Y-135760000D02*
X152400000Y-156340000D01*
X180483333Y-149860000D02*
X185849999Y-149860000D01*
X180483333Y-149530000D02*
X180483333Y-149860000D01*
X170036667Y-149530000D02*
X180483333Y-149530000D01*
X170036667Y-149890000D02*
X170036667Y-149530000D01*
X164670000Y-149890000D02*
X170036667Y-149890000D01*
X164670001Y-99060000D02*
X164670000Y-149890000D01*
X185850000Y-99060000D02*
X164670001Y-99060000D01*
X185849999Y-149860000D02*
X185850000Y-99060000D01*
X139980000Y-107850000D02*
X130980000Y-107850000D01*
X130980000Y-107850000D02*
X130980000Y-98650000D01*
X130980000Y-98650000D02*
X145580000Y-98650000D01*
X145580000Y-98650000D02*
X145580000Y-101450000D01*
X145580000Y-105050000D02*
X145580000Y-107850000D01*
X145580000Y-107850000D02*
X143580000Y-107850000D01*
X144080000Y-98410000D02*
X145820000Y-98410000D01*
X145820000Y-98410000D02*
X145820000Y-100150000D01*
D13*
X159956666Y-131052380D02*
X159623333Y-130576190D01*
X159385238Y-131052380D02*
X159385238Y-130052380D01*
X159766190Y-130052380D01*
X159861428Y-130100000D01*
X159909047Y-130147619D01*
X159956666Y-130242857D01*
X159956666Y-130385714D01*
X159909047Y-130480952D01*
X159861428Y-130528571D01*
X159766190Y-130576190D01*
X159385238Y-130576190D01*
X160385238Y-130528571D02*
X160718571Y-130528571D01*
X160861428Y-131052380D02*
X160385238Y-131052380D01*
X160385238Y-130052380D01*
X160861428Y-130052380D01*
X161623333Y-130528571D02*
X161290000Y-130528571D01*
X161290000Y-131052380D02*
X161290000Y-130052380D01*
X161766190Y-130052380D01*
X162290000Y-130052380D02*
X162290000Y-130290476D01*
X162051904Y-130195238D02*
X162290000Y-130290476D01*
X162528095Y-130195238D01*
X162147142Y-130480952D02*
X162290000Y-130290476D01*
X162432857Y-130480952D01*
X163051904Y-130052380D02*
X163051904Y-130290476D01*
X162813809Y-130195238D02*
X163051904Y-130290476D01*
X163290000Y-130195238D01*
X162909047Y-130480952D02*
X163051904Y-130290476D01*
X163194761Y-130480952D01*
X187896666Y-151372380D02*
X187563333Y-150896190D01*
X187325238Y-151372380D02*
X187325238Y-150372380D01*
X187706190Y-150372380D01*
X187801428Y-150420000D01*
X187849047Y-150467619D01*
X187896666Y-150562857D01*
X187896666Y-150705714D01*
X187849047Y-150800952D01*
X187801428Y-150848571D01*
X187706190Y-150896190D01*
X187325238Y-150896190D01*
X188325238Y-150848571D02*
X188658571Y-150848571D01*
X188801428Y-151372380D02*
X188325238Y-151372380D01*
X188325238Y-150372380D01*
X188801428Y-150372380D01*
X189563333Y-150848571D02*
X189230000Y-150848571D01*
X189230000Y-151372380D02*
X189230000Y-150372380D01*
X189706190Y-150372380D01*
X190230000Y-150372380D02*
X190230000Y-150610476D01*
X189991904Y-150515238D02*
X190230000Y-150610476D01*
X190468095Y-150515238D01*
X190087142Y-150800952D02*
X190230000Y-150610476D01*
X190372857Y-150800952D01*
X190991904Y-150372380D02*
X190991904Y-150610476D01*
X190753809Y-150515238D02*
X190991904Y-150610476D01*
X191230000Y-150515238D01*
X190849047Y-150800952D02*
X190991904Y-150610476D01*
X191134761Y-150800952D01*
X136342380Y-135429523D02*
X135342380Y-135429523D01*
X136056666Y-135096190D01*
X135342380Y-134762857D01*
X136342380Y-134762857D01*
X135437619Y-134334285D02*
X135390000Y-134286666D01*
X135342380Y-134191428D01*
X135342380Y-133953333D01*
X135390000Y-133858095D01*
X135437619Y-133810476D01*
X135532857Y-133762857D01*
X135628095Y-133762857D01*
X135770952Y-133810476D01*
X136342380Y-134381904D01*
X136342380Y-133762857D01*
X136342380Y-159559523D02*
X135342380Y-159559523D01*
X136056666Y-159226190D01*
X135342380Y-158892857D01*
X136342380Y-158892857D01*
X136342380Y-157892857D02*
X136342380Y-158464285D01*
X136342380Y-158178571D02*
X135342380Y-158178571D01*
X135485238Y-158273809D01*
X135580476Y-158369047D01*
X135628095Y-158464285D01*
X146605714Y-110656666D02*
X147081904Y-110656666D01*
X146510476Y-110942380D02*
X146843809Y-109942380D01*
X147177142Y-110942380D01*
X147462857Y-110037619D02*
X147510476Y-109990000D01*
X147605714Y-109942380D01*
X147843809Y-109942380D01*
X147939047Y-109990000D01*
X147986666Y-110037619D01*
X148034285Y-110132857D01*
X148034285Y-110228095D01*
X147986666Y-110370952D01*
X147415238Y-110942380D01*
X148034285Y-110942380D01*
X146605714Y-134786666D02*
X147081904Y-134786666D01*
X146510476Y-135072380D02*
X146843809Y-134072380D01*
X147177142Y-135072380D01*
X148034285Y-135072380D02*
X147462857Y-135072380D01*
X147748571Y-135072380D02*
X147748571Y-134072380D01*
X147653333Y-134215238D01*
X147558095Y-134310476D01*
X147462857Y-134358095D01*
X174498095Y-150342380D02*
X174498095Y-151151904D01*
X174545714Y-151247142D01*
X174593333Y-151294761D01*
X174688571Y-151342380D01*
X174879047Y-151342380D01*
X174974285Y-151294761D01*
X175021904Y-151247142D01*
X175069523Y-151151904D01*
X175069523Y-150342380D01*
X176069523Y-151342380D02*
X175498095Y-151342380D01*
X175783809Y-151342380D02*
X175783809Y-150342380D01*
X175688571Y-150485238D01*
X175593333Y-150580476D01*
X175498095Y-150628095D01*
D10*
X175117142Y-136983809D02*
X175117142Y-136317142D01*
X176164761Y-136031428D02*
X176164761Y-136983809D01*
X174164761Y-136983809D01*
X174164761Y-136031428D01*
X176069523Y-135269523D02*
X176164761Y-134983809D01*
X176164761Y-134507619D01*
X176069523Y-134317142D01*
X175974285Y-134221904D01*
X175783809Y-134126666D01*
X175593333Y-134126666D01*
X175402857Y-134221904D01*
X175307619Y-134317142D01*
X175212380Y-134507619D01*
X175117142Y-134888571D01*
X175021904Y-135079047D01*
X174926666Y-135174285D01*
X174736190Y-135269523D01*
X174545714Y-135269523D01*
X174355238Y-135174285D01*
X174260000Y-135079047D01*
X174164761Y-134888571D01*
X174164761Y-134412380D01*
X174260000Y-134126666D01*
X176164761Y-133269523D02*
X174164761Y-133269523D01*
X174164761Y-132507619D01*
X174260000Y-132317142D01*
X174355238Y-132221904D01*
X174545714Y-132126666D01*
X174831428Y-132126666D01*
X175021904Y-132221904D01*
X175117142Y-132317142D01*
X175212380Y-132507619D01*
X175212380Y-133269523D01*
X174164761Y-131460000D02*
X174164761Y-130221904D01*
X174926666Y-130888571D01*
X174926666Y-130602857D01*
X175021904Y-130412380D01*
X175117142Y-130317142D01*
X175307619Y-130221904D01*
X175783809Y-130221904D01*
X175974285Y-130317142D01*
X176069523Y-130412380D01*
X176164761Y-130602857D01*
X176164761Y-131174285D01*
X176069523Y-131364761D01*
X175974285Y-131460000D01*
X174355238Y-129460000D02*
X174260000Y-129364761D01*
X174164761Y-129174285D01*
X174164761Y-128698095D01*
X174260000Y-128507619D01*
X174355238Y-128412380D01*
X174545714Y-128317142D01*
X174736190Y-128317142D01*
X175021904Y-128412380D01*
X176164761Y-129555238D01*
X176164761Y-128317142D01*
X175402857Y-127460000D02*
X175402857Y-125936190D01*
X176164761Y-124983809D02*
X174164761Y-124983809D01*
X174164761Y-124221904D01*
X174260000Y-124031428D01*
X174355238Y-123936190D01*
X174545714Y-123840952D01*
X174831428Y-123840952D01*
X175021904Y-123936190D01*
X175117142Y-124031428D01*
X175212380Y-124221904D01*
X175212380Y-124983809D01*
X176164761Y-122983809D02*
X174164761Y-122983809D01*
X175974285Y-120888571D02*
X176069523Y-120983809D01*
X176164761Y-121269523D01*
X176164761Y-121460000D01*
X176069523Y-121745714D01*
X175879047Y-121936190D01*
X175688571Y-122031428D01*
X175307619Y-122126666D01*
X175021904Y-122126666D01*
X174640952Y-122031428D01*
X174450476Y-121936190D01*
X174260000Y-121745714D01*
X174164761Y-121460000D01*
X174164761Y-121269523D01*
X174260000Y-120983809D01*
X174355238Y-120888571D01*
X174164761Y-119650476D02*
X174164761Y-119269523D01*
X174260000Y-119079047D01*
X174450476Y-118888571D01*
X174831428Y-118793333D01*
X175498095Y-118793333D01*
X175879047Y-118888571D01*
X176069523Y-119079047D01*
X176164761Y-119269523D01*
X176164761Y-119650476D01*
X176069523Y-119840952D01*
X175879047Y-120031428D01*
X175498095Y-120126666D01*
X174831428Y-120126666D01*
X174450476Y-120031428D01*
X174260000Y-119840952D01*
X174164761Y-119650476D01*
X175402857Y-117936190D02*
X175402857Y-116412380D01*
X176164761Y-115460000D02*
X174164761Y-115460000D01*
X176164761Y-114317142D02*
X175021904Y-115174285D01*
X174164761Y-114317142D02*
X175307619Y-115460000D01*
X176164761Y-113460000D02*
X174164761Y-113460000D01*
X174164761Y-112793333D02*
X174164761Y-111650476D01*
X176164761Y-112221904D02*
X174164761Y-112221904D01*
D13*
X169817023Y-100687142D02*
X169769404Y-100734761D01*
X169626547Y-100782380D01*
X169531309Y-100782380D01*
X169388452Y-100734761D01*
X169293214Y-100639523D01*
X169245595Y-100544285D01*
X169197976Y-100353809D01*
X169197976Y-100210952D01*
X169245595Y-100020476D01*
X169293214Y-99925238D01*
X169388452Y-99830000D01*
X169531309Y-99782380D01*
X169626547Y-99782380D01*
X169769404Y-99830000D01*
X169817023Y-99877619D01*
X170197976Y-100734761D02*
X170340833Y-100782380D01*
X170578928Y-100782380D01*
X170674166Y-100734761D01*
X170721785Y-100687142D01*
X170769404Y-100591904D01*
X170769404Y-100496666D01*
X170721785Y-100401428D01*
X170674166Y-100353809D01*
X170578928Y-100306190D01*
X170388452Y-100258571D01*
X170293214Y-100210952D01*
X170245595Y-100163333D01*
X170197976Y-100068095D01*
X170197976Y-99972857D01*
X170245595Y-99877619D01*
X170293214Y-99830000D01*
X170388452Y-99782380D01*
X170626547Y-99782380D01*
X170769404Y-99830000D01*
X169245595Y-103322380D02*
X169245595Y-102322380D01*
X169483690Y-102322380D01*
X169626547Y-102370000D01*
X169721785Y-102465238D01*
X169769404Y-102560476D01*
X169817023Y-102750952D01*
X169817023Y-102893809D01*
X169769404Y-103084285D01*
X169721785Y-103179523D01*
X169626547Y-103274761D01*
X169483690Y-103322380D01*
X169245595Y-103322380D01*
X170436071Y-102322380D02*
X170531309Y-102322380D01*
X170626547Y-102370000D01*
X170674166Y-102417619D01*
X170721785Y-102512857D01*
X170769404Y-102703333D01*
X170769404Y-102941428D01*
X170721785Y-103131904D01*
X170674166Y-103227142D01*
X170626547Y-103274761D01*
X170531309Y-103322380D01*
X170436071Y-103322380D01*
X170340833Y-103274761D01*
X170293214Y-103227142D01*
X170245595Y-103131904D01*
X170197976Y-102941428D01*
X170197976Y-102703333D01*
X170245595Y-102512857D01*
X170293214Y-102417619D01*
X170340833Y-102370000D01*
X170436071Y-102322380D01*
X169245595Y-105862380D02*
X169245595Y-104862380D01*
X169483690Y-104862380D01*
X169626547Y-104910000D01*
X169721785Y-105005238D01*
X169769404Y-105100476D01*
X169817023Y-105290952D01*
X169817023Y-105433809D01*
X169769404Y-105624285D01*
X169721785Y-105719523D01*
X169626547Y-105814761D01*
X169483690Y-105862380D01*
X169245595Y-105862380D01*
X170197976Y-104957619D02*
X170245595Y-104910000D01*
X170340833Y-104862380D01*
X170578928Y-104862380D01*
X170674166Y-104910000D01*
X170721785Y-104957619D01*
X170769404Y-105052857D01*
X170769404Y-105148095D01*
X170721785Y-105290952D01*
X170150357Y-105862380D01*
X170769404Y-105862380D01*
X179798214Y-100782380D02*
X179798214Y-99782380D01*
X180036309Y-99782380D01*
X180179166Y-99830000D01*
X180274404Y-99925238D01*
X180322023Y-100020476D01*
X180369642Y-100210952D01*
X180369642Y-100353809D01*
X180322023Y-100544285D01*
X180274404Y-100639523D01*
X180179166Y-100734761D01*
X180036309Y-100782380D01*
X179798214Y-100782380D01*
X181322023Y-100782380D02*
X180750595Y-100782380D01*
X181036309Y-100782380D02*
X181036309Y-99782380D01*
X180941071Y-99925238D01*
X180845833Y-100020476D01*
X180750595Y-100068095D01*
X179798214Y-103322380D02*
X179798214Y-102322380D01*
X180036309Y-102322380D01*
X180179166Y-102370000D01*
X180274404Y-102465238D01*
X180322023Y-102560476D01*
X180369642Y-102750952D01*
X180369642Y-102893809D01*
X180322023Y-103084285D01*
X180274404Y-103179523D01*
X180179166Y-103274761D01*
X180036309Y-103322380D01*
X179798214Y-103322380D01*
X180702976Y-102322380D02*
X181322023Y-102322380D01*
X180988690Y-102703333D01*
X181131547Y-102703333D01*
X181226785Y-102750952D01*
X181274404Y-102798571D01*
X181322023Y-102893809D01*
X181322023Y-103131904D01*
X181274404Y-103227142D01*
X181226785Y-103274761D01*
X181131547Y-103322380D01*
X180845833Y-103322380D01*
X180750595Y-103274761D01*
X180702976Y-103227142D01*
X179512500Y-105767142D02*
X179464880Y-105814761D01*
X179322023Y-105862380D01*
X179226785Y-105862380D01*
X179083928Y-105814761D01*
X178988690Y-105719523D01*
X178941071Y-105624285D01*
X178893452Y-105433809D01*
X178893452Y-105290952D01*
X178941071Y-105100476D01*
X178988690Y-105005238D01*
X179083928Y-104910000D01*
X179226785Y-104862380D01*
X179322023Y-104862380D01*
X179464880Y-104910000D01*
X179512500Y-104957619D01*
X180417261Y-105862380D02*
X179941071Y-105862380D01*
X179941071Y-104862380D01*
X180750595Y-105862380D02*
X180750595Y-104862380D01*
X181322023Y-105862380D02*
X180893452Y-105290952D01*
X181322023Y-104862380D02*
X180750595Y-105433809D01*
X169197976Y-108354761D02*
X169340833Y-108402380D01*
X169578928Y-108402380D01*
X169674166Y-108354761D01*
X169721785Y-108307142D01*
X169769404Y-108211904D01*
X169769404Y-108116666D01*
X169721785Y-108021428D01*
X169674166Y-107973809D01*
X169578928Y-107926190D01*
X169388452Y-107878571D01*
X169293214Y-107830952D01*
X169245595Y-107783333D01*
X169197976Y-107688095D01*
X169197976Y-107592857D01*
X169245595Y-107497619D01*
X169293214Y-107450000D01*
X169388452Y-107402380D01*
X169626547Y-107402380D01*
X169769404Y-107450000D01*
X170055119Y-107402380D02*
X170388452Y-108402380D01*
X170721785Y-107402380D01*
X171055119Y-108402380D02*
X171055119Y-107402380D01*
X171436071Y-107402380D01*
X171531309Y-107450000D01*
X171578928Y-107497619D01*
X171626547Y-107592857D01*
X171626547Y-107735714D01*
X171578928Y-107830952D01*
X171531309Y-107878571D01*
X171436071Y-107926190D01*
X171055119Y-107926190D01*
X169150357Y-117562380D02*
X169769404Y-117562380D01*
X169436071Y-117943333D01*
X169578928Y-117943333D01*
X169674166Y-117990952D01*
X169721785Y-118038571D01*
X169769404Y-118133809D01*
X169769404Y-118371904D01*
X169721785Y-118467142D01*
X169674166Y-118514761D01*
X169578928Y-118562380D01*
X169293214Y-118562380D01*
X169197976Y-118514761D01*
X169150357Y-118467142D01*
X170150357Y-117657619D02*
X170197976Y-117610000D01*
X170293214Y-117562380D01*
X170531309Y-117562380D01*
X170626547Y-117610000D01*
X170674166Y-117657619D01*
X170721785Y-117752857D01*
X170721785Y-117848095D01*
X170674166Y-117990952D01*
X170102738Y-118562380D01*
X170721785Y-118562380D01*
X169197976Y-122737619D02*
X169245595Y-122690000D01*
X169340833Y-122642380D01*
X169578928Y-122642380D01*
X169674166Y-122690000D01*
X169721785Y-122737619D01*
X169769404Y-122832857D01*
X169769404Y-122928095D01*
X169721785Y-123070952D01*
X169150357Y-123642380D01*
X169769404Y-123642380D01*
X170102738Y-122642380D02*
X170769404Y-122642380D01*
X170340833Y-123642380D01*
X169769404Y-128722380D02*
X169197976Y-128722380D01*
X169483690Y-128722380D02*
X169483690Y-127722380D01*
X169388452Y-127865238D01*
X169293214Y-127960476D01*
X169197976Y-128008095D01*
X170150357Y-127817619D02*
X170197976Y-127770000D01*
X170293214Y-127722380D01*
X170531309Y-127722380D01*
X170626547Y-127770000D01*
X170674166Y-127817619D01*
X170721785Y-127912857D01*
X170721785Y-128008095D01*
X170674166Y-128150952D01*
X170102738Y-128722380D01*
X170721785Y-128722380D01*
X169150357Y-120102380D02*
X169769404Y-120102380D01*
X169436071Y-120483333D01*
X169578928Y-120483333D01*
X169674166Y-120530952D01*
X169721785Y-120578571D01*
X169769404Y-120673809D01*
X169769404Y-120911904D01*
X169721785Y-121007142D01*
X169674166Y-121054761D01*
X169578928Y-121102380D01*
X169293214Y-121102380D01*
X169197976Y-121054761D01*
X169150357Y-121007142D01*
X170102738Y-120102380D02*
X170721785Y-120102380D01*
X170388452Y-120483333D01*
X170531309Y-120483333D01*
X170626547Y-120530952D01*
X170674166Y-120578571D01*
X170721785Y-120673809D01*
X170721785Y-120911904D01*
X170674166Y-121007142D01*
X170626547Y-121054761D01*
X170531309Y-121102380D01*
X170245595Y-121102380D01*
X170150357Y-121054761D01*
X170102738Y-121007142D01*
X169197976Y-110894761D02*
X169340833Y-110942380D01*
X169578928Y-110942380D01*
X169674166Y-110894761D01*
X169721785Y-110847142D01*
X169769404Y-110751904D01*
X169769404Y-110656666D01*
X169721785Y-110561428D01*
X169674166Y-110513809D01*
X169578928Y-110466190D01*
X169388452Y-110418571D01*
X169293214Y-110370952D01*
X169245595Y-110323333D01*
X169197976Y-110228095D01*
X169197976Y-110132857D01*
X169245595Y-110037619D01*
X169293214Y-109990000D01*
X169388452Y-109942380D01*
X169626547Y-109942380D01*
X169769404Y-109990000D01*
X170055119Y-109942380D02*
X170388452Y-110942380D01*
X170721785Y-109942380D01*
X171055119Y-110942380D02*
X171055119Y-109942380D01*
X171626547Y-110942380D01*
X171626547Y-109942380D01*
X169197976Y-112577619D02*
X169245595Y-112530000D01*
X169340833Y-112482380D01*
X169578928Y-112482380D01*
X169674166Y-112530000D01*
X169721785Y-112577619D01*
X169769404Y-112672857D01*
X169769404Y-112768095D01*
X169721785Y-112910952D01*
X169150357Y-113482380D01*
X169769404Y-113482380D01*
X170674166Y-112482380D02*
X170197976Y-112482380D01*
X170150357Y-112958571D01*
X170197976Y-112910952D01*
X170293214Y-112863333D01*
X170531309Y-112863333D01*
X170626547Y-112910952D01*
X170674166Y-112958571D01*
X170721785Y-113053809D01*
X170721785Y-113291904D01*
X170674166Y-113387142D01*
X170626547Y-113434761D01*
X170531309Y-113482380D01*
X170293214Y-113482380D01*
X170197976Y-113434761D01*
X170150357Y-113387142D01*
X169197976Y-115117619D02*
X169245595Y-115070000D01*
X169340833Y-115022380D01*
X169578928Y-115022380D01*
X169674166Y-115070000D01*
X169721785Y-115117619D01*
X169769404Y-115212857D01*
X169769404Y-115308095D01*
X169721785Y-115450952D01*
X169150357Y-116022380D01*
X169769404Y-116022380D01*
X170626547Y-115022380D02*
X170436071Y-115022380D01*
X170340833Y-115070000D01*
X170293214Y-115117619D01*
X170197976Y-115260476D01*
X170150357Y-115450952D01*
X170150357Y-115831904D01*
X170197976Y-115927142D01*
X170245595Y-115974761D01*
X170340833Y-116022380D01*
X170531309Y-116022380D01*
X170626547Y-115974761D01*
X170674166Y-115927142D01*
X170721785Y-115831904D01*
X170721785Y-115593809D01*
X170674166Y-115498571D01*
X170626547Y-115450952D01*
X170531309Y-115403333D01*
X170340833Y-115403333D01*
X170245595Y-115450952D01*
X170197976Y-115498571D01*
X170150357Y-115593809D01*
X169769404Y-126182380D02*
X169197976Y-126182380D01*
X169483690Y-126182380D02*
X169483690Y-125182380D01*
X169388452Y-125325238D01*
X169293214Y-125420476D01*
X169197976Y-125468095D01*
X170626547Y-125515714D02*
X170626547Y-126182380D01*
X170388452Y-125134761D02*
X170150357Y-125849047D01*
X170769404Y-125849047D01*
X169769404Y-131262380D02*
X169197976Y-131262380D01*
X169483690Y-131262380D02*
X169483690Y-130262380D01*
X169388452Y-130405238D01*
X169293214Y-130500476D01*
X169197976Y-130548095D01*
X170102738Y-130262380D02*
X170721785Y-130262380D01*
X170388452Y-130643333D01*
X170531309Y-130643333D01*
X170626547Y-130690952D01*
X170674166Y-130738571D01*
X170721785Y-130833809D01*
X170721785Y-131071904D01*
X170674166Y-131167142D01*
X170626547Y-131214761D01*
X170531309Y-131262380D01*
X170245595Y-131262380D01*
X170150357Y-131214761D01*
X170102738Y-131167142D01*
X169769404Y-133802380D02*
X169197976Y-133802380D01*
X169483690Y-133802380D02*
X169483690Y-132802380D01*
X169388452Y-132945238D01*
X169293214Y-133040476D01*
X169197976Y-133088095D01*
X170674166Y-132802380D02*
X170197976Y-132802380D01*
X170150357Y-133278571D01*
X170197976Y-133230952D01*
X170293214Y-133183333D01*
X170531309Y-133183333D01*
X170626547Y-133230952D01*
X170674166Y-133278571D01*
X170721785Y-133373809D01*
X170721785Y-133611904D01*
X170674166Y-133707142D01*
X170626547Y-133754761D01*
X170531309Y-133802380D01*
X170293214Y-133802380D01*
X170197976Y-133754761D01*
X170150357Y-133707142D01*
X169197976Y-135437619D02*
X169245595Y-135390000D01*
X169340833Y-135342380D01*
X169578928Y-135342380D01*
X169674166Y-135390000D01*
X169721785Y-135437619D01*
X169769404Y-135532857D01*
X169769404Y-135628095D01*
X169721785Y-135770952D01*
X169150357Y-136342380D01*
X169769404Y-136342380D01*
X169674166Y-138215714D02*
X169674166Y-138882380D01*
X169436071Y-137834761D02*
X169197976Y-138549047D01*
X169817023Y-138549047D01*
X169436071Y-140422380D02*
X169531309Y-140422380D01*
X169626547Y-140470000D01*
X169674166Y-140517619D01*
X169721785Y-140612857D01*
X169769404Y-140803333D01*
X169769404Y-141041428D01*
X169721785Y-141231904D01*
X169674166Y-141327142D01*
X169626547Y-141374761D01*
X169531309Y-141422380D01*
X169436071Y-141422380D01*
X169340833Y-141374761D01*
X169293214Y-141327142D01*
X169245595Y-141231904D01*
X169197976Y-141041428D01*
X169197976Y-140803333D01*
X169245595Y-140612857D01*
X169293214Y-140517619D01*
X169340833Y-140470000D01*
X169436071Y-140422380D01*
X169150357Y-142962380D02*
X169769404Y-142962380D01*
X169436071Y-143343333D01*
X169578928Y-143343333D01*
X169674166Y-143390952D01*
X169721785Y-143438571D01*
X169769404Y-143533809D01*
X169769404Y-143771904D01*
X169721785Y-143867142D01*
X169674166Y-143914761D01*
X169578928Y-143962380D01*
X169293214Y-143962380D01*
X169197976Y-143914761D01*
X169150357Y-143867142D01*
X170055119Y-142962380D02*
X170388452Y-143962380D01*
X170721785Y-142962380D01*
X170959880Y-142962380D02*
X171578928Y-142962380D01*
X171245595Y-143343333D01*
X171388452Y-143343333D01*
X171483690Y-143390952D01*
X171531309Y-143438571D01*
X171578928Y-143533809D01*
X171578928Y-143771904D01*
X171531309Y-143867142D01*
X171483690Y-143914761D01*
X171388452Y-143962380D01*
X171102738Y-143962380D01*
X171007500Y-143914761D01*
X170959880Y-143867142D01*
X169769404Y-145550000D02*
X169674166Y-145502380D01*
X169531309Y-145502380D01*
X169388452Y-145550000D01*
X169293214Y-145645238D01*
X169245595Y-145740476D01*
X169197976Y-145930952D01*
X169197976Y-146073809D01*
X169245595Y-146264285D01*
X169293214Y-146359523D01*
X169388452Y-146454761D01*
X169531309Y-146502380D01*
X169626547Y-146502380D01*
X169769404Y-146454761D01*
X169817023Y-146407142D01*
X169817023Y-146073809D01*
X169626547Y-146073809D01*
X170245595Y-146502380D02*
X170245595Y-145502380D01*
X170817023Y-146502380D01*
X170817023Y-145502380D01*
X171293214Y-146502380D02*
X171293214Y-145502380D01*
X171531309Y-145502380D01*
X171674166Y-145550000D01*
X171769404Y-145645238D01*
X171817023Y-145740476D01*
X171864642Y-145930952D01*
X171864642Y-146073809D01*
X171817023Y-146264285D01*
X171769404Y-146359523D01*
X171674166Y-146454761D01*
X171531309Y-146502380D01*
X171293214Y-146502380D01*
X169721785Y-148042380D02*
X169245595Y-148042380D01*
X169197976Y-148518571D01*
X169245595Y-148470952D01*
X169340833Y-148423333D01*
X169578928Y-148423333D01*
X169674166Y-148470952D01*
X169721785Y-148518571D01*
X169769404Y-148613809D01*
X169769404Y-148851904D01*
X169721785Y-148947142D01*
X169674166Y-148994761D01*
X169578928Y-149042380D01*
X169340833Y-149042380D01*
X169245595Y-148994761D01*
X169197976Y-148947142D01*
X170055119Y-148042380D02*
X170388452Y-149042380D01*
X170721785Y-148042380D01*
X179417261Y-128722380D02*
X179083928Y-128246190D01*
X178845833Y-128722380D02*
X178845833Y-127722380D01*
X179226785Y-127722380D01*
X179322023Y-127770000D01*
X179369642Y-127817619D01*
X179417261Y-127912857D01*
X179417261Y-128055714D01*
X179369642Y-128150952D01*
X179322023Y-128198571D01*
X179226785Y-128246190D01*
X178845833Y-128246190D01*
X179750595Y-127722380D02*
X180417261Y-128722380D01*
X180417261Y-127722380D02*
X179750595Y-128722380D01*
X180988690Y-127722380D02*
X181083928Y-127722380D01*
X181179166Y-127770000D01*
X181226785Y-127817619D01*
X181274404Y-127912857D01*
X181322023Y-128103333D01*
X181322023Y-128341428D01*
X181274404Y-128531904D01*
X181226785Y-128627142D01*
X181179166Y-128674761D01*
X181083928Y-128722380D01*
X180988690Y-128722380D01*
X180893452Y-128674761D01*
X180845833Y-128627142D01*
X180798214Y-128531904D01*
X180750595Y-128341428D01*
X180750595Y-128103333D01*
X180798214Y-127912857D01*
X180845833Y-127817619D01*
X180893452Y-127770000D01*
X180988690Y-127722380D01*
X179798214Y-107497619D02*
X179845833Y-107450000D01*
X179941071Y-107402380D01*
X180179166Y-107402380D01*
X180274404Y-107450000D01*
X180322023Y-107497619D01*
X180369642Y-107592857D01*
X180369642Y-107688095D01*
X180322023Y-107830952D01*
X179750595Y-108402380D01*
X180369642Y-108402380D01*
X181322023Y-108402380D02*
X180750595Y-108402380D01*
X181036309Y-108402380D02*
X181036309Y-107402380D01*
X180941071Y-107545238D01*
X180845833Y-107640476D01*
X180750595Y-107688095D01*
X179798214Y-110037619D02*
X179845833Y-109990000D01*
X179941071Y-109942380D01*
X180179166Y-109942380D01*
X180274404Y-109990000D01*
X180322023Y-110037619D01*
X180369642Y-110132857D01*
X180369642Y-110228095D01*
X180322023Y-110370952D01*
X179750595Y-110942380D01*
X180369642Y-110942380D01*
X180750595Y-110037619D02*
X180798214Y-109990000D01*
X180893452Y-109942380D01*
X181131547Y-109942380D01*
X181226785Y-109990000D01*
X181274404Y-110037619D01*
X181322023Y-110132857D01*
X181322023Y-110228095D01*
X181274404Y-110370952D01*
X180702976Y-110942380D01*
X181322023Y-110942380D01*
X180369642Y-113482380D02*
X179798214Y-113482380D01*
X180083928Y-113482380D02*
X180083928Y-112482380D01*
X179988690Y-112625238D01*
X179893452Y-112720476D01*
X179798214Y-112768095D01*
X180845833Y-113482380D02*
X181036309Y-113482380D01*
X181131547Y-113434761D01*
X181179166Y-113387142D01*
X181274404Y-113244285D01*
X181322023Y-113053809D01*
X181322023Y-112672857D01*
X181274404Y-112577619D01*
X181226785Y-112530000D01*
X181131547Y-112482380D01*
X180941071Y-112482380D01*
X180845833Y-112530000D01*
X180798214Y-112577619D01*
X180750595Y-112672857D01*
X180750595Y-112910952D01*
X180798214Y-113006190D01*
X180845833Y-113053809D01*
X180941071Y-113101428D01*
X181131547Y-113101428D01*
X181226785Y-113053809D01*
X181274404Y-113006190D01*
X181322023Y-112910952D01*
X179798214Y-115117619D02*
X179845833Y-115070000D01*
X179941071Y-115022380D01*
X180179166Y-115022380D01*
X180274404Y-115070000D01*
X180322023Y-115117619D01*
X180369642Y-115212857D01*
X180369642Y-115308095D01*
X180322023Y-115450952D01*
X179750595Y-116022380D01*
X180369642Y-116022380D01*
X180702976Y-115022380D02*
X181322023Y-115022380D01*
X180988690Y-115403333D01*
X181131547Y-115403333D01*
X181226785Y-115450952D01*
X181274404Y-115498571D01*
X181322023Y-115593809D01*
X181322023Y-115831904D01*
X181274404Y-115927142D01*
X181226785Y-115974761D01*
X181131547Y-116022380D01*
X180845833Y-116022380D01*
X180750595Y-115974761D01*
X180702976Y-115927142D01*
X180369642Y-118562380D02*
X179798214Y-118562380D01*
X180083928Y-118562380D02*
X180083928Y-117562380D01*
X179988690Y-117705238D01*
X179893452Y-117800476D01*
X179798214Y-117848095D01*
X180941071Y-117990952D02*
X180845833Y-117943333D01*
X180798214Y-117895714D01*
X180750595Y-117800476D01*
X180750595Y-117752857D01*
X180798214Y-117657619D01*
X180845833Y-117610000D01*
X180941071Y-117562380D01*
X181131547Y-117562380D01*
X181226785Y-117610000D01*
X181274404Y-117657619D01*
X181322023Y-117752857D01*
X181322023Y-117800476D01*
X181274404Y-117895714D01*
X181226785Y-117943333D01*
X181131547Y-117990952D01*
X180941071Y-117990952D01*
X180845833Y-118038571D01*
X180798214Y-118086190D01*
X180750595Y-118181428D01*
X180750595Y-118371904D01*
X180798214Y-118467142D01*
X180845833Y-118514761D01*
X180941071Y-118562380D01*
X181131547Y-118562380D01*
X181226785Y-118514761D01*
X181274404Y-118467142D01*
X181322023Y-118371904D01*
X181322023Y-118181428D01*
X181274404Y-118086190D01*
X181226785Y-118038571D01*
X181131547Y-117990952D01*
X181274404Y-120102380D02*
X180798214Y-120102380D01*
X180750595Y-120578571D01*
X180798214Y-120530952D01*
X180893452Y-120483333D01*
X181131547Y-120483333D01*
X181226785Y-120530952D01*
X181274404Y-120578571D01*
X181322023Y-120673809D01*
X181322023Y-120911904D01*
X181274404Y-121007142D01*
X181226785Y-121054761D01*
X181131547Y-121102380D01*
X180893452Y-121102380D01*
X180798214Y-121054761D01*
X180750595Y-121007142D01*
X180369642Y-123642380D02*
X179798214Y-123642380D01*
X180083928Y-123642380D02*
X180083928Y-122642380D01*
X179988690Y-122785238D01*
X179893452Y-122880476D01*
X179798214Y-122928095D01*
X180988690Y-122642380D02*
X181083928Y-122642380D01*
X181179166Y-122690000D01*
X181226785Y-122737619D01*
X181274404Y-122832857D01*
X181322023Y-123023333D01*
X181322023Y-123261428D01*
X181274404Y-123451904D01*
X181226785Y-123547142D01*
X181179166Y-123594761D01*
X181083928Y-123642380D01*
X180988690Y-123642380D01*
X180893452Y-123594761D01*
X180845833Y-123547142D01*
X180798214Y-123451904D01*
X180750595Y-123261428D01*
X180750595Y-123023333D01*
X180798214Y-122832857D01*
X180845833Y-122737619D01*
X180893452Y-122690000D01*
X180988690Y-122642380D01*
X180845833Y-126182380D02*
X181036309Y-126182380D01*
X181131547Y-126134761D01*
X181179166Y-126087142D01*
X181274404Y-125944285D01*
X181322023Y-125753809D01*
X181322023Y-125372857D01*
X181274404Y-125277619D01*
X181226785Y-125230000D01*
X181131547Y-125182380D01*
X180941071Y-125182380D01*
X180845833Y-125230000D01*
X180798214Y-125277619D01*
X180750595Y-125372857D01*
X180750595Y-125610952D01*
X180798214Y-125706190D01*
X180845833Y-125753809D01*
X180941071Y-125801428D01*
X181131547Y-125801428D01*
X181226785Y-125753809D01*
X181274404Y-125706190D01*
X181322023Y-125610952D01*
X178941071Y-130262380D02*
X179512500Y-130262380D01*
X179226785Y-131262380D02*
X179226785Y-130262380D01*
X179750595Y-130262380D02*
X180417261Y-131262380D01*
X180417261Y-130262380D02*
X179750595Y-131262380D01*
X180988690Y-130262380D02*
X181083928Y-130262380D01*
X181179166Y-130310000D01*
X181226785Y-130357619D01*
X181274404Y-130452857D01*
X181322023Y-130643333D01*
X181322023Y-130881428D01*
X181274404Y-131071904D01*
X181226785Y-131167142D01*
X181179166Y-131214761D01*
X181083928Y-131262380D01*
X180988690Y-131262380D01*
X180893452Y-131214761D01*
X180845833Y-131167142D01*
X180798214Y-131071904D01*
X180750595Y-130881428D01*
X180750595Y-130643333D01*
X180798214Y-130452857D01*
X180845833Y-130357619D01*
X180893452Y-130310000D01*
X180988690Y-130262380D01*
X179750595Y-132802380D02*
X180369642Y-132802380D01*
X180036309Y-133183333D01*
X180179166Y-133183333D01*
X180274404Y-133230952D01*
X180322023Y-133278571D01*
X180369642Y-133373809D01*
X180369642Y-133611904D01*
X180322023Y-133707142D01*
X180274404Y-133754761D01*
X180179166Y-133802380D01*
X179893452Y-133802380D01*
X179798214Y-133754761D01*
X179750595Y-133707142D01*
X181274404Y-132802380D02*
X180798214Y-132802380D01*
X180750595Y-133278571D01*
X180798214Y-133230952D01*
X180893452Y-133183333D01*
X181131547Y-133183333D01*
X181226785Y-133230952D01*
X181274404Y-133278571D01*
X181322023Y-133373809D01*
X181322023Y-133611904D01*
X181274404Y-133707142D01*
X181226785Y-133754761D01*
X181131547Y-133802380D01*
X180893452Y-133802380D01*
X180798214Y-133754761D01*
X180750595Y-133707142D01*
X179750595Y-135342380D02*
X180369642Y-135342380D01*
X180036309Y-135723333D01*
X180179166Y-135723333D01*
X180274404Y-135770952D01*
X180322023Y-135818571D01*
X180369642Y-135913809D01*
X180369642Y-136151904D01*
X180322023Y-136247142D01*
X180274404Y-136294761D01*
X180179166Y-136342380D01*
X179893452Y-136342380D01*
X179798214Y-136294761D01*
X179750595Y-136247142D01*
X181226785Y-135675714D02*
X181226785Y-136342380D01*
X180988690Y-135294761D02*
X180750595Y-136009047D01*
X181369642Y-136009047D01*
X179750595Y-137882380D02*
X180369642Y-137882380D01*
X180036309Y-138263333D01*
X180179166Y-138263333D01*
X180274404Y-138310952D01*
X180322023Y-138358571D01*
X180369642Y-138453809D01*
X180369642Y-138691904D01*
X180322023Y-138787142D01*
X180274404Y-138834761D01*
X180179166Y-138882380D01*
X179893452Y-138882380D01*
X179798214Y-138834761D01*
X179750595Y-138787142D01*
X180941071Y-138310952D02*
X180845833Y-138263333D01*
X180798214Y-138215714D01*
X180750595Y-138120476D01*
X180750595Y-138072857D01*
X180798214Y-137977619D01*
X180845833Y-137930000D01*
X180941071Y-137882380D01*
X181131547Y-137882380D01*
X181226785Y-137930000D01*
X181274404Y-137977619D01*
X181322023Y-138072857D01*
X181322023Y-138120476D01*
X181274404Y-138215714D01*
X181226785Y-138263333D01*
X181131547Y-138310952D01*
X180941071Y-138310952D01*
X180845833Y-138358571D01*
X180798214Y-138406190D01*
X180750595Y-138501428D01*
X180750595Y-138691904D01*
X180798214Y-138787142D01*
X180845833Y-138834761D01*
X180941071Y-138882380D01*
X181131547Y-138882380D01*
X181226785Y-138834761D01*
X181274404Y-138787142D01*
X181322023Y-138691904D01*
X181322023Y-138501428D01*
X181274404Y-138406190D01*
X181226785Y-138358571D01*
X181131547Y-138310952D01*
X179750595Y-140422380D02*
X180369642Y-140422380D01*
X180036309Y-140803333D01*
X180179166Y-140803333D01*
X180274404Y-140850952D01*
X180322023Y-140898571D01*
X180369642Y-140993809D01*
X180369642Y-141231904D01*
X180322023Y-141327142D01*
X180274404Y-141374761D01*
X180179166Y-141422380D01*
X179893452Y-141422380D01*
X179798214Y-141374761D01*
X179750595Y-141327142D01*
X180702976Y-140422380D02*
X181369642Y-140422380D01*
X180941071Y-141422380D01*
X179798214Y-143438571D02*
X180131547Y-143438571D01*
X180274404Y-143962380D02*
X179798214Y-143962380D01*
X179798214Y-142962380D01*
X180274404Y-142962380D01*
X180702976Y-143962380D02*
X180702976Y-142962380D01*
X181274404Y-143962380D01*
X181274404Y-142962380D01*
X179226785Y-145550000D02*
X179131547Y-145502380D01*
X178988690Y-145502380D01*
X178845833Y-145550000D01*
X178750595Y-145645238D01*
X178702976Y-145740476D01*
X178655357Y-145930952D01*
X178655357Y-146073809D01*
X178702976Y-146264285D01*
X178750595Y-146359523D01*
X178845833Y-146454761D01*
X178988690Y-146502380D01*
X179083928Y-146502380D01*
X179226785Y-146454761D01*
X179274404Y-146407142D01*
X179274404Y-146073809D01*
X179083928Y-146073809D01*
X179702976Y-146502380D02*
X179702976Y-145502380D01*
X180274404Y-146502380D01*
X180274404Y-145502380D01*
X180750595Y-146502380D02*
X180750595Y-145502380D01*
X180988690Y-145502380D01*
X181131547Y-145550000D01*
X181226785Y-145645238D01*
X181274404Y-145740476D01*
X181322023Y-145930952D01*
X181322023Y-146073809D01*
X181274404Y-146264285D01*
X181226785Y-146359523D01*
X181131547Y-146454761D01*
X180988690Y-146502380D01*
X180750595Y-146502380D01*
X178893452Y-148042380D02*
X179512500Y-148042380D01*
X179179166Y-148423333D01*
X179322023Y-148423333D01*
X179417261Y-148470952D01*
X179464880Y-148518571D01*
X179512500Y-148613809D01*
X179512500Y-148851904D01*
X179464880Y-148947142D01*
X179417261Y-148994761D01*
X179322023Y-149042380D01*
X179036309Y-149042380D01*
X178941071Y-148994761D01*
X178893452Y-148947142D01*
X179798214Y-148042380D02*
X180131547Y-149042380D01*
X180464880Y-148042380D01*
X180702976Y-148042380D02*
X181322023Y-148042380D01*
X180988690Y-148423333D01*
X181131547Y-148423333D01*
X181226785Y-148470952D01*
X181274404Y-148518571D01*
X181322023Y-148613809D01*
X181322023Y-148851904D01*
X181274404Y-148947142D01*
X181226785Y-148994761D01*
X181131547Y-149042380D01*
X180845833Y-149042380D01*
X180750595Y-148994761D01*
X180702976Y-148947142D01*
X135996666Y-108452380D02*
X135996666Y-109166666D01*
X135949047Y-109309523D01*
X135853809Y-109404761D01*
X135710952Y-109452380D01*
X135615714Y-109452380D01*
X136996666Y-109452380D02*
X136425238Y-109452380D01*
X136710952Y-109452380D02*
X136710952Y-108452380D01*
X136615714Y-108595238D01*
X136520476Y-108690476D01*
X136425238Y-108738095D01*
M02*
